<svg xmlns="http://www.w3.org/2000/svg" width="767" height="325" viewBox="0 0 767 325" version="1.1"><path d="M 23.007 25.250 C 23.020 27.542, 34.385 40.783, 43.844 49.526 C 58.577 63.144, 71.332 70.826, 87 75.516 C 105.971 81.196, 99.796 81, 260.131 81 C 341.459 81, 408 81.251, 408 81.559 C 408 81.866, 406.700 83.778, 405.110 85.809 C 403.521 87.839, 401.005 91.750, 399.518 94.500 C 398.031 97.250, 395.657 100.728, 394.242 102.228 C 392.826 103.728, 390.730 106.479, 389.584 108.340 C 385.205 115.453, 379.420 123.805, 373.326 131.815 C 369.847 136.389, 366.968 140.664, 366.928 141.315 C 366.888 141.967, 363.548 147, 359.505 152.500 C 355.463 158, 348.077 168.575, 343.093 176 C 338.108 183.425, 333.176 190.633, 332.132 192.017 C 330.510 194.168, 324.584 202.506, 308.277 225.584 C 299.927 237.401, 301.290 250.579, 312.255 264.040 C 319.131 272.482, 335.432 284.087, 338.098 282.439 C 339.272 281.714, 344.868 274.156, 352.491 263 C 355.685 258.325, 359.307 253.375, 360.539 252 C 361.772 250.625, 364.192 247.025, 365.918 244 C 367.645 240.975, 371.857 234.568, 375.278 229.762 C 382.610 219.465, 398.067 197.174, 399.500 194.831 C 400.050 193.932, 403.982 188.230, 408.238 182.159 C 415.482 171.828, 416.217 171.097, 419.738 170.729 L 423.500 170.336 419.424 170.168 C 416.318 170.040, 414.831 170.551, 413.174 172.314 C 411.978 173.587, 411 174.950, 411 175.343 C 411 175.736, 408.750 178.957, 406 182.500 C 403.250 186.043, 401 189.161, 401 189.427 C 401 189.693, 399.196 192.519, 396.990 195.706 C 394.785 198.893, 392.547 202.175, 392.017 203 C 385.615 212.966, 382.097 218, 379.784 220.500 C 378.258 222.150, 377.007 224.025, 377.005 224.667 C 377.002 225.308, 376.609 225.983, 376.130 226.167 C 375.100 226.562, 365 241.333, 365 242.446 C 365 243.134, 360.086 249.803, 357.514 252.605 C 356.956 253.213, 354.925 256.303, 353 259.473 C 351.075 262.642, 347.362 267.956, 344.750 271.282 C 342.137 274.607, 340 277.688, 340 278.129 C 340 279.392, 335.815 281.301, 335.123 280.353 C 334.780 279.884, 332.475 278.427, 330 277.116 C 327.525 275.804, 325.032 274.160, 324.461 273.462 C 323.889 272.765, 321.479 270.571, 319.104 268.587 C 314.260 264.540, 311.263 260.705, 307.539 253.783 C 305.463 249.926, 305 247.694, 305 241.533 C 305 237.178, 305.422 234, 306 234 C 306.550 234, 307 233.100, 307 232 C 307 230.900, 307.862 229.138, 308.917 228.083 C 309.971 227.029, 310.581 225.915, 310.274 225.607 C 309.966 225.299, 310.453 224.763, 311.357 224.417 C 312.261 224.070, 313 223.259, 313 222.616 C 313 221.050, 319.131 214.427, 320.258 214.775 C 320.748 214.926, 320.893 214.636, 320.580 214.130 C 320.267 213.624, 320.684 212.952, 321.506 212.636 C 322.328 212.321, 323 211.572, 323 210.972 C 323 210.362, 322.457 210.218, 321.765 210.645 C 320.492 211.432, 327.474 201.286, 329.435 199.500 C 330.038 198.950, 332.082 195.912, 333.977 192.750 C 335.872 189.588, 337.777 187, 338.211 187 C 338.645 187, 339 186.470, 339 185.823 C 339 184.148, 348.119 170.891, 349.685 170.291 C 350.402 170.016, 350.742 169.391, 350.440 168.904 C 350.139 168.416, 351.147 166.775, 352.681 165.258 C 354.215 163.741, 355.479 162.275, 355.491 162 C 355.513 161.464, 356.782 159.642, 363.152 151 C 365.381 147.975, 367.653 144.263, 368.200 142.751 C 368.747 141.239, 369.601 140.253, 370.097 140.560 C 370.594 140.867, 371.056 140.641, 371.125 140.059 C 371.194 139.477, 371.306 138.588, 371.375 138.084 C 371.444 137.580, 372.617 135.667, 373.982 133.834 C 375.348 132, 377.959 128.339, 379.786 125.697 C 381.612 123.055, 383.982 120.018, 385.053 118.947 C 386.124 117.876, 387 116.578, 387 116.062 C 387 115.545, 389.700 111.540, 393 107.160 C 396.300 102.781, 399 98.729, 399 98.156 C 399 97.582, 399.840 96.525, 400.866 95.807 C 401.892 95.088, 402.725 94.275, 402.718 94 C 402.689 92.921, 407.030 85.099, 407.986 84.509 C 408.544 84.164, 409 83.021, 409 81.969 C 409 80.094, 405.937 80.050, 257.250 79.760 L 105.500 79.465 98.500 77.182 C 94.650 75.926, 90.326 74.712, 88.891 74.485 C 83.733 73.668, 76.409 70.740, 71.500 67.532 C 68.750 65.734, 65.487 63.949, 64.250 63.565 C 63.012 63.180, 62 62.446, 62 61.933 C 62 61.420, 61.509 61, 60.908 61 C 59.487 61, 55.521 57.862, 47.953 50.750 C 44.588 47.587, 41.395 45, 40.858 45 C 40.321 45, 40.206 44.438, 40.601 43.750 C 40.997 43.063, 40.985 42.801, 40.576 43.168 C 39.617 44.028, 36 40.953, 36 39.278 C 36 38.575, 35.523 38, 34.941 38 C 34.359 38, 34.160 37.550, 34.500 37 C 34.840 36.450, 34.447 36, 33.627 36 C 31.912 36, 28.079 31.005, 27.504 28.021 L 27.115 26 326.074 26 L 625.034 26 622.558 30.885 C 621.197 33.571, 618.596 37.284, 616.778 39.135 C 610.430 45.597, 602.590 52.498, 601.855 52.269 C 601.448 52.142, 600.302 53.042, 599.308 54.269 C 595.743 58.669, 583.984 66.632, 581.750 66.159 C 581.337 66.071, 581 66.477, 581 67.059 C 581 67.641, 580.550 67.840, 580 67.500 C 579.450 67.160, 579 67.275, 579 67.756 C 579 69.197, 573.068 71.585, 561.466 74.815 C 544.966 79.409, 538.730 80, 506.717 80 C 472.295 80, 476.844 78.279, 465.750 95.500 C 461.852 101.550, 458.064 106.860, 457.332 107.300 C 456.599 107.740, 456 108.551, 456 109.103 C 456 109.655, 453.423 113.570, 450.273 117.803 C 447.123 122.036, 444.535 125.838, 444.523 126.250 C 444.510 126.663, 443.224 128.600, 441.664 130.555 C 436.341 137.226, 434.307 136.954, 491.644 137.241 C 537.924 137.473, 543.198 137.660, 541.837 139.021 C 541 139.857, 539.792 141.521, 539.151 142.718 C 538.510 143.915, 536.146 147.020, 533.898 149.618 C 530.322 153.750, 526.938 158.398, 523.500 163.900 C 522.950 164.780, 521.960 165.847, 521.299 166.272 C 520.639 166.697, 519.438 167.705, 518.631 168.512 C 517.392 169.751, 510.094 170.022, 471.832 170.250 L 426.500 170.521 473.062 170.760 L 519.624 171 521.973 167.750 C 523.265 165.963, 524.925 163.825, 525.662 163 C 532.360 155.496, 546 137.097, 546 135.566 C 546 135.255, 522.375 135, 493.500 135 C 464.625 135, 441 134.762, 441 134.471 C 441 134.179, 442.687 131.759, 444.750 129.092 C 446.812 126.425, 451.875 119.263, 456 113.175 C 460.125 107.088, 466.792 97.358, 470.817 91.554 L 478.133 81 508.817 80.996 C 541.444 80.992, 552.446 79.977, 562.761 76.019 C 565.654 74.908, 568.898 74, 569.970 74 C 573.141 74, 587.947 65.851, 595.661 59.859 C 608.184 50.132, 618.911 39.778, 623.525 32.963 C 625.986 29.328, 628 25.824, 628 25.177 C 628 24.277, 556.780 24, 325.500 24 C 84.163 24, 23.001 24.253, 23.007 25.250 M 650.344 28.568 C 643.430 31.915, 631.014 45.561, 619.473 62.500 C 616.850 66.350, 613.610 70.524, 612.272 71.776 C 608.830 74.998, 591.065 97.764, 589.763 100.621 C 589.167 101.930, 588.322 103, 587.885 103 C 587.448 103, 582.473 108.963, 576.829 116.250 C 571.185 123.538, 564.865 131.187, 562.784 133.249 C 559.517 136.485, 558.039 139, 559.404 139 C 560.356 139, 567.004 132.535, 567.049 131.566 C 567.076 130.980, 568.873 128.700, 571.042 126.500 C 573.211 124.300, 574.997 122.050, 575.010 121.500 C 575.024 120.950, 577.371 118.025, 580.227 115 C 583.082 111.975, 585.437 109.264, 585.459 108.975 C 585.505 108.387, 592.888 98.107, 594.479 96.415 C 595.041 95.818, 596.400 94.062, 597.500 92.513 C 598.600 90.963, 600.288 88.864, 601.250 87.848 C 602.212 86.831, 603.008 85.662, 603.017 85.250 C 603.026 84.837, 604.939 82.452, 607.267 79.949 C 614.308 72.380, 623 61.895, 623 60.970 C 623 59.924, 628.934 51, 629.630 51 C 629.898 51, 629.840 51.450, 629.500 52 C 629.160 52.550, 629.310 53, 629.834 53 C 630.815 53, 632.232 50.412, 632.403 48.311 C 632.457 47.658, 633.400 46.272, 634.500 45.232 C 635.600 44.192, 638.651 40.862, 641.279 37.833 C 643.908 34.804, 648.183 31.240, 650.779 29.913 L 655.500 27.500 697.752 27.349 C 721.902 27.262, 740.242 27.583, 740.560 28.098 C 741.051 28.891, 729.721 43.756, 724.089 49.708 C 722.940 50.923, 722 52.190, 722 52.525 C 722 52.860, 720.875 54.608, 719.500 56.411 C 718.125 58.214, 717 60.003, 717 60.387 C 717 60.770, 716.545 61.628, 715.989 62.292 C 715.433 62.956, 714.047 64.742, 712.909 66.260 C 711.771 67.777, 710.356 68.720, 709.765 68.355 C 709.114 67.952, 708.983 68.163, 709.432 68.890 C 709.875 69.607, 708.632 71.789, 706.336 74.323 C 704.226 76.652, 701.375 80.088, 700 81.957 C 696.159 87.180, 692.580 91.464, 691.750 91.833 C 691.337 92.017, 691 92.583, 691 93.092 C 691 94.810, 685.273 101.939, 684.473 101.216 C 684.036 100.822, 683.984 101.032, 684.356 101.682 C 684.734 102.341, 684.044 103.556, 682.794 104.432 C 681.563 105.294, 680.980 106, 681.500 106 C 682.020 106, 681.445 106.701, 680.223 107.557 C 679 108.413, 678 109.715, 678 110.450 C 678 111.185, 677.296 112.056, 676.437 112.386 C 675.577 112.716, 675.111 113.371, 675.403 113.842 C 675.694 114.313, 674.935 115.620, 673.716 116.747 C 672.497 117.873, 670.150 120.728, 668.500 123.092 C 666.850 125.455, 662.714 130.627, 659.308 134.585 C 655.903 138.544, 653.297 141.964, 653.518 142.184 C 653.739 142.405, 652.813 143.874, 651.460 145.449 C 650.107 147.023, 648.999 148.579, 648.998 148.906 C 648.996 149.232, 647.621 151.075, 645.941 153 C 644.260 154.925, 642.225 157.738, 641.417 159.250 C 640.610 160.762, 639.597 162, 639.167 162 C 638.737 162, 636.238 164.925, 633.613 168.500 C 630.988 172.075, 628.426 175, 627.920 175 C 627.414 175, 627 175.620, 627 176.378 C 627 177.135, 626.299 178.337, 625.442 179.048 C 624.585 179.759, 623.286 181.727, 622.554 183.420 C 621.822 185.114, 619.373 188.450, 617.111 190.834 C 614.850 193.217, 613 195.580, 613 196.084 C 613 196.588, 612.497 196.888, 611.883 196.750 C 611.268 196.613, 610.618 197.400, 610.438 198.500 C 610.257 199.600, 608.812 201.662, 607.226 203.083 C 605.640 204.504, 604.089 206.304, 603.780 207.083 C 603.470 207.862, 600.468 211.759, 597.108 215.742 C 593.749 219.725, 591 223.325, 591 223.742 C 591 224.159, 588.986 226.975, 586.525 230 C 584.063 233.025, 580.360 237.952, 578.295 240.949 C 576.231 243.946, 572.802 248.221, 570.677 250.449 C 568.551 252.677, 563.694 258.918, 559.883 264.317 C 551.718 275.884, 551.594 276.040, 546.750 280.708 C 544.688 282.695, 543 284.924, 543 285.661 C 543 286.397, 542.373 287, 541.607 287 C 540.841 287, 539.993 287.577, 539.722 288.281 C 539.452 288.986, 536.627 290.838, 533.444 292.396 L 527.658 295.229 494.079 295.755 C 475.611 296.044, 455.239 295.950, 448.808 295.545 L 437.116 294.810 442.209 288.329 C 445.010 284.765, 448.341 281.167, 449.612 280.335 C 450.882 279.502, 452.175 278.023, 452.485 277.048 C 452.794 276.074, 454.837 273.395, 457.024 271.096 C 459.211 268.797, 461 266.658, 461 266.342 C 461 265.380, 468.107 255.856, 473.568 249.500 C 476.403 246.200, 479.269 242.453, 479.938 241.172 C 480.678 239.756, 481.726 239.065, 482.617 239.406 C 483.487 239.740, 483.963 239.452, 483.790 238.695 C 483.517 237.494, 487.710 231.550, 492.740 226.010 C 493.983 224.641, 495 222.976, 495 222.310 C 495 221.644, 495.602 220.740, 496.339 220.300 C 497.075 219.860, 498.087 218.766, 498.589 217.868 C 499.439 216.346, 503.783 211.064, 510.250 203.690 C 511.762 201.965, 513 200.228, 513 199.829 C 513 199.429, 515.700 196.283, 519 192.836 C 522.300 189.390, 525 186.212, 525 185.774 C 525 183.786, 533.277 173.049, 534.340 173.657 C 534.978 174.022, 535.161 173.947, 534.746 173.490 C 533.807 172.455, 536.573 168.129, 539.797 165.590 C 541.131 164.539, 544.665 160.377, 547.651 156.340 C 550.636 152.303, 553.490 149, 553.992 149 C 554.750 149, 556.593 145.707, 558.751 140.500 C 558.978 139.950, 557.341 141.525, 555.112 144 C 552.883 146.475, 551.046 148.828, 551.030 149.228 C 551.013 149.628, 547.962 153.496, 544.250 157.823 C 531.593 172.574, 529.500 175.190, 527.690 178.521 C 526.695 180.353, 522.645 185.633, 518.690 190.253 C 514.736 194.873, 508.575 202.414, 505 207.010 C 489.564 226.856, 470.500 250.556, 469.437 251.220 C 468.803 251.616, 466.535 254.541, 464.397 257.720 C 460.139 264.051, 449.380 277.906, 447.478 279.507 C 445.894 280.841, 434 295.824, 434 296.485 C 434 296.768, 454.683 297, 479.962 297 C 535.694 297, 532.691 297.586, 546.020 284.112 C 550.706 279.376, 556.626 272.317, 559.175 268.427 C 561.724 264.537, 567.408 257.024, 571.807 251.732 C 576.206 246.440, 582.215 238.823, 585.161 234.805 C 593.662 223.212, 593.900 222.900, 606.179 207.249 C 612.603 199.061, 618.595 191.751, 619.495 191.004 C 620.395 190.257, 621.838 188.263, 622.702 186.573 C 624.407 183.237, 634.006 170.624, 643.281 159.531 C 646.487 155.698, 651.548 148.948, 654.530 144.531 C 657.511 140.114, 661.564 134.700, 663.536 132.500 C 665.508 130.300, 675.597 117.229, 685.956 103.454 C 696.315 89.679, 706.891 75.954, 709.459 72.954 C 712.027 69.954, 716.188 64.350, 718.707 60.500 C 721.226 56.650, 725.185 51.250, 727.505 48.500 C 729.825 45.750, 734.726 39.563, 738.397 34.750 L 745.071 26 700.285 26.037 L 655.500 26.073 650.344 28.568 M 113 94.806 C 113 95.249, 114.064 97.054, 115.364 98.816 C 117.508 101.722, 119.514 103.438, 129.395 110.820 C 134.766 114.833, 145.748 119.964, 152.246 121.496 C 157.544 122.745, 174.345 122.973, 262.133 122.985 C 364.932 123, 365.771 122.984, 366.290 121 C 366.899 118.671, 365.494 118.271, 364.628 120.526 C 364.107 121.884, 352.460 122.021, 259.271 121.766 C 161.540 121.499, 154.198 121.360, 150 119.699 C 141.588 116.369, 132.846 111.762, 132.315 110.379 C 132.024 109.620, 131.191 109, 130.464 109 C 129.738 109, 128.436 108.293, 127.571 107.429 C 126.707 106.564, 126 106.145, 126 106.497 C 126 106.849, 123.781 105.036, 121.070 102.469 C 118.358 99.901, 116.338 97.283, 116.581 96.650 C 117.246 94.915, 379.823 95.001, 379.568 96.736 C 379.468 97.416, 376.937 101.400, 373.943 105.589 C 367.598 114.469, 365.925 117.258, 366.560 117.894 C 367.098 118.432, 369.040 116.087, 372.684 110.500 C 374.119 108.300, 376.568 105.031, 378.128 103.237 C 379.687 101.442, 381.658 98.629, 382.507 96.987 L 384.051 94 248.526 94 C 173.987 94, 113 94.363, 113 94.806 M 166.177 136.466 C 166.761 139.115, 175.393 148.660, 181 152.856 C 189.172 158.973, 206.890 165.867, 204.500 162 C 204.160 161.450, 202.782 161, 201.437 161 C 200.093 161, 197.314 160.100, 195.261 159 C 193.209 157.900, 191.073 156.970, 190.515 156.934 C 189.957 156.897, 187.475 155.311, 185 153.410 C 182.525 151.508, 179.727 149.690, 178.783 149.368 C 177.839 149.047, 176.803 147.954, 176.481 146.940 C 176.159 145.925, 174.359 143.559, 172.481 141.681 C 170.603 139.803, 169.352 137.982, 169.700 137.633 C 170.515 136.818, 351 136.799, 351 137.614 C 351 138.933, 346.582 146, 345.757 146 C 345.276 146, 345.127 146.396, 345.426 146.881 C 345.726 147.365, 344.574 149.503, 342.866 151.631 C 341.158 153.759, 338.677 157.199, 337.352 159.276 L 334.943 163.051 272.221 162.999 C 237.725 162.970, 208.825 163.015, 208 163.098 C 207.175 163.182, 208.525 163.611, 211 164.051 C 213.475 164.491, 242.350 164.885, 275.166 164.926 L 334.832 165 337.770 161.250 C 341.883 156, 353.951 138.290, 354.642 136.491 C 355.146 135.176, 344.024 135, 260.534 135 C 177.882 135, 165.894 135.186, 166.177 136.466 M 221.250 177.754 C 218.033 178.305, 218.410 179.455, 223.635 185.041 C 230.231 192.093, 243.109 200.391, 252.500 203.642 C 260.186 206.302, 261.403 206.424, 283.500 206.744 L 306.500 207.078 309.218 202.789 C 310.713 200.430, 314.441 195.125, 317.502 191 C 325.807 179.811, 326.219 179.163, 325.629 178.209 C 325.113 177.374, 225.998 176.942, 221.250 177.754 M 222.564 181.250 C 227.806 187.544, 230.926 190.366, 235.250 192.726 C 237.863 194.151, 240 195.636, 240 196.025 C 240 197.234, 253.216 202.698, 259 203.880 C 262.025 204.498, 273.535 205.116, 284.577 205.252 L 304.654 205.500 308.274 200.910 C 310.264 198.386, 312.030 195.709, 312.197 194.962 C 312.363 194.215, 313.646 192.605, 315.046 191.384 C 316.446 190.164, 318.837 186.878, 320.358 184.083 L 323.125 179 271.907 179 L 220.690 179 222.564 181.250 M 622.390 259.427 C 622.088 260.212, 621.990 261.900, 622.171 263.177 C 622.464 265.243, 623.108 265.532, 628 265.791 L 633.500 266.082 633.199 280.541 L 632.897 295 637.449 295 L 642 295 642 280.552 L 642 266.105 647.250 265.802 L 652.500 265.500 652.810 261.750 L 653.121 258 638.029 258 C 625.878 258, 622.830 258.278, 622.390 259.427 M 656 276.500 L 656 295 660 295 L 664 295 664 284.833 C 664 279.242, 663.697 274.969, 663.327 275.339 C 662.957 275.709, 662.599 279.947, 662.531 284.756 C 662.414 292.961, 662.271 293.520, 660.203 293.820 C 657.561 294.203, 657.723 295.324, 657.599 275.750 C 657.537 265.919, 657.876 259.958, 658.500 259.886 C 659.050 259.823, 660.733 259.626, 662.239 259.447 C 665.492 259.061, 667.952 261.202, 668.125 264.571 C 668.290 267.787, 668.387 268.160, 669.654 270.500 C 670.249 271.600, 671.033 274.142, 671.395 276.150 C 672.555 282.584, 676.639 283.739, 677.495 277.876 C 678.012 274.336, 678.681 271.686, 680.582 265.658 C 682.169 260.622, 682.566 260.170, 685.875 259.633 C 687.843 259.314, 689.812 259.412, 690.252 259.852 C 690.691 260.291, 690.927 268.042, 690.776 277.076 C 690.513 292.704, 690.404 293.500, 688.513 293.500 C 686.665 293.500, 686.526 292.807, 686.513 283.514 C 686.502 274.884, 686.267 273.483, 684.786 273.197 C 683.596 272.968, 682.878 273.729, 682.441 275.684 C 682.094 277.233, 681.219 280.300, 680.497 282.500 C 679.774 284.700, 678.790 288.075, 678.310 290 C 677.565 292.988, 676.967 293.546, 674.218 293.813 C 671.291 294.098, 670.996 293.873, 670.956 291.313 C 670.932 289.766, 670.226 286.700, 669.388 284.500 C 667.428 279.355, 665.300 271.854, 664.991 269 C 664.901 268.175, 664.425 268.850, 663.932 270.500 C 663.439 272.150, 663.413 273.629, 663.875 273.786 C 664.337 273.943, 666.004 278.781, 667.581 284.536 L 670.446 295 674.564 295 L 678.682 295 680.886 287.250 C 682.098 282.988, 683.474 278.150, 683.943 276.500 C 684.557 274.338, 684.824 276.503, 684.898 284.250 L 685 295 688.500 295 L 692 295 692 276.500 L 692 258 686.571 258 L 681.142 258 679.665 263.250 C 678.853 266.137, 677.458 271.087, 676.566 274.250 C 675.674 277.413, 674.749 280, 674.511 280 C 674.272 280, 673.590 278.087, 672.996 275.750 C 672.401 273.413, 671.021 268.462, 669.928 264.750 L 667.942 258 661.971 258 L 656 258 656 276.500 M 627.750 259.810 C 624.812 260.054, 624 260.541, 624 262.060 C 624 263.684, 624.712 264, 628.378 264 C 634.843 264, 635.231 264.930, 635.060 279.992 C 634.933 291.147, 635.144 293.118, 636.523 293.647 C 639.476 294.780, 640.080 292.416, 640.162 279.410 C 640.206 272.309, 640.693 265.938, 641.244 265.250 C 641.794 264.563, 643.935 264, 646 264 C 649.859 264, 652.420 262.226, 651.193 260.405 C 650.544 259.442, 636.500 259.086, 627.750 259.810" stroke="none" fill="#b6061f" fill-rule="evenodd"/><path d="M 27.504 28.021 C 28.079 31.005, 31.912 36, 33.627 36 C 34.447 36, 34.840 36.450, 34.500 37 C 34.160 37.550, 34.359 38, 34.941 38 C 35.523 38, 36 38.499, 36 39.109 C 36 40.314, 40.082 44.955, 41.167 44.983 C 41.534 44.992, 44.588 47.587, 47.953 50.750 C 55.521 57.862, 59.487 61, 60.908 61 C 61.509 61, 62 61.420, 62 61.933 C 62 62.446, 63.013 63.180, 64.250 63.565 C 65.487 63.949, 68.750 65.734, 71.500 67.532 C 76.409 70.740, 83.733 73.668, 88.891 74.485 C 90.326 74.712, 94.650 75.926, 98.500 77.182 L 105.500 79.465 257.250 79.760 C 405.937 80.050, 409 80.094, 409 81.969 C 409 83.021, 408.544 84.164, 407.986 84.509 C 407.044 85.091, 402.708 92.879, 402.701 94 C 402.700 94.275, 401.982 95.024, 401.106 95.665 C 399.893 96.551, 399.316 96.551, 398.691 95.665 C 398.223 95.002, 398.143 95.473, 398.504 96.757 C 398.996 98.506, 397.775 100.823, 393.070 107.068 C 389.731 111.498, 387 115.545, 387 116.062 C 387 116.578, 386.124 117.876, 385.053 118.947 C 383.982 120.018, 381.612 123.055, 379.786 125.697 C 377.959 128.339, 375.348 132, 373.982 133.834 C 372.617 135.667, 371.444 137.580, 371.375 138.084 C 371.306 138.588, 371.194 139.477, 371.125 140.059 C 371.056 140.641, 370.594 140.867, 370.097 140.560 C 369.601 140.253, 368.747 141.239, 368.200 142.751 C 367.653 144.263, 365.381 147.975, 363.152 151 C 356.782 159.642, 355.513 161.464, 355.491 162 C 355.479 162.275, 354.215 163.741, 352.681 165.258 C 351.147 166.775, 350.139 168.416, 350.440 168.904 C 350.742 169.391, 350.402 170.016, 349.685 170.291 C 348.119 170.891, 339 184.148, 339 185.823 C 339 186.470, 338.645 187, 338.211 187 C 337.777 187, 335.872 189.588, 333.977 192.750 C 332.082 195.912, 330.038 198.950, 329.435 199.500 C 327.474 201.286, 320.492 211.432, 321.765 210.645 C 324.268 209.098, 322.870 211.123, 318 216.096 C 315.250 218.905, 313 221.784, 313 222.494 C 313 223.205, 312.261 224.070, 311.357 224.417 C 310.453 224.763, 309.966 225.299, 310.274 225.607 C 310.581 225.915, 309.971 227.029, 308.917 228.083 C 307.862 229.138, 307 230.900, 307 232 C 307 233.100, 306.550 234, 306 234 C 305.422 234, 305 237.178, 305 241.533 C 305 247.694, 305.463 249.926, 307.539 253.783 C 311.263 260.705, 314.260 264.540, 319.104 268.587 C 321.479 270.571, 323.889 272.765, 324.461 273.462 C 325.032 274.160, 327.525 275.804, 330 277.116 C 332.475 278.427, 334.780 279.884, 335.123 280.353 C 335.815 281.301, 340 279.392, 340 278.129 C 340 277.688, 342.137 274.607, 344.750 271.282 C 347.363 267.956, 351.075 262.642, 353 259.473 C 354.925 256.303, 356.956 253.213, 357.514 252.605 C 360.035 249.859, 365 243.141, 365 242.476 C 365 240.687, 375.616 226.045, 376.637 226.426 C 377.287 226.669, 377.596 226.134, 377.359 225.175 C 377.131 224.254, 378.208 222.150, 379.752 220.500 C 382.093 217.998, 385.568 213.039, 392.017 203 C 392.547 202.175, 394.785 198.893, 396.990 195.706 C 399.196 192.519, 401 189.693, 401 189.427 C 401 189.161, 403.250 186.043, 406 182.500 C 408.750 178.957, 411 175.673, 411 175.203 C 411 174.733, 412.012 173.403, 413.250 172.247 C 415.472 170.172, 416.136 170.145, 466.354 170.040 C 509.262 169.950, 517.435 169.708, 518.654 168.489 C 519.449 167.694, 520.639 166.697, 521.299 166.272 C 521.960 165.847, 522.950 164.780, 523.500 163.900 C 526.938 158.398, 530.322 153.750, 533.898 149.618 C 536.146 147.020, 538.510 143.915, 539.151 142.718 C 539.792 141.521, 541 139.857, 541.837 139.021 C 543.198 137.660, 537.924 137.473, 491.644 137.241 C 434.307 136.954, 436.341 137.226, 441.664 130.555 C 443.224 128.600, 444.510 126.663, 444.523 126.250 C 444.535 125.838, 447.123 122.036, 450.273 117.803 C 453.423 113.570, 456 109.655, 456 109.103 C 456 108.551, 456.599 107.740, 457.332 107.300 C 458.064 106.860, 461.852 101.550, 465.750 95.500 C 476.844 78.279, 472.295 80, 506.717 80 C 538.730 80, 544.966 79.409, 561.466 74.815 C 573.068 71.585, 579 69.197, 579 67.756 C 579 67.275, 579.450 67.160, 580 67.500 C 580.550 67.840, 581 67.641, 581 67.059 C 581 66.477, 581.337 66.071, 581.750 66.159 C 583.984 66.632, 595.743 58.669, 599.308 54.269 C 600.302 53.042, 601.448 52.142, 601.855 52.269 C 602.590 52.498, 610.430 45.597, 616.778 39.135 C 618.596 37.284, 621.197 33.571, 622.558 30.885 L 625.034 26 326.074 26 L 27.115 26 27.504 28.021 M 654.500 28.301 C 648.485 30.714, 645.409 32.945, 641 38.094 C 638.525 40.985, 635.600 44.198, 634.500 45.236 C 633.400 46.274, 632.457 47.658, 632.403 48.311 C 632.232 50.412, 630.815 53, 629.834 53 C 629.310 53, 629.220 52.438, 629.633 51.750 C 630.232 50.753, 630.074 50.751, 628.850 51.741 C 628.006 52.424, 626.948 52.649, 626.498 52.241 C 626.048 51.834, 626.029 52.105, 626.457 52.845 C 626.928 53.658, 626.398 55.322, 625.118 57.055 C 623.953 58.630, 623 60.351, 623 60.880 C 623 61.881, 614.569 72.099, 607.267 79.949 C 604.939 82.452, 603.026 84.837, 603.017 85.250 C 603.008 85.662, 602.212 86.831, 601.250 87.848 C 600.288 88.864, 598.600 90.963, 597.500 92.513 C 596.400 94.062, 595.020 95.818, 594.433 96.415 C 593.847 97.012, 592.560 98.734, 591.574 100.241 C 590.588 101.749, 589.311 102.692, 588.736 102.337 C 588.161 101.982, 587.979 102.158, 588.332 102.728 C 588.684 103.298, 588.046 104.943, 586.914 106.382 C 585.781 107.822, 585.102 109, 585.405 109 C 585.708 109, 583.490 111.586, 580.478 114.746 C 577.465 117.907, 574.988 120.944, 574.973 121.496 C 574.928 123.175, 567.980 130.106, 566.968 129.480 C 566.437 129.152, 566.301 129.622, 566.659 130.555 C 567.093 131.686, 566.117 133.295, 563.592 135.607 C 561.555 137.473, 559.437 139, 558.885 139 C 558.333 139, 558.096 139.346, 558.357 139.769 C 559.228 141.179, 555.484 147.831, 552.497 150.181 C 550.876 151.456, 549.388 152.350, 549.191 152.167 C 548.994 151.983, 548.533 152.168, 548.167 152.577 C 547.800 152.986, 548.063 152.997, 548.750 152.601 C 550.825 151.407, 550.179 152.988, 546.598 157.866 C 543.041 162.711, 535.942 169.646, 534.894 169.298 C 534.559 169.186, 534.407 170.201, 534.555 171.553 C 534.704 172.904, 534.430 173.766, 533.948 173.468 C 533.466 173.170, 531.914 174.759, 530.500 177 C 528.985 179.400, 527.469 180.790, 526.810 180.382 C 526.153 179.977, 525.969 180.141, 526.365 180.781 C 527.368 182.404, 523.938 187.827, 518.141 193.782 C 515.314 196.687, 513 199.399, 513 199.809 C 513 200.219, 511.762 201.965, 510.250 203.690 C 503.796 211.049, 499.439 216.345, 498.585 217.868 C 497.458 219.880, 495.828 221.012, 494.891 220.433 C 494.504 220.193, 494.386 220.785, 494.629 221.749 C 494.873 222.712, 494.039 224.625, 492.776 226 C 487.831 231.384, 483.514 237.482, 483.790 238.695 C 483.963 239.452, 483.487 239.740, 482.617 239.406 C 481.726 239.065, 480.678 239.756, 479.938 241.172 C 479.269 242.453, 476.403 246.200, 473.568 249.500 C 468.107 255.856, 461 265.380, 461 266.342 C 461 266.658, 459.211 268.797, 457.024 271.096 C 454.837 273.395, 452.794 276.074, 452.485 277.048 C 452.175 278.023, 450.882 279.502, 449.612 280.335 C 448.341 281.167, 445.010 284.765, 442.209 288.329 L 437.116 294.810 448.808 295.545 C 455.239 295.950, 475.611 296.044, 494.079 295.755 L 527.658 295.229 533.444 292.396 C 536.627 290.838, 539.452 288.986, 539.722 288.281 C 539.993 287.577, 540.841 287, 541.607 287 C 542.373 287, 543 286.397, 543 285.661 C 543 284.924, 544.688 282.695, 546.750 280.708 C 551.594 276.040, 551.718 275.884, 559.883 264.317 C 563.694 258.918, 568.551 252.677, 570.677 250.449 C 572.802 248.221, 576.231 243.946, 578.295 240.949 C 580.360 237.952, 584.063 233.025, 586.525 230 C 588.986 226.975, 591 224.159, 591 223.742 C 591 223.325, 593.749 219.725, 597.108 215.742 C 600.468 211.759, 603.443 207.932, 603.720 207.239 C 603.996 206.545, 605.781 204.419, 607.686 202.514 C 609.591 200.609, 610.883 198.620, 610.558 198.094 C 610.233 197.569, 610.494 196.813, 611.138 196.415 C 611.908 195.939, 612.072 196.172, 611.617 197.095 C 611.237 197.868, 611.505 197.660, 612.213 196.633 C 612.921 195.606, 615.238 192.906, 617.361 190.633 C 619.485 188.360, 621.822 185.114, 622.554 183.420 C 623.286 181.727, 624.585 179.759, 625.442 179.048 C 626.299 178.337, 627 177.135, 627 176.378 C 627 175.620, 627.414 175, 627.920 175 C 628.426 175, 630.988 172.075, 633.613 168.500 C 636.238 164.925, 638.737 162, 639.167 162 C 639.597 162, 640.610 160.762, 641.417 159.250 C 642.225 157.738, 644.260 154.925, 645.941 153 C 647.621 151.075, 648.996 149.232, 648.998 148.906 C 648.999 148.579, 650.107 147.023, 651.460 145.449 C 652.813 143.874, 653.739 142.405, 653.518 142.184 C 653.297 141.964, 655.903 138.544, 659.308 134.585 C 662.714 130.627, 666.850 125.455, 668.500 123.092 C 670.150 120.728, 672.497 117.873, 673.716 116.747 C 674.935 115.620, 675.694 114.313, 675.403 113.842 C 675.111 113.371, 675.577 112.716, 676.437 112.386 C 677.296 112.056, 678 111.185, 678 110.450 C 678 109.715, 678.897 108.485, 679.994 107.717 C 681.090 106.949, 681.690 106.023, 681.327 105.660 C 680.964 105.297, 681.177 105, 681.802 105 C 683.027 105, 691 94.708, 691 93.126 C 691 92.598, 691.337 92.017, 691.750 91.833 C 692.580 91.464, 696.159 87.180, 700 81.957 C 701.375 80.088, 704.226 76.652, 706.336 74.323 C 708.632 71.789, 709.875 69.607, 709.432 68.890 C 708.983 68.163, 709.114 67.952, 709.765 68.355 C 710.356 68.720, 711.771 67.777, 712.909 66.260 C 714.047 64.742, 715.433 62.956, 715.989 62.292 C 716.545 61.628, 717 60.770, 717 60.387 C 717 60.003, 718.125 58.214, 719.500 56.411 C 720.875 54.608, 722 52.860, 722 52.525 C 722 52.190, 722.940 50.923, 724.089 49.708 C 729.628 43.854, 741.055 28.898, 740.578 28.126 C 739.699 26.704, 658.068 26.870, 654.500 28.301 M 116.581 96.650 C 116.338 97.283, 118.358 99.901, 121.070 102.469 C 123.781 105.036, 126 106.849, 126 106.497 C 126 106.145, 126.707 106.564, 127.571 107.429 C 128.436 108.293, 129.738 109, 130.464 109 C 131.191 109, 132.024 109.620, 132.315 110.379 C 132.846 111.762, 141.588 116.369, 150 119.699 C 154.198 121.360, 161.540 121.499, 259.271 121.766 C 352.460 122.021, 364.107 121.884, 364.628 120.526 C 364.950 119.687, 365.953 118.993, 366.857 118.985 C 367.998 118.974, 368.133 118.736, 367.298 118.205 C 365.819 117.265, 366.434 116.098, 373.943 105.589 C 376.937 101.400, 379.468 97.416, 379.568 96.736 C 379.823 95.001, 117.246 94.915, 116.581 96.650 M 169.700 137.633 C 169.352 137.982, 170.603 139.803, 172.481 141.681 C 174.359 143.559, 176.159 145.925, 176.481 146.940 C 176.803 147.954, 177.839 149.047, 178.783 149.368 C 179.727 149.690, 182.525 151.508, 185 153.410 C 187.475 155.311, 189.957 156.897, 190.515 156.934 C 191.073 156.970, 193.209 157.900, 195.261 159 C 197.314 160.100, 200.093 161, 201.437 161 C 202.782 161, 204.146 161.427, 204.469 161.950 C 204.829 162.532, 230.157 162.928, 269.990 162.972 L 334.924 163.045 336.664 160.273 C 340.021 154.922, 344.183 149.995, 344.947 150.467 C 345.372 150.730, 345.597 149.832, 345.447 148.472 C 345.298 147.112, 345.504 146, 345.904 146 C 346.624 146, 351 138.799, 351 137.614 C 351 136.799, 170.515 136.818, 169.700 137.633 M 222.564 181.250 C 227.806 187.544, 230.926 190.366, 235.250 192.726 C 237.863 194.151, 240 195.636, 240 196.025 C 240 197.234, 253.216 202.698, 259 203.880 C 262.025 204.498, 273.535 205.116, 284.577 205.252 L 304.654 205.500 308.274 200.910 C 310.264 198.386, 312.030 195.709, 312.197 194.962 C 312.363 194.215, 313.646 192.605, 315.046 191.384 C 316.446 190.164, 318.837 186.878, 320.358 184.083 L 323.125 179 271.907 179 L 220.690 179 222.564 181.250 M 627.750 259.810 C 624.812 260.054, 624 260.541, 624 262.060 C 624 263.684, 624.712 264, 628.378 264 C 634.843 264, 635.231 264.930, 635.060 279.992 C 634.933 291.147, 635.144 293.118, 636.523 293.647 C 639.476 294.780, 640.080 292.416, 640.162 279.410 C 640.206 272.309, 640.693 265.938, 641.244 265.250 C 641.794 264.563, 643.935 264, 646 264 C 649.859 264, 652.420 262.226, 651.193 260.405 C 650.544 259.442, 636.500 259.086, 627.750 259.810 M 659 259.846 C 657.753 260.390, 657.516 263.118, 657.593 276 C 657.708 295.244, 657.556 294.204, 660.203 293.820 C 662.251 293.523, 662.426 292.900, 662.677 285 C 662.826 280.325, 663.127 275.375, 663.346 274 C 663.565 272.625, 663.802 270.637, 663.872 269.583 C 664.034 267.163, 664.721 267.808, 665.407 271.023 C 666.328 275.338, 667.815 280.370, 669.388 284.500 C 670.226 286.700, 670.932 289.766, 670.956 291.313 C 670.996 293.873, 671.291 294.098, 674.218 293.813 C 676.967 293.546, 677.565 292.988, 678.310 290 C 678.790 288.075, 679.774 284.700, 680.497 282.500 C 681.219 280.300, 682.094 277.233, 682.441 275.684 C 682.878 273.729, 683.596 272.968, 684.786 273.197 C 686.267 273.483, 686.502 274.884, 686.513 283.514 C 686.526 292.807, 686.665 293.500, 688.513 293.500 C 690.404 293.500, 690.513 292.704, 690.776 277.076 C 690.927 268.042, 690.691 260.291, 690.252 259.852 C 689.812 259.412, 687.843 259.314, 685.875 259.633 C 682.566 260.170, 682.169 260.622, 680.582 265.658 C 678.681 271.686, 678.012 274.336, 677.495 277.876 C 676.639 283.739, 672.555 282.584, 671.395 276.150 C 671.033 274.142, 670.249 271.600, 669.654 270.500 C 668.407 268.197, 668.300 267.799, 668.110 264.750 C 668.033 263.512, 667.580 261.885, 667.103 261.133 C 666.136 259.606, 661.309 258.840, 659 259.846" stroke="none" fill="#db042a" fill-rule="evenodd"/></svg>