<?xml version="1.0" standalone="no"?>
<!DOCTYPE svg PUBLIC "-//W3C//DTD SVG 20010904//EN"
 "http://www.w3.org/TR/2001/REC-SVG-20010904/DTD/svg10.dtd">
<svg version="1.0" xmlns="http://www.w3.org/2000/svg"
 width="13991.000000pt" height="7856.000000pt" viewBox="0 0 13991.000000 7856.000000"
 preserveAspectRatio="xMidYMid meet">

<g transform="translate(0.000000,7856.000000) scale(0.100000,-0.100000)"
fill="#000000" stroke="none">
<path d="M18063 78003 c3 -175 8 -331 12 -348 l8 -30 -31 38 c-73 90 -166 141
-290 158 -223 30 -402 -63 -500 -260 -64 -128 -77 -202 -76 -436 0 -189 2
-205 28 -290 35 -114 68 -174 134 -247 98 -106 247 -154 405 -131 111 15 187
54 256 130 l58 63 35 -83 35 -82 141 -3 142 -3 0 921 0 920 -181 0 -181 0 5
-317z m-116 -509 c91 -56 133 -169 133 -359 0 -167 -35 -284 -100 -339 -66
-55 -203 -71 -278 -32 -118 61 -179 242 -153 455 19 157 64 240 153 286 47 23
62 26 125 22 58 -3 82 -10 120 -33z"/>
<path d="M18889 78311 c-73 -23 -109 -77 -109 -166 0 -121 62 -175 197 -175
139 0 193 49 193 174 0 88 -22 129 -83 156 -44 20 -147 26 -198 11z"/>
<path d="M10200 78229 c-433 -50 -690 -383 -690 -894 0 -469 184 -762 535
-857 66 -17 109 -21 245 -22 176 0 276 14 407 57 l68 23 3 158 c2 148 1 158
-15 151 -117 -47 -306 -85 -422 -85 -223 0 -354 104 -417 331 -26 92 -27 386
-1 479 60 220 188 343 370 357 99 8 176 -8 315 -64 62 -25 115 -44 117 -42 5
6 115 282 115 290 0 12 -140 66 -225 88 -83 21 -235 42 -295 40 -19 -1 -69 -5
-110 -10z"/>
<path d="M13366 77820 c-108 -19 -256 -122 -301 -210 -9 -16 -20 -30 -24 -30
-5 0 -19 42 -31 93 -11 50 -23 100 -26 110 -5 15 -21 17 -145 17 l-139 0 0
-660 0 -660 185 0 185 0 0 375 c0 353 1 377 21 429 51 137 210 220 387 202 34
-4 62 -5 62 -4 5 32 28 333 27 335 -8 8 -161 10 -201 3z"/>
<path d="M15624 77820 c-140 -20 -277 -88 -354 -179 -55 -63 -115 -184 -137
-278 -25 -108 -25 -361 0 -453 61 -226 204 -371 424 -432 65 -18 106 -22 248
-22 184 0 272 13 393 61 l62 25 0 143 0 144 -72 -30 c-121 -50 -229 -72 -358
-73 -100 -1 -122 2 -166 22 -97 44 -168 143 -181 252 l-6 50 427 0 426 0 0
138 c0 162 -16 247 -65 350 -63 133 -189 233 -337 267 -82 19 -227 26 -304 15z
m214 -271 c73 -28 138 -119 149 -209 l6 -50 -253 0 -253 0 5 45 c8 63 52 148
95 181 65 49 171 63 251 33z"/>
<path d="M11102 77293 c3 -498 4 -509 26 -568 58 -154 160 -238 322 -264 203
-33 381 17 490 136 l50 55 10 -27 c5 -14 10 -29 10 -32 0 -3 7 -29 16 -59 l15
-54 140 0 139 0 0 660 0 660 -179 0 -179 0 -5 -397 c-3 -324 -7 -408 -20 -451
-35 -119 -98 -183 -199 -203 -119 -24 -195 9 -243 106 l-30 60 -3 443 -3 442
-180 0 -180 0 3 -507z"/>
<path d="M13625 77781 c3 -11 115 -307 249 -658 l243 -638 190 -3 190 -2 233
612 c128 337 241 634 251 661 l19 47 -192 -2 -192 -3 -127 -375 c-121 -356
-158 -481 -175 -595 l-7 -50 -12 80 c-17 114 -39 186 -176 588 l-121 357 -190
0 c-183 0 -189 -1 -183 -19z"/>
<path d="M18800 77140 l0 -660 180 0 180 0 0 660 0 660 -180 0 -180 0 0 -660z"/>
<path d="M9535 76043 c-543 -45 -983 -207 -1295 -476 -230 -197 -404 -514
-440 -799 -6 -54 -10 -814 -10 -2224 l0 -2142 -50 -36 c-101 -72 -153 -179
-154 -316 -1 -74 3 -93 28 -147 35 -77 113 -153 193 -191 79 -36 218 -38 305
-4 80 32 150 99 190 180 31 62 33 73 33 172 0 88 -4 113 -23 154 -31 68 -85
131 -138 162 l-44 26 0 2137 c0 1450 3 2156 11 2197 86 485 534 837 1194 938
55 8 116 18 135 22 19 4 2364 10 5210 13 l5175 6 40 21 c111 58 112 245 1 298
-31 15 -442 16 -5178 14 -2828 -1 -5161 -3 -5183 -5z"/>
<path d="M10620 74425 l0 -865 540 0 540 0 0 150 0 150 -355 0 -355 0 0 715 0
715 -185 0 -185 0 0 -865z"/>
<path d="M12378 74900 c-194 -35 -333 -137 -417 -306 -56 -114 -66 -169 -66
-379 1 -179 2 -195 28 -271 67 -201 207 -329 422 -385 64 -16 110 -21 230 -21
83 0 179 5 215 11 65 12 203 54 228 69 9 7 12 43 10 149 l-3 140 -71 -28
c-197 -79 -423 -96 -533 -39 -83 42 -147 139 -166 253 l-6 37 432 0 432 0 -6
158 c-6 171 -20 241 -67 338 -59 121 -156 203 -296 250 -64 21 -102 27 -199
30 -66 1 -141 -1 -167 -6z m224 -266 c87 -29 153 -118 160 -214 l3 -45 -250 0
-250 0 3 40 c14 167 175 274 334 219z"/>
<path d="M13665 74894 c-152 -28 -261 -98 -312 -202 -25 -52 -28 -67 -28 -162
1 -92 4 -112 27 -161 49 -107 123 -160 361 -263 138 -59 219 -106 242 -139 41
-58 -1 -134 -86 -157 -93 -26 -318 10 -476 74 -35 15 -65 26 -68 26 -3 0 -5
-67 -5 -149 l0 -150 54 -20 c97 -36 221 -53 381 -53 221 0 362 37 458 122 139
122 157 396 36 534 -53 60 -139 109 -321 186 -159 66 -200 90 -232 132 -16 22
-18 33 -10 54 33 93 209 98 429 11 49 -20 90 -35 92 -33 1 1 27 61 57 132 l55
129 -42 18 c-177 77 -420 105 -612 71z"/>
<path d="M15200 74892 c-100 -26 -171 -73 -232 -152 -29 -39 -26 -44 -58 68
l-21 72 -139 0 -140 0 0 -660 0 -660 179 0 179 0 5 393 c4 419 9 459 58 547
33 60 84 98 150 112 139 29 228 -43 249 -203 5 -41 10 -248 10 -461 l0 -388
180 0 180 0 0 383 c0 421 7 484 58 566 60 98 198 139 292 89 35 -19 52 -37 75
-83 l30 -59 3 -448 3 -448 179 0 180 0 0 493 c0 536 -3 570 -57 669 -66 120
-202 187 -384 188 -177 0 -293 -52 -399 -180 l-21 -25 -16 25 c-31 46 -99 106
-145 129 -104 50 -278 64 -398 33z"/>
<path d="M17418 74900 c-126 -22 -225 -69 -313 -151 -82 -77 -146 -200 -171
-328 -21 -105 -15 -344 11 -436 87 -314 351 -481 703 -445 230 24 385 126 477
315 62 128 79 220 72 404 -5 158 -22 231 -77 342 -76 150 -221 256 -403 293
-80 17 -219 19 -299 6z m265 -309 c97 -47 138 -143 145 -336 9 -293 -75 -427
-269 -427 -120 0 -194 53 -240 169 -31 80 -39 307 -15 403 29 114 78 174 165
207 51 19 158 11 214 -16z"/>
<path d="M21850 70604 c-19 -2 -78 -9 -130 -15 -52 -5 -160 -23 -240 -39 -80
-16 -671 -126 -1315 -245 -6835 -1261 -11203 -2082 -11580 -2176 -930 -233
-1786 -825 -2418 -1671 -212 -284 -422 -639 -562 -948 -614 -1353 -614 -2726
0 -4335 149 -390 280 -680 612 -1360 277 -565 380 -785 828 -1755 1504 -3261
4109 -9029 4582 -10145 47 -110 107 -253 135 -318 58 -137 61 -111 -35 -300
-73 -146 -180 -306 -305 -460 -121 -148 -145 -189 -139 -240 10 -76 61 -121
138 -121 66 0 83 14 212 175 121 149 221 294 293 423 26 47 50 86 54 86 3 0
19 -24 37 -52 96 -161 321 -419 472 -542 199 -162 399 -263 637 -324 66 -17
299 -85 519 -152 491 -149 572 -184 686 -299 41 -42 85 -96 97 -121 14 -32 54
-239 132 -695 472 -2758 1181 -6787 1711 -9720 948 -5249 1700 -9126 2145
-11065 772 -3360 1835 -5865 3357 -7910 453 -608 863 -1085 1411 -1639 1000
-1009 2045 -1833 3457 -2724 2026 -1278 3270 -1871 4664 -2227 856 -218 1822
-357 2715 -389 1196 -44 6713 -37 7860 9 2421 98 5098 706 8135 1847 315 119
626 242 1735 688 140 57 265 106 278 110 l22 6 0 -549 c0 -602 3 -644 60 -814
139 -413 510 -722 1074 -893 66 -20 176 -47 245 -61 l126 -25 2890 46 c1590
25 2944 45 3009 45 l120 0 -30 -31 c-115 -122 -428 -394 -621 -538 -116 -87
-135 -111 -135 -176 0 -82 52 -135 133 -135 53 0 74 13 231 132 240 183 565
479 756 690 l61 68 8378 130 c20172 313 35517 556 35726 565 l157 7 0 -1261 0
-1261 345 0 345 0 0 1280 0 1280 43 0 c23 0 245 11 492 25 248 14 617 34 820
45 3312 181 6899 475 9475 775 1287 151 2662 347 3315 475 83 16 269 52 415
80 1977 380 3825 1140 5480 2254 1011 681 1852 1433 2602 2326 826 985 1256
1758 1437 2580 66 301 69 336 78 945 12 844 10 1771 -5 1955 -81 977 -539
1910 -1303 2655 -195 190 -311 283 -564 448 -758 494 -1697 797 -2717 877 -80
6 -2067 13 -5330 20 -2862 5 -7599 14 -10528 20 -16187 31 -31279 66 -32132
75 l-488 5 -36 -25 c-129 -87 -779 -373 -1029 -452 l-30 -10 -3 -137 -3 -138
-422 8 c-232 3 -423 7 -424 9 -2 1 0 93 4 204 l6 203 266 -3 266 -2 35 35 c29
28 61 44 180 83 141 46 476 176 534 207 25 13 -72 15 -950 21 -973 7 -1217 14
-1514 43 -673 64 -1232 225 -1580 454 -107 71 -213 168 -240 220 -41 80 -542
532 -970 875 -994 797 -1907 1299 -2630 1445 -246 50 -495 70 -870 70 -708 0
-1386 -72 -2750 -295 -863 -141 -1109 -171 -1325 -162 -234 9 -439 60 -640
157 -124 61 -198 112 -312 216 -48 44 -1002 918 -2120 1942 -1118 1024 -2035
1862 -2039 1862 -8 0 2 -299 13 -415 l6 -69 -147 134 -148 135 5 232 5 233
-407 373 c-223 205 -982 901 -1686 1547 -7544 6921 -13020 11967 -14750 13595
-187 176 -389 363 -450 415 -1500 1289 -3474 3449 -5710 6245 -716 895 -902
1142 -1537 2045 -2411 3425 -5554 7878 -5581 7908 -11 12 -27 22 -34 22 -28 0
-73 31 -90 63 -9 17 -17 52 -18 77 -1 43 -30 86 -575 855 -1816 2564 -2512
3537 -2652 3702 -285 337 -707 560 -1208 638 -100 16 -515 29 -600 19z m351
-1104 c143 -15 257 -43 354 -89 200 -94 214 -110 746 -851 453 -630 1722
-2417 2994 -4217 l122 -172 23 56 c13 31 36 71 52 89 66 75 178 61 224 -28 26
-50 17 -89 -51 -227 -36 -73 -65 -136 -65 -140 0 -5 449 -645 998 -1422 1070
-1516 2538 -3598 3883 -5509 490 -696 921 -1296 1044 -1455 643 -831 1457
-1839 2149 -2660 1756 -2084 3207 -3611 4447 -4681 70 -60 308 -280 530 -489
1739 -1635 7109 -6584 14839 -13675 3503 -3214 3207 -2944 3252 -2952 61 -11
85 -32 121 -105 31 -64 76 -106 1502 -1413 809 -740 1502 -1375 1540 -1409
159 -143 479 -327 719 -416 351 -129 763 -189 1139 -165 274 17 503 49 1522
214 1098 178 1664 236 2296 236 357 0 521 -11 677 -46 689 -154 1696 -790
2733 -1726 92 -83 187 -178 213 -213 58 -79 188 -212 286 -291 380 -307 902
-533 1550 -668 l160 -34 17 29 c26 44 256 155 443 214 30 10 59 21 63 25 4 3
-68 17 -160 29 -92 12 -177 25 -189 27 l-21 5 28 167 c16 92 31 182 34 201 l6
34 47 -6 c252 -33 378 -47 497 -56 77 -6 168 -14 203 -17 l63 -6 -7 -129 c-4
-71 -5 -129 -3 -129 2 0 62 11 134 25 197 38 256 31 290 -35 20 -39 19 -115
-2 -151 -24 -41 -59 -54 -223 -83 -246 -45 -456 -95 -619 -148 -129 -42 -152
-52 -131 -59 44 -14 397 -39 695 -49 625 -21 11005 -48 37655 -100 2753 -5
6837 -12 9075 -15 2489 -4 4140 -10 4250 -16 872 -48 1738 -337 2385 -795 154
-110 412 -361 556 -544 417 -527 634 -1054 685 -1660 15 -185 15 -1063 -1
-1790 -11 -538 -12 -547 -40 -690 -116 -582 -415 -1153 -978 -1868 -963 -1225
-2126 -2201 -3599 -3023 -237 -132 -778 -404 -1028 -516 -870 -392 -1811 -703
-2710 -897 -430 -92 -1178 -225 -1780 -315 -436 -65 -214 -58 -2310 -77 -757
-6 -7692 -92 -8480 -104 -368 -6 -913 -15 -1210 -20 -297 -5 -624 -9 -727 -9
l-188 -1 0 1235 0 1235 -350 0 -350 0 2 -1239 3 -1239 -265 -6 c-146 -3 -3586
-49 -7645 -102 l-7380 -96 -6890 -578 c-3789 -318 -7104 -594 -7365 -614
l-475 -36 -6215 -95 c-3418 -52 -6395 -100 -6615 -106 -220 -6 -457 -9 -528
-7 l-127 3 40 83 c123 254 242 614 310 938 33 159 29 209 -18 256 -43 44 -121
51 -172 16 -47 -32 -56 -55 -90 -217 -64 -313 -168 -622 -313 -933 -25 -53
-48 -110 -52 -127 l-7 -31 -76 0 c-42 0 -1515 -23 -3272 -51 -1757 -27 -3260
-48 -3340 -46 -132 3 -154 6 -240 36 -127 43 -230 95 -285 143 l-45 40 0 597
c0 348 -4 632 -10 681 -22 182 -89 361 -184 494 -53 74 -149 166 -229 219
-175 117 -419 172 -654 149 -226 -23 -375 -67 -788 -234 -811 -329 -1372 -551
-1723 -683 l-392 -148 -48 44 c-230 210 -464 444 -693 696 -68 75 -113 93
-180 72 -59 -19 -89 -64 -89 -134 0 -43 5 -59 31 -91 63 -80 373 -404 519
-543 83 -79 148 -147 143 -151 -11 -11 -526 -188 -853 -293 -2334 -754 -4398
-1153 -6300 -1217 -1397 -47 -6942 -47 -7800 1 -566 31 -1205 112 -1765 224
-1497 300 -2676 825 -4715 2098 -600 375 -988 634 -1440 963 -1090 793 -2033
1665 -2834 2624 -1655 1979 -2787 4444 -3590 7816 -650 2733 -2034 10137
-3761 20129 l-87 500 22 70 c12 39 51 147 86 242 35 94 64 184 64 200 0 68
-67 133 -138 133 -39 0 -66 -13 -103 -47 l-26 -24 -6 23 c-3 13 -24 132 -46
265 -23 137 -54 285 -72 340 -106 333 -328 618 -644 826 -109 72 -290 163
-405 205 -119 43 -999 311 -1061 322 -151 29 -368 248 -516 520 -23 41 -67
136 -98 210 -32 74 -123 288 -203 474 l-145 339 11 71 c7 39 58 327 114 641
95 538 100 572 87 609 -34 99 -186 118 -242 32 -14 -20 -167 -828 -167 -878 0
-7 -3 -8 -9 -3 -5 6 -128 278 -274 605 -798 1792 -2580 5724 -3669 8095 l-184
400 -134 7 c-74 3 -163 9 -196 13 l-62 6 -65 142 c-36 78 -64 143 -63 144 1 2
67 -4 147 -12 183 -19 243 -19 236 -2 -51 124 -479 1026 -779 1642 -113 231
-238 492 -278 580 -473 1047 -666 1811 -647 2565 8 309 34 513 103 792 271
1106 1011 2073 1939 2535 252 126 482 197 906 282 1002 199 4492 853 9259
1735 3061 566 3212 594 3287 611 67 14 218 31 309 34 23 0 88 -4 145 -9z
m35269 -37367 c0 -79 -55 -143 -121 -143 l-40 0 73 80 c40 44 76 80 81 80 4 0
7 -8 7 -17z m1092 -804 l78 -74 -134 -145 c-74 -79 -139 -146 -145 -148 -6 -2
-78 58 -160 134 l-149 137 140 153 141 154 76 -69 c42 -38 111 -102 153 -142z
m1004 -918 c165 -150 300 -277 302 -281 1 -4 -59 -75 -135 -158 l-137 -150
-27 22 c-87 73 -589 540 -589 548 0 15 264 298 276 296 7 -2 146 -126 310
-277z m1238 -1135 l305 -279 -58 -66 c-33 -36 -97 -105 -143 -154 l-83 -87
-305 281 c-168 154 -305 284 -305 288 0 13 267 302 276 299 5 -2 146 -129 313
-282z m6346 -516 c52 -5 146 -20 208 -31 94 -18 112 -24 108 -38 -3 -9 -24
-99 -48 -199 l-43 -184 -35 6 c-19 3 -72 13 -118 21 -104 18 -338 35 -504 35
l-128 0 0 207 0 206 233 -6 c127 -4 275 -11 327 -17z m-1402 -177 c7 -87 15
-179 19 -204 l5 -46 -133 -12 c-74 -7 -257 -28 -408 -47 -151 -18 -277 -31
-280 -29 -5 5 -62 398 -58 401 8 7 734 91 803 93 l40 1 12 -157z m-3900 -117
c140 -58 346 -112 490 -128 l109 -12 -3 -40 c-8 -82 -24 -323 -24 -345 0 -23
-1 -24 -77 -17 -174 15 -373 59 -554 122 -129 45 -252 101 -247 113 26 70 174
361 182 357 6 -2 62 -25 124 -50z m2217 22 c20 -109 61 -378 57 -378 -2 0
-142 -22 -310 -50 -424 -68 -500 -80 -510 -80 -9 0 -69 397 -61 404 2 2 83 16
179 31 96 14 276 44 400 65 124 21 228 38 232 39 4 0 10 -14 13 -31z m4308
-134 c162 -82 647 -369 661 -392 6 -10 -210 -342 -223 -342 -5 0 -65 35 -133
79 -138 88 -350 211 -466 271 -42 21 -83 43 -90 48 -11 7 7 49 77 191 50 99
93 181 96 181 3 0 38 -16 78 -36z m1507 -1008 c80 -64 396 -329 469 -393 l43
-38 -132 -150 c-73 -83 -137 -151 -141 -153 -5 -2 -75 54 -156 124 -82 69
-223 187 -315 262 -93 74 -168 136 -168 138 0 4 144 190 218 282 l34 43 37
-28 c20 -15 70 -54 111 -87z m1226 -1108 c118 -79 291 -170 435 -226 71 -28
103 -46 101 -55 -3 -19 -122 -348 -130 -364 -9 -16 -206 63 -388 155 -138 70
-319 183 -381 239 l-32 28 131 158 c117 143 132 157 148 145 10 -7 62 -43 116
-80z m5484 -773 l0 -205 -420 0 -420 0 0 205 0 205 420 0 420 0 0 -205z m1680
-10 l0 -205 -420 0 -420 0 0 205 0 205 420 0 420 0 0 -205z m1680 0 l0 -205
-420 0 -420 0 0 205 0 205 420 0 420 0 0 -205z m1680 -10 l0 -205 -420 0 -420
0 0 205 0 205 420 0 420 0 0 -205z m1680 0 l0 -205 -420 0 -420 0 0 205 0 205
420 0 420 0 0 -205z m1670 -10 l0 -205 -415 0 -415 0 0 205 0 205 415 0 415 0
0 -205z m1680 0 l0 -205 -420 0 -420 0 0 205 0 205 420 0 420 0 0 -205z m1508
198 l172 -6 0 -205 0 -205 -182 6 c-99 4 -288 7 -420 7 l-238 0 0 205 0 205
248 0 c136 0 325 -3 420 -7z m1848 -49 c-3 -26 -6 -118 -6 -205 l0 -159 -415
0 -415 0 0 205 0 205 421 0 422 0 -7 -46z m1674 -159 l0 -205 -420 0 -420 0 0
205 0 205 420 0 420 0 0 -205z m1291 195 l389 0 0 -205 0 -205 -417 2 -418 3
-3 209 -2 209 31 -7 c17 -3 206 -6 420 -6z m2059 -205 l0 -205 -415 0 -415 0
0 205 0 205 415 0 415 0 0 -205z m1680 0 l0 -205 -420 0 -420 0 0 205 0 205
420 0 420 0 0 -205z m1680 -10 l0 -205 -425 0 -425 0 0 108 c0 59 3 151 7 205
l6 97 419 0 418 0 0 -205z m1670 0 l0 -205 -420 0 -420 0 0 205 0 205 420 0
420 0 0 -205z m1680 0 l0 -205 -420 0 -420 0 0 205 0 205 420 0 420 0 0 -205z
m1676 103 c-3 -50 -6 -142 -6 -205 l0 -113 -415 0 -415 0 0 205 0 205 421 0
422 0 -7 -92z m1674 -113 l0 -205 -420 0 -420 0 0 205 0 205 420 0 420 0 0
-205z m1680 0 l0 -205 -420 0 -420 0 0 205 0 205 420 0 420 0 0 -205z m1670
-10 l0 -205 -415 0 -415 0 0 205 0 205 415 0 415 0 0 -205z m1680 0 l0 -205
-420 0 -420 0 0 205 0 205 420 0 420 0 0 -205z m1680 0 l0 -205 -420 0 -420 0
0 205 0 205 420 0 420 0 0 -205z m1680 -10 l0 -205 -420 0 -420 0 0 205 0 205
420 0 420 0 0 -205z m1670 0 l0 -205 -420 0 -420 0 0 205 0 205 420 0 420 0 0
-205z m1680 0 l0 -205 -420 0 -420 0 0 205 0 205 420 0 420 0 0 -205z m1472
195 l208 0 0 -205 0 -205 -187 0 c-104 0 -293 3 -420 7 l-233 6 0 205 0 205
212 -6 c116 -4 305 -7 420 -7z m1888 -205 l0 -205 -420 0 -420 0 0 205 0 205
420 0 420 0 0 -205z m1680 0 l0 -205 -420 0 -420 0 0 205 0 205 420 0 420 0 0
-205z m1690 -2 l0 -208 -425 3 -425 2 0 205 0 205 425 0 425 0 0 -207z m1185
161 c161 -20 517 -82 526 -92 6 -7 -73 -387 -82 -397 -3 -2 -21 0 -40 5 -110
30 -600 100 -703 100 -25 0 -47 3 -50 8 -3 5 20 404 24 407 2 3 226 -18 325
-31z m1525 -404 c233 -100 620 -301 620 -322 0 -12 -203 -347 -211 -348 -3 0
-57 30 -120 66 -139 80 -325 171 -479 235 -63 26 -115 51 -115 56 0 25 142
373 152 373 7 0 76 -27 153 -60z m1422 -973 c149 -166 316 -380 413 -532 l35
-53 -123 -78 c-67 -43 -145 -92 -174 -111 l-52 -33 -75 109 c-95 137 -214 287
-328 413 -48 53 -88 100 -88 105 -1 9 281 282 292 283 4 0 49 -47 100 -103z
m869 -1479 c45 -146 84 -305 108 -438 23 -129 46 -318 40 -324 -2 -2 -69 -9
-149 -15 -80 -6 -170 -14 -201 -17 l-56 -6 -12 103 c-16 146 -64 374 -107 514
-20 66 -38 127 -41 136 -4 12 34 29 179 81 101 37 188 67 195 67 7 1 26 -43
44 -101z m169 -1820 c0 -112 -3 -301 -7 -421 l-6 -218 -198 3 c-108 2 -200 6
-203 9 -4 3 -3 191 1 417 l6 412 204 0 203 0 0 -202z m-221 -1475 c112 -18
175 -32 178 -41 19 -47 -129 -616 -208 -798 l-18 -43 -188 76 c-103 41 -189
77 -191 78 -1 1 14 44 33 96 50 129 109 338 140 494 14 72 28 141 31 153 4 19
10 23 27 19 12 -3 100 -18 196 -34z m-586 -1563 c75 -47 137 -89 137 -94 0
-29 -472 -696 -493 -696 -6 0 -160 117 -284 216 l-41 34 124 166 c68 91 174
241 236 334 l112 169 36 -22 c20 -12 98 -60 173 -107z m-1055 -1302 c81 -73
147 -137 147 -144 0 -16 -239 -275 -429 -463 l-155 -155 -138 144 c-76 78
-140 147 -142 152 -2 5 86 100 196 211 109 111 236 244 282 295 46 50 86 92
88 92 3 0 71 -59 151 -132z m-1217 -1145 c63 -75 122 -147 132 -159 17 -22 17
-23 -150 -156 -147 -118 -467 -362 -500 -381 -13 -8 -258 323 -246 333 5 4 98
75 208 158 110 83 252 193 315 246 63 52 118 95 121 95 3 1 57 -61 120 -136z
m-1341 -999 c58 -91 106 -169 108 -174 5 -14 -723 -451 -732 -438 -16 23 -197
360 -195 362 2 1 74 42 159 91 171 97 509 301 525 316 5 5 14 9 20 9 5 0 57
-75 115 -166z m-1464 -811 c46 -97 83 -182 80 -188 -7 -18 -761 -355 -770
-344 -5 6 -145 352 -148 366 -2 8 78 48 202 101 244 106 407 179 475 215 28
14 56 26 63 27 7 0 51 -80 98 -177z m-1549 -633 c35 -101 62 -189 60 -195 -7
-18 -791 -264 -803 -252 -4 4 -113 392 -111 393 1 0 61 17 132 38 173 50 572
176 610 192 16 7 34 12 39 11 5 -2 38 -86 73 -187z m-1610 -451 c22 -107 38
-197 35 -201 -16 -16 -812 -163 -822 -151 -12 14 -72 385 -63 393 4 3 136 30
293 59 157 29 332 62 390 75 58 13 110 22 115 21 6 -1 29 -89 52 -196z m-1653
-271 c15 -101 30 -193 33 -204 4 -20 -1 -23 -59 -32 -207 -36 -763 -111 -768
-105 -7 8 -62 395 -57 398 1 1 182 28 402 60 220 31 402 59 404 61 14 12 20
-13 45 -178z m-1681 -65 c10 -36 50 -383 45 -388 -9 -9 -818 -108 -825 -101
-4 3 -52 399 -49 403 0 0 183 23 406 51 223 27 408 50 412 51 4 0 9 -7 11 -16z
m-4003 -54 c-1533 -145 -4652 -365 -6860 -484 -256 -13 -491 -26 -522 -29
l-58 -4 0 224 0 224 93 0 c50 0 799 9 1662 21 3687 49 5133 66 5495 66 l385 0
-195 -18z m-8132 -315 l2 -231 -62 -6 c-121 -12 -573 -20 -11343 -187 -5973
-93 -10970 -171 -11105 -173 -164 -3 -227 -2 -190 4 30 5 1718 148 3750 319
l3695 309 7500 99 c4125 55 7556 99 7625 98 l125 -1 3 -231z m10496 -4 c10
-96 20 -183 22 -192 4 -13 -3 -18 -28 -23 -37 -6 -802 -84 -805 -82 -3 4 -42
402 -38 405 1 2 178 21 391 43 214 21 398 40 409 42 11 1 23 -2 26 -8 4 -5 14
-89 23 -185z m-1684 18 c1 -7 9 -98 19 -203 11 -104 18 -191 17 -192 -4 -5
-827 -76 -830 -72 -5 5 -36 330 -36 376 l0 29 388 36 c464 42 442 41 442 26z
m-1669 -140 c1 -2 9 -92 18 -202 11 -132 13 -199 6 -201 -20 -6 -818 -66 -821
-62 -6 5 -37 398 -32 402 10 10 825 71 829 63z m-1651 -324 c7 -113 9 -199 4
-203 -11 -10 -812 -66 -821 -57 -5 5 -31 309 -33 382 0 20 10 21 348 46 191
14 379 26 418 27 l70 1 14 -196z m-1671 -115 c6 -111 10 -203 8 -206 -4 -4
-737 -53 -798 -53 l-35 0 -13 201 c-6 111 -10 203 -9 204 3 2 725 51 799 54
l35 1 13 -201z m-1673 -107 c7 -112 8 -199 3 -203 -10 -6 -819 -52 -824 -47
-5 5 -28 398 -24 403 6 5 823 52 829 47 3 -2 10 -92 16 -200z"/>
<path d="M21119 67954 c-1157 -979 -1092 -924 -1088 -928 2 -2 264 -21 582
-42 l579 -39 376 -447 c207 -246 379 -445 381 -442 5 5 200 2757 196 2762 -1
1 -463 -388 -1026 -864z"/>
<path d="M19595 66764 c-550 -57 -1038 -280 -1425 -651 -672 -644 -905 -1641
-588 -2518 395 -1094 1520 -1733 2673 -1520 525 98 1004 374 1353 780 289 337
478 751 549 1205 25 161 25 529 0 689 -55 348 -181 680 -366 956 -109 164
-188 260 -327 396 -351 342 -776 556 -1269 640 -89 15 -176 21 -340 24 -121 2
-238 1 -260 -1z m490 -165 c378 -47 764 -207 1080 -447 89 -68 297 -275 375
-372 193 -243 342 -539 414 -829 89 -350 92 -709 11 -1056 -131 -559 -498
-1068 -988 -1372 -881 -546 -2006 -411 -2738 327 -174 176 -319 382 -428 610
-314 658 -277 1440 97 2068 96 161 194 285 341 433 395 396 852 603 1441 653
65 5 301 -4 395 -15z"/>
<path d="M18890 65413 c-14 -2 -47 -11 -75 -20 -254 -80 -391 -288 -441 -667
-22 -170 -14 -569 14 -706 72 -343 219 -529 472 -596 94 -24 280 -22 383 5
109 29 171 64 252 146 109 109 174 263 212 500 20 126 23 511 4 634 -60 401
-224 632 -493 696 -59 14 -264 19 -328 8z m214 -335 c56 -17 119 -84 146 -156
42 -110 51 -187 57 -452 7 -356 -21 -538 -101 -643 -78 -102 -218 -116 -309
-29 -84 79 -116 220 -124 533 -10 413 33 632 142 714 57 44 116 54 189 33z"/>
<path d="M19900 65215 l0 -175 480 0 c264 0 480 -2 480 -5 0 -3 -162 -360
-361 -793 -198 -433 -363 -793 -366 -799 -4 -10 43 -13 214 -13 l220 0 371
849 372 850 0 130 0 131 -705 0 -705 0 0 -175z"/>
<path d="M11355 64910 c-795 -70 -1479 -526 -1848 -1230 -111 -212 -194 -467
-234 -720 -25 -161 -25 -519 0 -680 26 -162 78 -358 133 -496 450 -1144 1698
-1728 2869 -1343 769 253 1341 891 1519 1694 62 280 62 689 0 970 -192 869
-855 1547 -1709 1748 -227 54 -514 76 -730 57z m495 -166 c220 -32 414 -92
625 -193 665 -322 1116 -954 1205 -1691 13 -109 13 -371 0 -480 -49 -405 -207
-782 -460 -1100 -85 -107 -269 -286 -378 -369 -288 -218 -628 -361 -992 -417
-210 -32 -504 -23 -730 22 -795 161 -1445 778 -1651 1568 -42 165 -59 283 -66
466 -36 1043 698 1967 1729 2175 232 46 482 53 718 19z"/>
<path d="M10694 63600 c-262 -36 -427 -191 -503 -470 -65 -237 -72 -666 -16
-923 85 -385 313 -574 670 -554 275 15 455 152 543 413 48 140 63 249 69 484
6 241 -3 366 -38 510 -41 173 -124 329 -217 410 -56 48 -167 104 -237 118 -77
16 -203 21 -271 12z m182 -336 c80 -38 137 -141 166 -299 21 -114 18 -576 -5
-696 -36 -191 -115 -289 -233 -289 -128 0 -201 80 -239 261 -36 167 -38 576
-5 749 21 112 60 201 107 242 52 47 147 61 209 32z"/>
<path d="M12412 63590 c-502 -70 -751 -425 -755 -1075 -1 -192 10 -279 54
-410 74 -221 229 -373 439 -431 90 -25 309 -25 400 -1 218 58 364 205 421 424
26 101 29 305 5 407 -33 140 -122 273 -221 331 -150 89 -399 99 -546 24 -50
-25 -122 -90 -150 -135 -42 -68 -45 -32 -13 141 20 106 62 193 125 260 90 96
187 137 360 154 98 10 230 4 302 -14 l27 -7 0 160 c0 113 -4 163 -12 168 -18
11 -363 14 -436 4z m21 -1001 c47 -13 112 -70 137 -120 30 -57 42 -156 30
-239 -16 -113 -64 -190 -145 -233 -56 -30 -164 -30 -220 0 -147 78 -225 304
-154 444 26 53 113 127 168 143 56 18 132 20 184 5z"/>
<path d="M7118 64685 c154 -185 1797 -2064 1799 -2058 2 8 63 1107 63 1142 0
10 188 180 444 401 245 212 443 386 442 387 -1 2 -601 36 -1332 77 -731 41
-1355 77 -1386 80 l-58 4 28 -33z"/>
<path d="M15755 55744 c-16 -2 -79 -9 -140 -15 -223 -22 -631 -106 -708 -146
-64 -32 -87 -133 -47 -198 11 -18 28 -36 38 -40 62 -25 77 -25 207 9 324 86
643 126 1001 126 150 0 163 1 189 22 52 41 68 113 38 175 -33 69 -49 73 -313
71 -129 0 -248 -3 -265 -4z"/>
<path d="M17358 55494 c-15 -8 -35 -28 -43 -44 -20 -39 -19 -115 2 -151 19
-32 28 -37 189 -102 283 -115 564 -280 852 -499 95 -72 107 -78 150 -78 115 0
182 118 120 210 -66 97 -552 414 -838 548 -269 125 -368 151 -432 116z"/>
<path d="M13804 54984 c-87 -58 -231 -217 -316 -349 -100 -154 -213 -413 -297
-680 -23 -72 -41 -144 -41 -160 0 -68 66 -135 133 -135 35 0 87 22 109 46 9
11 43 100 76 199 139 416 245 608 447 805 93 90 105 110 105 168 0 109 -122
169 -216 106z"/>
<path d="M16045 54083 c-680 -83 -1245 -429 -1615 -988 -240 -364 -359 -768
-360 -1215 0 -279 31 -477 115 -728 258 -774 924 -1338 1745 -1477 131 -22
429 -31 571 -16 807 83 1493 584 1812 1322 83 191 135 381 168 609 19 128 16
451 -5 595 -121 833 -687 1520 -1473 1789 -252 86 -447 116 -733 114 -107 0
-208 -3 -225 -5z m426 -143 c717 -73 1337 -499 1659 -1140 142 -283 207 -542
217 -865 15 -481 -126 -929 -414 -1313 -74 -98 -256 -287 -353 -365 -637 -513
-1495 -607 -2221 -243 -812 409 -1269 1307 -1118 2199 112 660 533 1225 1134
1522 340 168 731 241 1096 205z"/>
<path d="M15413 52815 c-255 -46 -406 -233 -469 -581 -23 -127 -26 -545 -5
-669 74 -442 299 -655 666 -631 171 12 275 54 375 155 101 102 158 229 196
437 26 142 27 559 1 689 -27 133 -53 214 -99 306 -120 240 -365 349 -665 294z
m220 -319 c71 -30 122 -112 153 -242 22 -94 31 -518 14 -652 -22 -176 -66
-275 -144 -326 -36 -24 -49 -27 -108 -24 -57 3 -73 8 -105 34 -81 66 -116 181
-133 437 -16 252 8 528 57 645 49 117 163 172 266 128z"/>
<path d="M16492 52353 c-18 -247 -32 -459 -32 -473 0 -21 13 -32 73 -64 l72
-38 85 18 c122 27 305 25 382 -3 31 -12 73 -33 92 -48 89 -68 117 -231 59
-344 -31 -60 -93 -111 -161 -132 -67 -20 -220 -22 -317 -5 -95 16 -225 56
-287 87 l-38 19 0 -170 0 -169 29 -16 c63 -32 209 -66 335 -77 248 -22 470 20
617 118 163 108 240 270 242 509 1 185 -42 306 -147 411 -63 63 -110 92 -206
126 -68 25 -303 36 -394 19 -33 -6 -60 -10 -62 -8 -1 1 6 81 15 177 l16 175
328 3 327 2 0 165 0 165 -498 0 -498 0 -32 -447z"/>
<path d="M19275 53946 c-49 -22 -68 -51 -73 -111 -4 -51 -1 -60 53 -155 177
-313 298 -615 377 -939 35 -147 48 -175 88 -196 35 -18 106 -19 140 -2 35 18
70 74 70 114 0 103 -137 545 -244 789 -62 139 -169 346 -228 440 -42 66 -115
90 -183 60z"/>
<path d="M12895 52687 c-23 -23 -36 -49 -44 -87 -37 -166 -156 -751 -201 -979
-47 -243 -50 -267 -38 -304 33 -104 198 -121 249 -26 5 11 52 230 104 487 51
258 110 546 130 641 42 196 40 228 -16 275 -25 22 -41 26 -91 26 -54 0 -63 -3
-93 -33z"/>
<path d="M19781 51542 c-55 -27 -70 -57 -87 -172 -49 -335 -149 -674 -285
-975 -65 -144 -72 -188 -39 -243 37 -61 133 -79 197 -37 16 11 46 60 83 138
147 309 261 694 316 1069 17 113 17 118 -1 158 -32 71 -114 98 -184 62z"/>
<path d="M14086 50593 c-13 -42 -547 -2685 -544 -2694 2 -5 526 328 1165 739
639 411 1158 750 1155 753 -4 3 -259 56 -567 117 -416 83 -564 116 -576 129
-9 10 -153 232 -319 493 -167 261 -304 476 -306 478 -1 2 -5 -5 -8 -15z"/>
<path d="M18625 49391 c-41 -25 -333 -298 -535 -501 -249 -249 -398 -417 -411
-462 -21 -79 28 -159 108 -174 62 -12 108 18 223 146 135 150 434 448 630 628
85 79 163 155 172 170 21 32 23 106 5 142 -32 63 -130 90 -192 51z"/>
<path d="M17005 47552 c-61 -10 -78 -28 -213 -216 -223 -309 -389 -558 -539
-804 -52 -87 -63 -112 -63 -149 0 -108 93 -169 191 -126 39 17 52 33 114 134
98 161 362 556 490 734 174 241 175 243 175 287 0 49 -22 98 -52 117 -28 17
-76 28 -103 23z"/>
<path d="M66329 26232 c-394 -653 -713 -1188 -710 -1190 4 -1 255 63 557 143
303 80 556 145 563 145 7 0 235 -135 508 -301 272 -165 496 -299 498 -297 3 2
-683 2639 -696 2677 -2 6 -326 -524 -720 -1177z"/>
<path d="M66140 24794 c-165 -20 -218 -28 -305 -46 -245 -50 -559 -181 -775
-325 -541 -359 -886 -903 -976 -1539 -20 -140 -22 -424 -5 -559 55 -426 226
-819 500 -1146 354 -424 882 -711 1444 -784 154 -20 441 -20 594 0 496 65 938
276 1287 615 134 130 215 226 310 368 485 727 487 1685 5 2411 -356 536 -903
883 -1554 986 -96 15 -450 28 -525 19z m469 -160 c377 -49 755 -212 1051 -451
99 -80 291 -279 363 -375 218 -292 353 -629 398 -991 15 -123 7 -451 -14 -562
-61 -323 -190 -624 -373 -872 -308 -416 -778 -715 -1284 -817 -221 -45 -418
-56 -626 -35 -502 48 -957 263 -1306 616 -128 129 -189 203 -279 341 -174 267
-284 579 -320 907 -14 132 -7 369 16 505 95 574 424 1079 914 1402 429 283
941 400 1460 332z"/>
<path d="M65431 23525 c-160 -29 -300 -130 -372 -270 -86 -165 -121 -350 -122
-650 -1 -392 67 -630 228 -790 115 -116 231 -158 425 -158 360 1 550 181 627
594 25 136 25 546 0 674 -38 190 -87 311 -171 416 -127 161 -359 230 -615 184z
m255 -331 c73 -41 121 -142 145 -304 19 -128 16 -492 -5 -615 -34 -204 -114
-305 -241 -305 -116 0 -191 82 -231 256 -11 48 -17 143 -21 309 -7 333 17 497
91 604 61 87 167 110 262 55z"/>
<path d="M66875 23514 c-204 -44 -356 -180 -422 -377 -25 -75 -27 -95 -27
-242 0 -145 3 -167 26 -237 58 -173 161 -273 332 -323 87 -25 298 -17 380 15
58 22 145 96 190 160 17 24 17 23 12 -56 -10 -155 -75 -301 -169 -378 -107
-88 -236 -120 -447 -113 -80 3 -157 9 -172 13 l-28 6 0 -155 0 -156 48 -7 c88
-14 351 -8 446 10 419 80 635 346 685 845 66 640 -187 1014 -681 1010 -57 0
-134 -7 -173 -15z m311 -330 c95 -58 156 -174 157 -299 2 -81 -18 -128 -80
-187 -57 -55 -124 -82 -208 -82 -134 -2 -219 71 -245 209 -27 142 19 295 106
351 81 53 192 57 270 8z"/>
<path d="M109402 24353 c-54 -26 -85 -76 -89 -141 -5 -71 24 -126 82 -159 l40
-23 624 0 624 0 -7 -297 c-10 -413 12 -616 91 -853 210 -632 789 -1026 1632
-1110 69 -7 1355 -10 3850 -10 l3746 -1 34 -50 c21 -30 58 -66 97 -91 l63 -41
-43 -86 c-145 -290 -214 -571 -223 -911 -7 -230 10 -391 62 -595 198 -785 821
-1405 1612 -1605 220 -56 305 -65 583 -65 223 0 272 3 385 24 1001 179 1742
954 1856 1941 17 151 7 474 -20 615 -115 608 -440 1105 -949 1449 -270 182
-585 304 -937 362 -154 26 -524 26 -680 1 -239 -39 -450 -104 -653 -202 -178
-86 -295 -161 -509 -329 l-25 -19 -46 46 c-26 25 -74 59 -107 74 -53 25 -71
28 -160 28 -87 0 -107 -3 -155 -26 -67 -31 -120 -76 -161 -136 l-30 -43 -3792
3 c-3544 2 -3799 4 -3892 20 -420 73 -702 198 -922 410 -177 171 -284 370
-337 627 -30 150 -37 278 -30 577 l7 293 623 2 c614 3 623 3 651 24 51 38 73
81 73 144 0 63 -22 106 -73 144 l-28 21 -1417 2 c-1297 2 -1420 1 -1450 -14z
m13033 -1784 c519 -60 1029 -335 1367 -738 702 -838 634 -2031 -159 -2793
-436 -418 -1061 -636 -1659 -577 -900 87 -1642 713 -1859 1568 -43 171 -58
293 -58 486 0 332 65 611 215 913 28 57 61 110 72 117 12 7 41 16 65 19 61 9
154 60 197 109 67 73 110 206 96 296 -4 30 0 38 34 68 481 420 1064 604 1689
532z"/>
<path d="M121149 21210 c-162 -126 -293 -236 -293 -243 1 -15 172 -227 183
-227 10 0 229 176 286 229 30 28 55 51 57 51 2 0 2 -317 0 -705 l-4 -705 196
0 196 0 0 915 0 915 -163 0 -164 0 -294 -230z"/>
<path d="M122655 21219 c-154 -121 -288 -226 -298 -234 -17 -12 -12 -21 75
-128 51 -64 97 -116 101 -116 11 -1 217 161 289 228 l58 53 0 -706 0 -706 195
0 195 0 0 915 0 915 -167 -1 -168 0 -280 -220z"/>
<path d="M124449 21894 c11 -21 143 -250 293 -509 l274 -470 -158 -554 c-88
-304 -158 -557 -156 -562 2 -4 542 303 1200 684 659 380 1194 694 1190 697 -5
5 -2515 714 -2640 747 l-24 6 21 -39z"/>
<path d="M50393 20935 c-90 -39 -98 -199 -12 -242 13 -7 76 -25 139 -42 311
-81 557 -220 830 -466 104 -95 136 -115 178 -115 81 0 142 58 142 135 0 57
-24 93 -114 174 -314 284 -615 453 -966 542 -129 33 -151 34 -197 14z"/>
<path d="M28283 20900 c-583 -57 -1122 -336 -1484 -769 -367 -437 -545 -952
-526 -1521 11 -339 80 -615 227 -915 218 -443 574 -797 1015 -1010 319 -154
606 -219 970 -219 310 0 568 48 823 153 l70 29 18 -46 c54 -145 170 -228 338
-241 l69 -6 54 -100 c187 -352 294 -728 324 -1140 36 -504 -102 -1080 -381
-1587 -68 -124 -561 -918 -570 -918 -3 0 -75 39 -160 86 -414 231 -837 507
-1239 808 -169 126 -175 130 -230 133 -44 3 -64 -1 -96 -19 -47 -27 -85 -94
-85 -148 1 -73 30 -111 161 -212 728 -557 1602 -1060 2369 -1363 445 -176
1113 -385 1229 -385 96 1 161 68 161 168 0 105 -37 140 -190 182 -357 96 -717
215 -1045 345 -255 100 -555 234 -555 247 0 6 105 177 232 381 273 437 364
597 453 798 145 330 234 652 276 1004 16 128 16 499 0 635 -50 441 -196 891
-404 1245 l-23 40 20 45 c15 34 20 67 20 135 0 112 -25 182 -91 255 l-45 50
79 84 c336 354 535 756 610 1229 24 156 24 508 0 664 -126 794 -643 1446
-1381 1738 -136 54 -334 107 -491 130 -132 19 -397 27 -522 15z m464 -155
c611 -80 1167 -440 1495 -968 120 -192 224 -453 267 -664 31 -154 41 -255 41
-428 0 -328 -63 -609 -199 -890 -109 -226 -218 -382 -398 -565 l-112 -116 -88
0 c-113 -1 -183 -27 -257 -95 -53 -48 -116 -151 -116 -189 0 -12 -22 -27 -67
-47 -443 -198 -982 -228 -1442 -81 -311 99 -575 257 -809 482 -141 137 -217
228 -313 374 -220 337 -332 716 -332 1127 0 462 141 881 421 1255 71 95 254
283 352 363 287 232 660 393 1020 441 143 19 393 19 537 1z"/>
<path d="M27595 19625 c-281 -62 -425 -285 -465 -720 -35 -384 22 -725 155
-925 75 -112 190 -191 323 -219 75 -16 255 -13 331 4 257 61 407 281 451 665
19 158 8 517 -20 644 -54 250 -167 427 -323 508 -107 54 -313 74 -452 43z
m217 -305 c121 -34 178 -168 200 -465 13 -182 1 -426 -28 -550 -46 -198 -165
-288 -299 -226 -124 57 -163 182 -172 542 -11 455 43 649 194 696 49 15 60 15
105 3z"/>
<path d="M29032 19630 c-83 -12 -197 -44 -269 -75 -71 -32 -163 -86 -163 -97
0 -8 153 -242 170 -262 5 -4 34 7 67 26 133 77 227 103 360 96 74 -3 97 -9
135 -31 68 -40 93 -86 93 -172 0 -175 -117 -244 -412 -245 l-133 0 0 -150 0
-150 108 0 c286 -1 429 -57 462 -180 24 -88 -8 -199 -72 -255 -129 -110 -438
-104 -720 15 l-68 28 0 -169 0 -168 93 -30 c141 -44 259 -61 440 -61 280 0
461 55 591 180 110 105 151 220 145 401 -4 94 -8 112 -37 172 -54 110 -158
180 -322 216 -60 13 -79 21 -65 26 155 53 219 93 284 175 55 69 82 147 88 251
14 229 -108 375 -372 444 -71 19 -311 28 -403 15z"/>
<path d="M49065 20875 c-329 -92 -652 -229 -965 -407 -122 -70 -155 -98 -171
-145 -32 -96 56 -198 154 -179 18 4 82 36 142 72 290 172 608 305 992 414 102
29 144 83 129 164 -12 63 -76 117 -138 115 -13 0 -77 -15 -143 -34z"/>
<path d="M49288 19855 c-527 -72 -1031 -350 -1369 -754 -617 -736 -708 -1741
-234 -2567 251 -436 641 -772 1111 -957 667 -262 1410 -182 2009 218 793 529
1157 1496 915 2431 -223 864 -943 1503 -1835 1629 -125 18 -464 18 -597 0z
m642 -155 c660 -115 1224 -543 1513 -1150 347 -727 252 -1560 -250 -2197 -80
-101 -264 -281 -372 -362 -249 -190 -553 -321 -881 -382 -107 -20 -157 -23
-345 -23 -242 0 -331 11 -535 65 -566 150 -1048 548 -1307 1077 -245 503 -281
1082 -100 1607 73 211 147 354 278 539 75 106 271 312 378 398 287 231 661
394 1006 437 50 6 104 13 120 15 79 11 376 -4 495 -24z"/>
<path d="M48742 18599 c-170 -28 -294 -115 -377 -264 -135 -241 -175 -767 -84
-1119 86 -335 287 -506 593 -506 298 1 483 139 575 430 48 152 56 229 56 520
-1 248 -3 285 -23 379 -57 262 -163 426 -327 507 -118 58 -268 77 -413 53z
m245 -345 c87 -70 129 -223 139 -504 11 -286 -19 -510 -82 -618 -49 -84 -151
-121 -239 -88 -130 50 -180 224 -179 631 0 313 27 458 101 544 49 57 83 72
160 68 52 -2 69 -8 100 -33z"/>
<path d="M50220 18599 c-156 -19 -291 -75 -428 -179 -45 -34 -84 -65 -87 -71
-6 -8 99 -141 178 -225 l29 -32 76 55 c95 68 154 99 229 118 137 36 249 5 301
-83 23 -41 27 -58 27 -127 0 -69 -5 -90 -32 -147 -56 -119 -107 -179 -510
-592 l-293 -299 0 -139 0 -138 635 0 635 0 0 165 0 165 -395 0 c-217 0 -395 2
-395 4 0 3 46 49 103 103 265 253 424 415 478 486 69 92 122 198 143 287 20
84 20 220 1 295 -42 162 -184 292 -368 339 -76 20 -233 27 -327 15z"/>
<path d="M47028 19595 c-45 -25 -256 -288 -385 -480 -125 -188 -289 -495 -333
-624 -33 -99 -5 -175 75 -201 84 -28 142 5 187 104 159 350 333 630 563 905
105 126 118 157 94 225 -26 75 -127 111 -201 71z"/>
<path d="M52355 19438 c-66 -36 -94 -99 -75 -168 9 -32 30 -57 108 -127 266
-237 579 -461 891 -638 88 -50 111 -59 151 -58 82 1 132 52 133 133 1 29 -6
58 -16 74 -19 29 -28 35 -232 156 -242 143 -484 320 -705 514 -62 54 -124 105
-139 112 -31 17 -88 18 -116 2z"/>
<path d="M54512 18230 c-80 -49 -80 -183 0 -233 47 -30 365 -94 599 -121 142
-17 486 -35 654 -36 116 0 157 15 187 71 33 62 14 140 -45 183 -26 19 -47 21
-295 28 -378 9 -669 44 -924 108 -97 25 -135 25 -176 0z"/>
<path d="M56986 17919 c-57 -45 -73 -126 -36 -186 22 -37 47 -51 145 -83 262
-85 625 -256 935 -441 127 -76 161 -87 214 -69 103 34 125 168 39 239 -101 83
-583 334 -848 441 -295 120 -395 142 -449 99z"/>
<path d="M26024 17720 c-311 -682 -1099 -2446 -1095 -2448 8 -3 2584 937 2593
946 3 4 -233 114 -525 244 l-532 236 -172 474 c-95 260 -186 509 -202 553
l-29 80 -38 -85z"/>
<path d="M46112 17310 c-61 -38 -66 -68 -53 -291 18 -308 68 -603 150 -895 75
-265 94 -294 191 -294 57 0 88 16 117 59 30 44 29 89 -1 179 -99 292 -186 784
-186 1057 0 150 -29 196 -128 202 -45 3 -64 0 -90 -17z"/>
<path d="M59119 16625 c-41 -22 -63 -73 -57 -134 l5 -51 214 -218 c235 -238
358 -377 515 -582 135 -176 156 -198 200 -206 50 -9 108 10 138 47 21 25 26
41 26 88 l0 58 -109 144 c-155 205 -338 416 -546 628 -221 226 -241 241 -309
241 -28 -1 -62 -7 -77 -15z"/>
<path d="M57025 16604 c-694 -58 -1281 -405 -1657 -979 -176 -268 -290 -566
-345 -900 -25 -153 -25 -524 0 -680 141 -892 773 -1605 1614 -1821 206 -53
342 -67 583 -61 213 5 304 17 485 63 513 131 998 492 1287 956 68 110 179 341
217 453 38 113 76 262 97 385 25 148 30 485 10 649 -33 253 -102 485 -215 716
-318 649 -923 1096 -1622 1199 -107 16 -365 27 -454 20z m350 -154 c616 -71
1168 -424 1499 -959 281 -455 378 -999 271 -1528 -157 -774 -741 -1400 -1485
-1588 -186 -47 -283 -59 -495 -59 -286 0 -490 40 -746 143 -680 277 -1160 913
-1260 1671 -18 135 -15 401 5 544 145 1016 993 1778 1986 1785 74 0 176 -4
225 -9z"/>
<path d="M56300 15324 c-316 -68 -462 -360 -462 -924 -1 -301 31 -480 115
-650 74 -151 200 -254 355 -290 67 -16 231 -16 308 0 133 27 263 119 333 234
100 166 150 448 138 771 -11 267 -39 402 -117 562 -81 165 -183 252 -346 293
-91 24 -227 25 -324 4z m235 -317 c73 -35 122 -121 151 -262 35 -170 28 -601
-12 -760 -33 -132 -104 -214 -192 -223 -70 -6 -115 12 -162 65 -78 89 -104
232 -104 563 0 305 24 456 88 549 53 76 154 106 231 68z"/>
<path d="M57615 15080 c-154 -126 -281 -234 -283 -239 -4 -12 166 -231 180
-231 11 0 127 94 253 206 l80 70 -3 -708 -3 -708 191 0 190 0 0 920 0 920
-162 -1 -163 0 -280 -229z"/>
<path d="M51180 15595 c-206 -224 -384 -418 -395 -431 l-20 -23 -515 -11
c-283 -7 -548 -15 -588 -18 l-73 -7 991 -915 c545 -503 1005 -926 1022 -940
l30 -24 -6 379 c-4 209 -13 589 -21 845 -8 256 -21 695 -30 975 -8 281 -16
525 -17 544 -3 33 -15 21 -378 -374z"/>
<path d="M46826 14929 c-62 -49 -71 -119 -27 -207 46 -92 222 -397 360 -626
310 -514 312 -516 399 -516 83 0 132 51 132 137 0 45 -9 64 -111 229 -167 270
-374 619 -478 807 -103 185 -115 197 -199 197 -35 0 -57 -6 -76 -21z"/>
<path d="M60581 14602 c-40 -22 -71 -73 -71 -119 0 -18 15 -70 34 -115 135
-329 240 -705 291 -1046 8 -57 23 -114 32 -128 54 -83 201 -68 240 23 18 44
14 88 -23 293 -53 293 -161 667 -269 932 -51 125 -65 144 -112 164 -44 19 -82
17 -122 -4z"/>
<path d="M54892 13530 c-6 -14 -41 -92 -80 -175 -38 -82 -155 -341 -259 -575
-105 -234 -325 -723 -488 -1088 -164 -365 -296 -665 -294 -667 2 -2 490 174
1084 390 594 217 1177 428 1295 471 118 42 218 80 223 84 4 3 -234 114 -529
246 l-536 239 -144 400 c-79 220 -149 409 -154 420 -6 11 -28 71 -50 134 -53
147 -56 153 -68 121z"/>
<path d="M94497 60686 c-2193 -847 -3984 -1542 -3980 -1543 25 -8 8457 -1323
8460 -1319 3 3 -442 4196 -463 4359 -3 26 -11 47 -17 46 -7 -1 -1806 -695
-4000 -1543z"/>
<path d="M50333 61553 c3 -175 8 -331 13 -348 7 -27 3 -25 -45 27 -93 101
-183 138 -342 138 -256 0 -414 -137 -485 -420 -27 -107 -27 -432 0 -535 70
-269 237 -415 475 -415 159 0 288 61 367 174 l20 28 38 -91 38 -91 139 0 139
0 0 925 0 925 -181 0 -181 0 5 -317z m-128 -503 c56 -27 99 -83 123 -159 13
-43 17 -92 17 -211 0 -175 -14 -240 -67 -304 -49 -59 -100 -80 -194 -81 -72 0
-85 3 -130 30 -94 59 -139 174 -138 360 1 202 65 338 180 381 53 20 151 12
209 -16z"/>
<path d="M52500 60945 l0 -925 180 0 180 0 0 925 0 925 -180 0 -180 0 0 -925z"/>
<path d="M42324 61756 c-278 -72 -462 -263 -540 -562 -21 -81 -27 -130 -31
-264 -11 -342 58 -563 226 -730 133 -133 273 -187 506 -197 154 -6 309 13 437
55 l83 27 3 157 3 157 -43 -15 c-84 -29 -239 -64 -325 -73 -275 -28 -442 94
-497 362 -21 99 -21 312 -1 415 23 113 82 229 150 290 134 123 315 132 559 27
45 -19 86 -35 92 -35 6 0 37 66 69 146 47 118 55 148 44 155 -33 21 -191 73
-274 90 -134 28 -341 26 -461 -5z"/>
<path d="M47806 61370 c-33 -6 -87 -17 -120 -25 -64 -16 -214 -73 -220 -84 -2
-3 24 -61 58 -127 l61 -122 85 33 c200 78 352 84 430 18 43 -35 58 -70 66
-146 l7 -65 -164 -7 c-396 -16 -558 -80 -635 -248 -27 -58 -29 -71 -28 -182 0
-100 4 -130 22 -176 61 -154 169 -226 353 -236 186 -11 315 32 420 139 l59 60
18 -44 c11 -23 27 -64 37 -90 l18 -48 128 0 129 0 0 453 c0 248 -5 486 -10
527 -13 97 -64 205 -122 255 -52 43 -123 79 -203 100 -72 20 -303 28 -389 15z
m358 -817 c-1 -108 -22 -160 -84 -216 -56 -50 -110 -69 -196 -69 -98 1 -156
42 -169 121 -15 91 51 192 145 220 56 17 166 29 245 27 l60 -1 -1 -82z"/>
<path d="M45542 61351 c-94 -33 -199 -119 -252 -209 -15 -25 -24 -5 -49 109
l-22 99 -140 0 -139 0 0 -665 0 -665 180 0 180 0 0 343 c0 204 4 367 11 403
13 70 52 146 92 180 80 67 222 105 325 86 45 -8 52 -7 52 7 0 20 18 232 25
289 l5 42 -108 0 c-77 -1 -122 -6 -160 -19z"/>
<path d="M51426 61354 c-203 -49 -353 -201 -412 -419 -24 -90 -30 -358 -10
-455 37 -178 150 -330 297 -403 127 -62 181 -72 384 -71 191 0 286 15 398 63
l47 20 0 141 c0 77 -2 140 -5 140 -2 0 -37 -13 -77 -29 -130 -51 -202 -65
-338 -65 -117 -1 -129 1 -182 27 -61 30 -106 75 -137 135 -21 42 -44 139 -35
153 3 5 184 9 431 9 l426 0 -6 153 c-7 176 -24 253 -73 347 -66 125 -191 221
-335 255 -82 19 -292 19 -373 -1z m288 -258 c78 -33 135 -113 150 -213 l6 -43
-256 0 -256 0 6 32 c22 113 62 176 135 215 52 27 160 32 215 9z"/>
<path d="M43342 60843 c4 -561 3 -550 70 -663 67 -111 182 -168 358 -177 176
-9 310 37 404 137 27 28 52 48 56 43 4 -4 18 -43 30 -85 l23 -78 138 0 139 0
0 665 0 665 -180 0 -180 0 0 -338 c0 -466 -15 -565 -102 -651 -89 -89 -257
-94 -335 -10 -57 63 -58 66 -61 552 l-3 447 -180 0 -180 0 3 -507z"/>
<path d="M45860 61342 c0 -4 112 -303 249 -663 l249 -654 188 0 188 0 171 450
c94 248 208 546 252 663 l81 212 -192 0 -191 0 -137 -412 c-75 -227 -141 -438
-147 -468 -28 -142 -29 -146 -30 -117 -3 75 -43 216 -168 590 l-136 407 -189
0 c-103 0 -188 -4 -188 -8z"/>
<path d="M42190 59548 c-897 -83 -1509 -507 -1666 -1153 l-24 -100 0 -2002 0
-2002 -42 -11 c-75 -20 -201 -87 -268 -142 -117 -97 -202 -235 -241 -388 -30
-118 -24 -299 14 -415 82 -250 290 -436 549 -489 257 -53 524 31 695 218 73
80 118 155 157 259 29 78 30 89 30 242 1 150 -1 165 -27 240 -84 240 -255 400
-509 479 -17 5 -18 109 -18 1988 0 1970 0 1984 21 2058 47 169 138 318 279
454 222 214 504 336 943 409 l132 22 5540 5 5540 5 35 21 c19 11 45 36 58 55
20 29 23 44 20 99 -4 76 -28 118 -82 144 -31 15 -479 16 -5538 15 -3101 -1
-5544 -6 -5598 -11z"/>
<path d="M49940 58030 l0 -920 180 0 180 0 0 920 0 920 -180 0 -180 0 0 -920z"/>
<path d="M50745 58930 c-48 -24 -71 -58 -80 -121 -14 -92 31 -179 104 -199 46
-13 136 -13 180 0 51 14 88 55 101 112 23 95 -6 178 -73 209 -59 26 -178 26
-232 -1z"/>
<path d="M42505 58860 c-226 -36 -371 -145 -426 -319 -37 -121 -22 -307 34
-401 71 -121 145 -178 399 -306 209 -107 269 -153 288 -223 20 -77 -16 -153
-93 -193 -58 -30 -187 -36 -296 -14 -76 16 -245 71 -333 110 l-38 16 0 -174 0
-174 63 -25 c250 -99 607 -98 808 4 69 35 150 105 186 163 84 131 94 333 24
482 -56 119 -153 195 -421 329 -241 121 -280 155 -280 249 0 55 18 94 59 129
48 40 93 50 202 44 80 -4 120 -13 228 -50 73 -24 134 -40 137 -36 6 10 114
270 114 275 0 8 -176 69 -260 90 -108 28 -297 39 -395 24z"/>
<path d="M43855 58446 c-137 -27 -250 -87 -326 -175 -53 -61 -113 -188 -135
-286 -25 -108 -25 -341 0 -440 82 -334 366 -497 797 -456 114 11 174 24 277
63 l52 19 0 145 0 144 -37 -16 c-140 -61 -353 -103 -452 -89 -112 15 -188 59
-236 135 -25 40 -55 130 -55 167 l0 23 425 0 425 0 0 148 c0 115 -4 166 -20
226 -50 197 -181 331 -375 381 -84 22 -254 28 -340 11z m263 -275 c74 -38 120
-109 129 -197 l6 -54 -253 0 -253 0 7 46 c14 104 81 192 165 219 58 19 148 12
199 -14z"/>
<path d="M45523 58445 c-106 -30 -199 -97 -265 -193 -16 -23 -33 -40 -37 -38
-4 3 -18 53 -31 111 l-23 105 -139 0 -138 0 0 -660 0 -660 179 0 180 0 3 383
c3 374 3 383 26 432 31 68 93 128 166 161 55 26 72 28 172 29 l111 0 13 163
c6 90 9 166 6 170 -14 13 -173 11 -223 -3z"/>
<path d="M46643 58450 c-103 -22 -223 -106 -280 -195 -15 -25 -31 -45 -34 -45
-4 0 -19 50 -34 110 l-27 110 -139 0 -139 0 0 -660 0 -660 179 0 180 0 3 378
3 377 29 63 c62 134 200 204 377 189 60 -5 69 -4 69 11 1 9 7 85 14 167 8 83
12 152 10 154 -7 8 -173 9 -211 1z"/>
<path d="M47475 58453 c-101 -14 -345 -91 -345 -109 0 -2 27 -59 61 -125 48
-96 64 -120 77 -115 9 3 63 22 120 41 108 38 233 54 306 41 44 -8 104 -59 122
-103 8 -18 14 -60 14 -93 l0 -60 -102 0 c-322 0 -552 -62 -639 -172 -61 -76
-74 -121 -74 -258 0 -142 14 -194 72 -274 70 -96 178 -141 343 -140 177 0 270
34 376 138 l64 62 33 -86 33 -85 127 -3 127 -3 0 493 c0 534 -1 548 -56 648
-52 96 -158 165 -300 195 -64 14 -282 18 -359 8z m355 -821 c0 -75 -4 -96 -26
-140 -46 -93 -133 -142 -253 -142 -98 0 -159 48 -168 133 -17 152 106 234 355
236 l92 1 0 -88z"/>
<path d="M48885 58450 c-192 -31 -318 -120 -376 -267 -33 -85 -33 -263 0 -346
30 -77 76 -135 138 -176 l51 -34 -59 -43 c-72 -54 -99 -102 -99 -180 0 -69 32
-131 88 -169 37 -25 37 -25 12 -32 -62 -16 -165 -80 -197 -121 -94 -123 -78
-320 34 -423 118 -109 346 -156 622 -130 368 36 567 174 600 416 24 169 -36
317 -153 377 -93 48 -112 51 -371 58 -265 7 -311 16 -334 59 -15 27 -5 64 23
90 20 19 37 21 171 25 162 4 214 15 318 68 199 100 271 335 173 559 -7 16 3
20 152 59 l42 11 0 89 0 90 -227 0 c-126 1 -248 5 -273 10 -70 14 -268 20
-335 10z m200 -221 c87 -24 134 -101 135 -220 0 -159 -65 -238 -196 -239 -119
0 -194 86 -194 224 0 92 14 140 53 182 51 56 123 74 202 53z m194 -1155 c74
-22 101 -53 101 -117 0 -47 -3 -54 -48 -97 -66 -63 -149 -90 -302 -97 -138 -7
-213 7 -269 47 -48 35 -64 62 -64 110 0 69 49 127 132 156 55 20 382 19 450
-2z"/>
<path d="M51880 58453 c-368 -49 -560 -313 -537 -738 18 -326 177 -539 457
-612 87 -22 280 -22 372 0 172 42 302 145 377 297 118 242 101 593 -40 804
-106 159 -269 243 -489 250 -58 3 -121 2 -140 -1z m228 -315 c51 -26 104 -94
122 -156 24 -83 32 -203 21 -299 -26 -217 -104 -307 -266 -307 -175 0 -260
110 -272 355 -13 248 54 391 202 430 51 14 143 3 193 -23z"/>
<path d="M50680 57770 l0 -660 180 0 180 0 0 660 0 660 -180 0 -180 0 0 -660z"/>
<path d="M39197 52693 c-98 -483 -222 -1095 -276 -1361 -68 -335 -94 -482 -85
-478 7 3 533 339 1168 748 847 545 1151 745 1138 750 -9 4 -258 55 -552 113
-294 59 -545 109 -557 112 -16 3 -106 136 -327 481 -168 263 -311 485 -318
495 -11 15 -39 -112 -191 -860z"/>
<path d="M10472 45863 c-7 -3 -111 -87 -231 -186 -228 -191 -503 -408 -683
-543 -117 -87 -141 -118 -141 -178 0 -87 52 -136 142 -136 49 0 56 4 198 112
188 142 591 464 753 602 122 104 159 151 160 201 0 38 -38 103 -69 119 -29 15
-101 20 -129 9z"/>
<path d="M12697 44907 c-663 -369 -1207 -674 -1207 -677 0 -3 253 -73 563
-156 l562 -150 285 -513 c216 -389 286 -508 292 -494 13 30 719 2656 715 2659
-2 2 -546 -299 -1210 -669z"/>
<path d="M72320 45342 c-54 -28 -83 -92 -77 -168 8 -115 54 -156 182 -162 69
-3 86 0 125 20 60 31 82 72 83 151 1 129 -52 176 -198 177 -59 0 -90 -5 -115
-18z"/>
<path d="M67920 45243 c0 -5 123 -370 274 -813 150 -443 281 -829 290 -857
l18 -53 204 0 c112 0 204 2 204 4 0 2 131 387 290 856 160 469 290 856 290
861 0 5 -83 9 -184 9 l-184 0 -21 -62 c-141 -434 -326 -1030 -350 -1133 -17
-71 -35 -143 -39 -160 -6 -25 -14 -4 -46 129 -34 139 -102 365 -322 1054 l-55
172 -184 0 c-102 0 -185 -3 -185 -7z"/>
<path d="M76190 45013 c-24 -65 -49 -130 -56 -144 -8 -16 -51 -49 -108 -83
l-96 -57 0 -79 0 -80 85 0 85 0 0 -337 c0 -186 5 -368 10 -405 24 -168 100
-270 227 -307 37 -11 95 -22 128 -25 80 -8 235 9 318 34 l67 21 0 138 0 137
-72 -18 c-139 -36 -231 -25 -283 32 -19 21 -20 38 -23 376 l-3 354 186 0 185
0 0 135 0 135 -185 0 -185 0 0 145 0 145 -118 0 -119 0 -43 -117z"/>
<path d="M9270 44913 c-25 -9 -556 -395 -683 -496 -171 -137 -354 -304 -371
-342 -56 -117 52 -240 170 -195 15 6 72 52 128 103 55 51 128 116 162 144 68
59 400 307 607 456 76 54 145 109 154 124 24 36 22 116 -3 151 -36 48 -112 74
-164 55z"/>
<path d="M70006 44854 c-100 -19 -255 -74 -284 -99 -4 -4 117 -245 123 -245 3
0 33 11 68 26 136 55 321 81 394 53 38 -14 83 -57 99 -96 8 -18 14 -59 14 -91
l0 -59 -182 -6 c-208 -7 -333 -29 -432 -75 -85 -40 -130 -82 -168 -160 -29
-58 -33 -77 -36 -167 -5 -127 14 -209 66 -285 73 -108 179 -154 352 -153 180
1 277 37 381 144 l56 57 35 -87 34 -86 127 -3 127 -3 0 489 c0 406 -3 498 -15
547 -42 160 -138 248 -323 296 -91 23 -327 25 -436 3z m412 -821 c-5 -107 -16
-140 -69 -192 -50 -50 -105 -74 -184 -78 -59 -4 -77 -1 -115 19 -61 31 -83 74
-77 151 11 133 121 194 351 196 l98 1 -4 -97z"/>
<path d="M71780 44855 c-100 -29 -202 -104 -257 -191 -16 -24 -31 -44 -35 -44
-3 0 -16 42 -28 93 -11 50 -23 100 -26 110 -5 15 -21 17 -145 17 l-139 0 0
-660 0 -660 180 0 180 0 0 323 c0 177 5 355 10 394 17 128 74 208 190 262 49
23 67 26 167 26 68 0 113 4 113 10 1 6 7 80 14 165 8 85 12 157 10 159 -12 13
-184 9 -234 -4z"/>
<path d="M73365 44863 c-63 -9 -193 -46 -262 -74 l-71 -30 57 -122 c46 -97 62
-122 77 -120 10 1 66 19 124 39 190 66 345 58 406 -21 26 -35 53 -147 42 -177
-5 -12 -39 -16 -190 -21 -100 -4 -214 -13 -253 -21 -161 -32 -271 -92 -324
-174 -84 -132 -80 -357 9 -490 73 -108 182 -156 355 -155 173 0 266 34 372
136 35 33 65 58 66 56 2 -2 18 -41 36 -86 l33 -83 129 0 129 0 0 453 c0 248
-5 482 -10 519 -29 200 -140 316 -347 362 -68 15 -295 20 -378 9z m372 -822
c-7 -106 -32 -166 -90 -216 -74 -63 -201 -83 -285 -45 -82 37 -105 154 -47
242 47 71 151 106 324 107 l104 1 -6 -89z"/>
<path d="M75085 44855 c-115 -25 -202 -76 -252 -147 -33 -49 -40 -42 -67 61
l-18 71 -139 0 -139 0 0 -660 0 -660 179 0 180 0 3 403 c4 396 4 403 28 472
45 128 147 195 277 182 103 -11 163 -75 182 -197 6 -37 11 -233 11 -462 l0
-398 181 0 180 0 -3 503 c-3 493 -4 503 -26 565 -40 111 -102 186 -193 232
-91 47 -260 62 -384 35z"/>
<path d="M77505 44855 c-222 -46 -383 -207 -442 -440 -13 -52 -17 -113 -18
-235 0 -190 9 -236 67 -360 90 -188 260 -295 508 -320 175 -18 389 9 516 65
l54 24 0 142 c0 109 -3 140 -12 136 -161 -69 -280 -98 -418 -100 -120 -1 -181
18 -248 78 -55 50 -90 118 -99 196 l-6 49 428 0 428 0 -5 168 c-4 147 -8 176
-32 245 -60 176 -168 283 -341 337 -92 28 -280 36 -380 15z m248 -259 c88 -32
149 -112 163 -215 l7 -51 -254 2 -254 3 3 34 c8 77 55 163 108 197 65 43 156
55 227 30z"/>
<path d="M72260 44180 l0 -660 180 0 180 0 0 660 0 660 -180 0 -180 0 0 -660z"/>
<path d="M10690 44040 c-548 -57 -1036 -293 -1399 -676 -399 -421 -611 -955
-611 -1539 0 -358 70 -665 225 -980 327 -668 929 -1107 1675 -1222 157 -24
471 -24 630 1 491 75 922 293 1262 639 579 588 784 1466 527 2257 -260 799
-944 1377 -1779 1504 -126 20 -413 28 -530 16z m467 -155 c834 -108 1529 -725
1739 -1541 147 -575 43 -1185 -286 -1673 -282 -421 -721 -734 -1198 -856 -168
-43 -272 -57 -457 -62 -585 -17 -1114 195 -1528 612 -813 821 -804 2126 22
2942 319 317 746 524 1197 582 115 14 383 12 511 -4z"/>
<path d="M10000 42764 c-244 -53 -386 -240 -447 -589 -24 -141 -24 -530 0
-667 51 -292 164 -478 339 -561 94 -45 154 -57 286 -57 184 0 313 47 417 154
96 98 149 218 192 431 26 130 26 570 0 700 -68 343 -205 524 -442 585 -93 24
-246 26 -345 4z m220 -304 c84 -23 146 -112 175 -250 50 -239 37 -678 -26
-845 -81 -218 -317 -218 -398 0 -42 111 -53 236 -48 515 4 186 9 275 21 330
31 138 83 217 162 245 47 17 68 18 114 5z"/>
<path d="M11348 42160 l-398 -590 0 -140 0 -140 390 0 390 0 0 -190 0 -190
190 0 190 0 0 190 0 190 110 0 110 0 0 155 0 155 -110 0 -110 0 0 575 0 575
-182 -1 -183 0 -397 -589z m391 -10 c-4 -80 -8 -236 -8 -347 l-1 -203 -216 0
c-169 0 -214 3 -208 13 5 6 86 131 181 276 96 145 192 297 215 338 22 41 41
73 42 71 2 -2 -1 -68 -5 -148z"/>
<path d="M7616 43100 c-49 -15 -74 -49 -116 -158 -135 -348 -193 -649 -194
-1002 -1 -197 1 -229 17 -257 48 -89 185 -96 237 -11 18 29 19 50 19 223 -1
330 44 570 168 912 44 121 54 160 49 188 -9 47 -50 92 -94 105 -42 11 -47 11
-86 0z"/>
<path d="M68390 43013 c-188 -17 -274 -28 -385 -49 -548 -100 -965 -346 -1200
-709 -86 -131 -140 -252 -183 -410 -15 -55 -17 -395 -22 -4129 -4 -3579 -7
-4070 -20 -4074 -8 -3 -38 -28 -67 -55 -138 -130 -162 -335 -57 -495 111 -168
358 -213 531 -96 216 147 212 491 -9 630 l-38 24 0 4018 c0 3991 0 4018 20
4102 68 287 296 546 615 700 186 90 370 142 661 187 101 16 492 18 5386 23
l5277 5 27 21 c64 47 91 119 73 188 -15 56 -36 84 -80 107 -38 19 -108 19
-5266 17 -2875 0 -5244 -3 -5263 -5z"/>
<path d="M76411 42439 c-81 -25 -111 -71 -111 -168 0 -126 54 -175 195 -176
130 0 186 46 193 160 6 84 -21 143 -75 169 -44 21 -155 29 -202 15z"/>
<path d="M69722 41478 c-166 -475 -302 -866 -302 -871 0 -4 89 -6 197 -5 l197
3 62 200 62 200 315 3 315 2 30 -97 c17 -54 45 -146 63 -205 l33 -108 198 0
c109 0 198 3 198 8 0 4 -137 394 -304 867 l-304 860 -229 3 -228 2 -303 -862z
m651 197 c57 -187 102 -343 100 -347 -2 -5 -101 -8 -219 -8 -180 0 -214 2
-214 14 0 8 11 50 24 93 24 75 121 399 167 553 17 59 23 71 29 55 5 -11 55
-173 113 -360z"/>
<path d="M74135 41949 c-137 -18 -355 -90 -355 -116 0 -4 25 -61 57 -126 44
-92 60 -116 72 -111 69 30 219 75 280 85 186 28 291 -46 291 -207 l0 -41 -67
-6 c-38 -4 -106 -7 -153 -7 -217 -1 -419 -59 -507 -147 -143 -143 -131 -466
23 -602 69 -60 138 -83 271 -89 194 -8 314 35 421 152 24 26 45 46 47 44 1 -2
17 -42 35 -90 l33 -88 129 0 128 0 0 468 c0 257 -4 492 -9 522 -31 187 -139
298 -333 345 -80 19 -271 27 -363 14z m343 -802 c7 -169 -83 -282 -243 -303
-143 -18 -231 70 -203 202 21 99 114 152 288 164 164 12 155 16 158 -63z"/>
<path d="M71525 41933 c-143 -30 -251 -107 -298 -211 -29 -64 -30 -213 -3
-292 28 -82 106 -155 226 -212 52 -25 152 -73 221 -106 81 -39 136 -72 153
-92 49 -59 25 -135 -52 -162 -91 -31 -331 1 -493 67 -34 14 -66 25 -71 25 -4
0 -8 -67 -8 -150 l0 -149 78 -25 c105 -33 208 -46 362 -46 397 0 584 145 567
440 -10 195 -85 270 -402 404 -161 68 -207 95 -229 137 -19 35 -19 38 -2 64
24 37 74 55 150 55 85 0 150 -14 264 -58 54 -20 97 -31 102 -26 4 5 31 64 58
130 l50 122 -27 12 c-59 28 -171 62 -250 75 -106 19 -305 18 -396 -2z"/>
<path d="M72870 41934 c-159 -34 -304 -140 -375 -275 -63 -121 -78 -198 -78
-404 0 -153 3 -192 21 -260 48 -175 133 -288 264 -350 99 -47 189 -65 335 -65
144 0 253 19 331 57 l57 29 3 156 3 157 -77 -39 c-92 -47 -187 -70 -287 -70
-132 0 -220 66 -263 196 -26 80 -27 302 -2 384 26 82 69 144 125 177 44 26 55
28 148 27 88 0 112 -5 197 -36 l98 -35 31 81 c17 45 42 108 54 142 l23 60 -66
26 c-37 15 -105 33 -151 42 -102 20 -301 20 -391 0z"/>
<path d="M75845 41941 c-96 -24 -199 -97 -259 -184 -22 -32 -41 -55 -44 -53
-2 3 -16 53 -31 113 l-27 108 -137 3 -137 3 0 -666 0 -665 180 0 180 0 0 364
c0 330 2 370 19 425 26 85 76 142 159 183 64 32 71 33 183 33 l116 0 13 162
c6 89 9 167 5 173 -7 11 -173 12 -220 1z"/>
<path d="M76310 41265 l0 -665 180 0 180 0 0 665 0 665 -180 0 -180 0 0 -665z"/>
<path d="M7768 40693 c-43 -27 -62 -71 -56 -131 4 -45 18 -71 101 -194 148
-222 293 -395 511 -614 247 -246 262 -258 330 -258 58 0 99 22 122 65 17 34
18 106 1 137 -7 12 -67 73 -134 135 -255 237 -487 511 -643 759 -29 47 -66 93
-81 102 -35 21 -116 20 -151 -1z"/>
<path d="M15135 40481 c-19 -11 -46 -48 -75 -102 -100 -189 -258 -403 -438
-590 -85 -89 -110 -109 -126 -104 -77 22 -143 27 -204 16 -128 -24 -221 -95
-275 -209 -30 -62 -32 -75 -31 -167 0 -79 5 -109 21 -145 47 -102 124 -174
218 -207 24 -8 46 -22 49 -31 9 -30 1078 -4444 1102 -4552 36 -161 50 -340 36
-458 -27 -235 -106 -357 -270 -421 l-67 -26 -7396 -5 -7395 -5 -41 -27 c-105
-69 -91 -247 23 -294 29 -12 1116 -14 7441 -12 l7408 3 79 23 c217 61 371 184
460 367 77 158 100 275 100 505 0 221 -14 313 -105 680 -39 157 -290 1192
-558 2300 l-487 2015 42 48 c61 69 87 142 87 247 0 47 -5 98 -12 113 -11 28
-8 32 100 145 196 205 376 449 483 655 49 93 55 127 32 182 -29 68 -134 98
-201 56z"/>
<path d="M9635 39066 c-50 -22 -68 -51 -73 -114 -6 -90 16 -114 168 -184 329
-150 658 -259 994 -328 212 -43 286 -13 286 120 0 43 -5 55 -32 85 -31 33 -42
37 -163 60 -334 66 -652 169 -966 316 -129 61 -162 68 -214 45z"/>
<path d="M13278 38924 c-15 -14 -347 -118 -506 -158 -178 -45 -472 -98 -612
-111 -123 -12 -170 -50 -170 -137 0 -80 28 -117 101 -138 81 -24 645 79 964
175 359 108 415 139 415 235 0 94 -45 140 -138 140 -27 0 -51 -3 -54 -6z"/>
<path d="M62000 36424 c-548 -77 -1057 -351 -1407 -759 -465 -540 -638 -1238
-481 -1945 48 -219 179 -524 306 -715 346 -518 883 -867 1502 -975 158 -28
450 -38 611 -21 947 98 1723 754 1959 1656 36 137 60 314 67 475 20 518 -137
1007 -460 1435 -78 103 -289 314 -392 392 -312 235 -635 377 -1010 444 -158
28 -536 36 -695 13z m495 -134 c699 -66 1319 -468 1659 -1075 128 -230 213
-489 246 -755 13 -109 13 -371 0 -480 -75 -601 -410 -1140 -927 -1487 -116
-77 -341 -189 -468 -232 -457 -154 -922 -156 -1371 -7 -852 284 -1434 1085
-1434 1972 0 354 107 734 292 1043 415 693 1205 1096 2003 1021z"/>
<path d="M61421 35165 c-175 -33 -307 -135 -385 -297 -82 -170 -110 -334 -110
-638 0 -357 54 -574 182 -743 107 -141 295 -216 507 -203 179 11 285 54 391
160 108 108 171 261 205 496 21 141 15 483 -9 620 -60 333 -207 531 -443 596
-79 22 -250 26 -338 9z m235 -321 c131 -62 181 -262 171 -683 -7 -296 -31
-408 -106 -493 -42 -48 -88 -68 -154 -68 -110 0 -189 87 -222 245 -25 121 -37
368 -26 540 15 217 40 318 102 406 43 61 162 88 235 53z"/>
<path d="M62875 35156 c-253 -59 -392 -198 -403 -401 -10 -180 74 -338 238
-448 l49 -33 -97 -65 c-153 -101 -219 -200 -245 -362 -14 -89 2 -205 39 -284
57 -120 187 -212 362 -255 124 -31 371 -30 487 1 281 75 425 249 413 501 -5
96 -32 168 -96 253 -40 53 -157 146 -235 187 -26 14 -47 27 -47 30 0 4 19 15
43 27 106 52 198 142 246 243 24 50 26 66 26 175 0 108 -3 125 -26 175 -52
111 -149 190 -293 237 -71 23 -101 26 -241 29 -112 3 -178 -1 -220 -10z m310
-296 c91 -44 127 -139 91 -235 -20 -50 -89 -118 -159 -155 -40 -21 -47 -22
-77 -10 -68 28 -146 96 -174 151 -31 64 -33 108 -5 166 50 102 203 142 324 83z
m13 -843 c40 -27 87 -68 104 -90 73 -92 67 -206 -15 -284 -60 -57 -131 -77
-247 -71 -168 10 -260 91 -260 230 0 99 71 194 200 270 l63 37 41 -21 c23 -11
74 -43 114 -71z"/>
<path d="M8625 35841 c-85 -22 -115 -65 -115 -166 0 -131 52 -180 190 -180 99
1 146 23 178 85 20 37 23 56 19 109 -5 71 -24 105 -76 135 -36 21 -146 30
-196 17z"/>
<path d="M4181 35733 c0 -5 132 -395 292 -868 l293 -860 201 -3 201 -2 16 42
c18 50 576 1691 576 1696 0 1 -84 1 -187 0 l-188 -3 -162 -510 c-153 -478
-243 -790 -243 -842 0 -57 -18 -11 -53 135 -21 86 -113 396 -206 687 l-168
530 -186 3 c-103 1 -187 -1 -186 -5z"/>
<path d="M12444 35473 l-50 -138 -100 -61 -99 -61 -3 -76 -3 -76 88 -3 88 -3
5 -395 c6 -433 8 -449 70 -542 59 -89 150 -128 315 -136 114 -4 212 6 303 33
l52 16 0 140 c0 130 -1 141 -17 134 -44 -16 -143 -35 -191 -35 -62 0 -108 17
-142 55 l-25 27 -3 354 -3 354 186 0 185 0 0 135 0 135 -185 0 -185 0 0 140 0
140 -118 0 -117 0 -51 -137z"/>
<path d="M6335 35349 c-86 -11 -221 -49 -298 -83 l-57 -26 62 -125 c48 -96 66
-124 78 -119 70 31 210 74 275 84 186 28 277 -30 292 -185 6 -64 5 -65 -18
-65 -119 -1 -380 -22 -444 -35 -89 -18 -203 -67 -253 -109 -92 -78 -132 -236
-101 -402 24 -129 104 -230 217 -276 50 -19 75 -22 197 -23 112 0 151 4 195
19 72 25 150 77 200 133 l40 45 18 -43 c10 -24 27 -65 37 -91 l18 -48 128 0
129 0 0 453 c0 248 -5 486 -10 527 -24 187 -138 308 -332 355 -79 19 -280 27
-373 14z m349 -819 c-2 -179 -100 -283 -269 -284 -106 0 -166 41 -180 123 -17
100 45 187 159 223 35 11 190 26 251 24 l40 -1 -1 -85z"/>
<path d="M9652 35350 c-137 -19 -360 -94 -350 -118 1 -5 28 -61 58 -126 42
-88 59 -115 70 -110 70 30 219 75 280 85 181 28 277 -32 288 -180 l4 -68 -83
-6 c-46 -4 -115 -7 -154 -7 -159 0 -331 -41 -433 -103 -120 -72 -175 -213
-152 -390 20 -158 75 -244 196 -304 71 -34 82 -37 187 -41 197 -7 294 26 413
140 l61 59 34 -91 33 -90 128 0 128 0 0 478 c0 521 -4 567 -57 663 -49 91
-148 160 -278 194 -71 19 -285 27 -373 15z m348 -808 c0 -137 -44 -218 -147
-269 -70 -34 -177 -38 -231 -9 -70 37 -95 142 -52 226 44 87 146 120 388 129
l42 1 0 -78z"/>
<path d="M8035 35336 c-96 -30 -189 -100 -246 -182 -16 -24 -33 -44 -38 -44
-4 0 -19 48 -33 108 l-25 107 -136 3 -137 3 0 -666 0 -665 180 0 179 0 3 388
c3 371 4 389 24 433 31 67 87 124 152 156 52 26 66 28 175 28 110 0 118 1 122
20 9 46 26 306 20 315 -9 14 -192 11 -240 -4z"/>
<path d="M11323 35335 c-80 -22 -151 -62 -199 -112 -24 -24 -44 -49 -44 -54 0
-5 -6 -9 -13 -9 -7 0 -22 35 -36 85 l-23 85 -139 0 -139 0 0 -665 0 -665 180
0 180 0 0 343 c1 347 8 455 36 539 38 115 123 178 242 178 100 0 159 -37 199
-125 16 -36 18 -82 21 -487 l3 -448 180 0 180 0 -3 513 c-3 503 -4 513 -26
572 -44 116 -119 193 -231 236 -73 29 -287 37 -368 14z"/>
<path d="M13753 35335 c-139 -30 -276 -126 -347 -244 -128 -210 -139 -585 -24
-804 50 -96 149 -190 250 -236 128 -59 168 -66 383 -65 201 1 271 12 388 63
l47 20 0 141 c0 77 -2 140 -4 140 -2 0 -44 -15 -92 -34 -110 -42 -231 -66
-338 -66 -114 0 -173 20 -239 80 -60 55 -92 116 -103 198 l-7 52 427 0 426 0
0 143 c0 84 -6 169 -15 209 -44 209 -193 359 -400 403 -86 18 -268 18 -352 0z
m294 -270 c78 -39 133 -126 133 -211 l0 -34 -251 0 -252 0 7 41 c16 99 74 181
150 215 54 23 155 18 213 -11z"/>
<path d="M8520 34665 l0 -665 180 0 180 0 0 665 0 665 -180 0 -180 0 0 -665z"/>
<path d="M75150 33094 c-880 -80 -1610 -609 -1925 -1394 -215 -536 -208 -1141
20 -1675 168 -392 447 -726 810 -967 684 -455 1571 -508 2309 -137 653 328
1098 944 1202 1664 23 159 23 458 0 610 -75 492 -292 916 -647 1262 -178 174
-348 292 -584 408 -222 109 -433 175 -675 210 -103 15 -421 27 -510 19z m420
-154 c729 -88 1350 -526 1666 -1175 402 -824 193 -1817 -509 -2421 -636 -547
-1512 -676 -2277 -335 -442 197 -821 563 -1030 996 -198 408 -253 841 -165
1280 154 763 753 1392 1519 1595 96 25 229 51 331 63 68 9 387 6 465 -3z"/>
<path d="M75964 31830 c-243 -36 -400 -185 -474 -451 -36 -131 -51 -273 -51
-479 0 -395 66 -625 226 -786 116 -116 229 -158 430 -157 195 0 319 46 430
158 95 95 154 227 192 425 14 76 17 147 17 355 0 232 -2 271 -23 364 -72 336
-232 521 -488 566 -84 15 -177 17 -259 5z m221 -334 c116 -68 159 -231 159
-601 0 -453 -71 -625 -259 -625 -67 0 -99 15 -147 68 -81 89 -103 211 -103
562 0 282 11 378 56 480 24 53 72 107 114 126 50 22 132 18 180 -10z"/>
<path d="M74300 31579 c-162 -127 -294 -237 -294 -244 2 -15 173 -225 184
-225 11 0 199 148 280 220 l65 58 -3 -704 -4 -704 201 0 201 0 0 915 0 915
-167 0 -168 0 -295 -231z"/>
<path d="M990 32723 c1 -196 10 -367 26 -451 l7 -36 -58 62 c-101 110 -248
157 -412 133 -204 -29 -335 -157 -403 -391 -34 -115 -40 -397 -11 -535 52
-254 194 -408 405 -438 163 -24 311 25 409 134 l55 60 33 -85 34 -86 143 0
142 0 0 920 0 920 -185 0 -185 0 0 -207z m-145 -599 c109 -38 161 -139 172
-334 14 -261 -54 -400 -209 -431 -172 -34 -288 66 -318 277 -16 109 -3 249 30
338 26 69 92 140 142 155 52 15 130 13 183 -5z"/>
<path d="M3170 32010 l0 -920 180 0 180 0 0 920 0 920 -180 0 -180 0 0 -920z"/>
<path d="M3910 32010 l0 -920 180 0 180 0 0 920 0 920 -180 0 -180 0 0 -920z"/>
<path d="M12696 32920 c-71 -23 -116 -112 -101 -202 17 -103 77 -142 210 -137
90 4 118 17 159 73 17 22 21 42 21 99 0 125 -45 169 -180 174 -44 1 -93 -2
-109 -7z"/>
<path d="M6780 31955 l0 -865 185 0 185 0 0 330 0 330 98 0 97 0 205 -330 205
-330 207 0 207 0 -101 148 c-200 293 -398 592 -398 599 0 5 26 22 58 38 70 37
158 123 194 191 94 175 70 438 -52 578 -41 46 -117 94 -198 123 -117 43 -229
53 -574 53 l-318 0 0 -865z m692 536 c117 -45 165 -157 122 -284 -20 -59 -79
-112 -149 -133 -27 -8 -105 -18 -172 -21 l-123 -6 0 238 0 238 133 -5 c103 -4
144 -10 189 -27z"/>
<path d="M125690 31790 l0 -921 142 3 141 3 28 65 c15 35 32 66 37 68 6 2 27
-15 48 -37 84 -94 264 -147 416 -123 199 30 336 167 401 401 18 66 21 103 21
281 0 178 -3 215 -21 281 -66 238 -198 371 -397 400 -162 24 -311 -24 -408
-130 l-53 -59 3 344 4 344 -181 0 -181 0 0 -920z m687 125 c64 -19 122 -79
153 -161 32 -81 40 -286 16 -389 -38 -161 -139 -249 -265 -230 -136 20 -200
108 -222 303 -18 159 4 316 55 393 31 47 63 69 124 85 62 17 79 17 139 -1z"/>
<path d="M128730 31790 l0 -920 185 0 185 0 0 920 0 920 -185 0 -185 0 0 -920z"/>
<path d="M129542 32691 c-52 -25 -82 -81 -82 -156 0 -126 67 -180 215 -173 66
2 90 8 112 24 47 35 66 78 66 149 0 71 -19 114 -65 148 -42 31 -187 35 -246 8z"/>
<path d="M113020 32618 c-92 -11 -221 -54 -298 -99 -31 -19 -94 -71 -139 -115
-69 -70 -89 -97 -132 -185 -75 -155 -92 -231 -98 -437 -8 -262 20 -422 105
-587 52 -100 173 -220 272 -268 131 -64 210 -80 405 -80 179 0 260 11 395 56
l65 22 3 157 2 156 -74 -24 c-146 -46 -272 -66 -388 -62 -95 4 -113 8 -171 36
-162 80 -238 248 -240 532 -1 224 44 370 148 479 72 75 151 112 252 119 95 6
174 -10 308 -64 60 -24 112 -41 116 -36 6 6 28 57 116 278 6 15 -118 66 -222
93 -154 39 -278 47 -425 29z"/>
<path d="M120150 31736 l0 -866 185 0 185 0 0 304 0 303 163 6 c196 7 275 24
387 78 132 66 211 157 257 298 23 73 28 272 9 354 -44 188 -152 297 -356 358
-71 21 -96 23 -452 27 l-378 3 0 -865z m664 550 c62 -19 111 -57 138 -109 32
-59 32 -194 1 -252 -54 -101 -175 -150 -353 -143 l-75 3 -3 258 -2 257 123 0
c78 0 141 -5 171 -14z"/>
<path d="M2190 32433 c-157 -20 -271 -74 -362 -172 -121 -128 -171 -281 -171
-521 1 -160 18 -251 69 -353 121 -249 395 -361 774 -317 99 11 182 32 251 61
l49 21 0 144 0 143 -53 -24 c-213 -94 -464 -109 -580 -35 -74 47 -128 135
-142 233 l-7 47 432 0 433 0 -6 153 c-8 173 -22 241 -72 343 -62 127 -182 221
-328 258 -62 16 -229 27 -287 19z m200 -279 c74 -31 134 -120 142 -209 l3 -40
-254 -3 -254 -2 7 42 c30 186 190 281 356 212z"/>
<path d="M5015 32430 c-102 -16 -325 -91 -325 -109 0 -18 115 -241 125 -241 6
0 40 11 74 25 190 78 369 84 445 17 32 -29 56 -93 56 -153 l0 -56 -171 -7
c-368 -15 -530 -76 -609 -230 -31 -61 -35 -77 -38 -168 -7 -158 20 -247 100
-334 87 -95 250 -133 438 -103 95 15 179 58 252 128 43 42 64 57 70 48 4 -6
20 -45 35 -84 l28 -73 127 0 128 0 0 481 c0 548 -3 576 -71 678 -49 73 -121
124 -225 158 -68 22 -101 26 -229 29 -82 1 -177 -1 -210 -6z m373 -828 c-3
-84 -7 -104 -31 -144 -49 -84 -131 -128 -239 -128 -68 0 -113 16 -147 54 -50
54 -36 182 26 238 53 48 161 75 312 77 l83 1 -4 -98z"/>
<path d="M8802 32430 c-256 -36 -432 -191 -499 -440 -26 -93 -25 -378 0 -470
64 -229 210 -378 428 -437 88 -24 299 -23 389 1 214 58 357 204 417 426 14 51
18 103 18 245 -1 168 -3 185 -28 260 -70 210 -220 353 -418 400 -82 19 -227
26 -307 15z m229 -307 c52 -20 111 -89 134 -155 23 -68 32 -284 16 -369 -26
-130 -83 -207 -174 -234 -60 -18 -89 -19 -158 -4 -69 15 -137 80 -170 164 -21
54 -23 76 -24 220 0 185 14 247 72 315 73 85 189 109 304 63z"/>
<path d="M10200 32429 c-199 -25 -332 -116 -391 -266 -20 -49 -23 -76 -23
-178 0 -101 3 -129 23 -177 25 -65 101 -154 154 -183 l35 -18 -59 -43 c-72
-54 -99 -102 -99 -179 0 -70 25 -121 82 -169 34 -28 39 -36 23 -36 -28 0 -121
-45 -164 -79 -113 -90 -135 -286 -46 -416 99 -145 360 -211 690 -175 278 31
458 128 538 289 31 63 32 70 32 191 0 106 -3 132 -21 171 -32 68 -79 116 -148
148 -86 41 -154 51 -356 51 -98 0 -202 5 -231 10 -100 19 -134 69 -85 127 l26
31 152 4 c127 4 166 9 229 30 142 46 234 128 280 246 33 83 33 247 1 316 -12
27 -21 50 -19 52 1 1 45 13 97 26 l95 24 3 92 3 92 -223 0 c-139 0 -264 6
-333 15 -120 16 -167 17 -265 4z m221 -235 c71 -36 103 -114 97 -234 -7 -138
-61 -202 -178 -208 -141 -8 -213 73 -211 239 1 111 54 198 129 215 15 3 32 7
37 9 18 7 99 -7 126 -21z m180 -1146 c53 -23 79 -62 79 -116 0 -42 -4 -50 -49
-93 -69 -66 -145 -90 -312 -96 -146 -6 -218 9 -273 58 -93 81 -54 203 80 254
56 21 423 16 475 -7z"/>
<path d="M11580 32430 c-120 -15 -191 -41 -277 -102 -143 -103 -194 -355 -109
-543 29 -64 67 -108 128 -150 l49 -33 -33 -20 c-46 -29 -105 -91 -117 -125
-30 -80 2 -189 70 -236 38 -25 48 -41 29 -41 -32 0 -126 -48 -168 -85 -72 -65
-95 -120 -96 -226 0 -73 4 -93 27 -141 68 -138 226 -212 482 -225 293 -14 555
53 683 176 65 63 99 124 118 212 38 176 -17 332 -142 405 -86 50 -123 56 -384
64 -261 7 -306 15 -330 60 -13 24 -7 48 21 84 20 25 23 26 144 26 215 0 351
45 456 149 82 82 103 143 104 291 0 100 -3 121 -22 159 -13 25 -22 46 -20 47
1 1 45 13 97 26 l95 24 3 92 3 92 -223 0 c-123 0 -248 4 -280 9 -89 15 -237
20 -308 11z m210 -235 c70 -37 104 -109 103 -220 -1 -146 -69 -225 -193 -225
-65 0 -108 18 -147 63 -37 43 -53 91 -53 165 0 121 45 200 128 227 51 16 120
12 162 -10z m191 -1151 c105 -49 98 -173 -14 -238 -79 -46 -192 -68 -331 -64
-107 3 -128 6 -171 29 -64 32 -95 77 -95 137 0 41 4 50 49 93 28 27 64 51 87
57 23 6 119 10 234 9 174 -2 200 -5 241 -23z"/>
<path d="M13735 32433 c-114 -16 -345 -91 -345 -113 0 -9 107 -230 115 -238 2
-2 43 10 92 27 283 103 448 75 483 -81 7 -29 10 -66 8 -83 -3 -30 -4 -30 -68
-32 -478 -17 -659 -85 -731 -272 -31 -79 -32 -250 -2 -333 42 -113 115 -186
227 -225 39 -14 80 -18 171 -17 186 1 278 35 382 141 29 29 54 53 56 53 2 0
19 -38 36 -85 l33 -85 129 0 129 0 0 463 c0 264 -5 490 -10 527 -29 185 -157
305 -364 345 -72 14 -265 18 -341 8z m353 -825 c-6 -104 -24 -152 -80 -205
-52 -50 -112 -73 -193 -73 -121 0 -178 50 -177 155 1 96 58 162 166 189 76 20
100 23 205 25 l84 1 -5 -92z"/>
<path d="M12610 31750 l0 -660 180 0 180 0 0 660 0 660 -180 0 -180 0 0 -660z"/>
<path d="M116190 32206 c-30 -6 -77 -22 -103 -35 -59 -29 -156 -117 -182 -165
-11 -20 -24 -35 -29 -33 -5 2 -21 51 -34 110 l-25 107 -139 0 -138 0 0 -660 0
-660 180 0 180 0 0 350 c0 215 4 369 11 402 22 106 93 189 198 230 44 17 78
22 162 22 l107 1 6 70 c3 39 9 113 12 166 l7 96 -48 6 c-64 9 -99 8 -165 -7z"/>
<path d="M118385 32209 c-71 -10 -176 -41 -260 -76 -33 -14 -61 -26 -63 -28
-6 -5 118 -245 126 -245 5 0 37 11 71 25 34 14 99 34 144 45 232 56 357 -7
357 -180 l0 -60 -92 0 c-51 0 -146 -5 -211 -11 -270 -23 -420 -97 -486 -238
-23 -51 -26 -68 -26 -176 0 -174 40 -275 137 -345 81 -59 139 -74 283 -74 189
1 258 27 377 142 65 63 53 69 101 -53 l23 -60 127 -3 127 -3 0 493 c0 534 -1
548 -56 648 -76 140 -248 211 -501 209 -65 -1 -145 -5 -178 -10z m375 -817 c0
-77 -4 -96 -27 -143 -48 -94 -129 -139 -248 -139 -114 0 -170 51 -170 154 0
145 111 211 363 215 l82 1 0 -88z"/>
<path d="M122035 32214 c-127 -20 -345 -93 -345 -115 0 -8 107 -228 115 -237
2 -2 57 15 124 38 206 70 350 66 415 -11 30 -35 46 -87 46 -150 l0 -46 -177
-7 c-430 -16 -607 -112 -643 -349 -14 -90 1 -210 36 -288 31 -67 103 -141 167
-169 65 -29 171 -43 261 -36 155 12 239 48 334 143 29 29 55 53 56 53 2 0 18
-38 36 -85 l33 -85 128 0 129 0 0 474 c0 276 -4 495 -10 526 -21 113 -84 210
-172 266 -21 13 -73 36 -115 50 -69 24 -96 27 -233 30 -85 1 -168 0 -185 -2z
m355 -805 c0 -100 -16 -151 -63 -205 -55 -63 -123 -94 -206 -94 -120 0 -181
51 -181 149 0 102 55 167 164 195 82 21 97 23 199 25 l87 1 0 -71z"/>
<path d="M123770 32206 c-30 -6 -77 -22 -103 -35 -59 -29 -156 -117 -182 -165
-11 -20 -24 -35 -29 -33 -5 2 -21 51 -34 110 l-25 107 -139 0 -138 0 0 -660 0
-660 180 0 180 0 0 350 c0 215 4 369 11 402 22 106 93 189 198 230 44 17 78
22 162 22 l107 1 6 70 c3 39 9 113 12 166 l7 96 -48 6 c-64 9 -99 8 -165 -7z"/>
<path d="M124610 32213 c-89 -14 -187 -40 -262 -70 -49 -19 -88 -38 -88 -41 0
-19 115 -242 125 -242 7 0 34 9 59 21 75 33 233 69 303 69 65 0 122 -17 157
-48 32 -29 56 -93 56 -153 l0 -56 -167 -6 c-406 -16 -580 -95 -638 -291 -19
-63 -19 -215 -1 -284 54 -200 234 -297 493 -264 127 16 202 51 285 131 43 42
64 57 70 48 4 -6 20 -45 35 -84 l28 -73 127 0 128 0 0 481 c0 545 -3 574 -69
676 -86 133 -245 194 -493 192 -68 -1 -134 -3 -148 -6z m348 -831 c-3 -84 -7
-104 -30 -143 -49 -84 -133 -129 -240 -129 -68 0 -113 16 -148 55 -22 23 -25
36 -25 99 0 65 3 77 29 110 52 69 158 103 330 105 l88 1 -4 -98z"/>
<path d="M127672 32210 c-351 -49 -540 -315 -519 -729 7 -140 24 -209 79 -321
71 -146 200 -250 368 -296 89 -25 299 -25 390 0 220 59 365 212 421 442 30
123 30 334 0 447 -62 234 -207 385 -426 442 -75 19 -230 27 -313 15z m246
-311 c80 -39 125 -127 142 -279 12 -109 -1 -244 -31 -326 -29 -77 -83 -129
-155 -150 -148 -43 -284 31 -330 179 -8 29 -18 102 -21 163 -15 305 88 457
297 438 30 -3 74 -14 98 -25z"/>
<path d="M130657 32209 c-252 -35 -418 -178 -489 -424 -20 -71 -23 -101 -23
-265 1 -209 12 -276 70 -396 63 -130 177 -219 335 -261 48 -13 105 -17 215
-17 167 0 228 10 328 56 l67 31 0 158 0 159 -47 -29 c-134 -82 -345 -112 -446
-63 -57 29 -100 79 -129 152 -20 48 -22 74 -22 215 -1 145 1 165 23 219 70
176 211 221 445 142 60 -20 111 -35 113 -33 6 6 103 260 103 270 0 13 -88 47
-174 67 -95 23 -275 32 -369 19z"/>
<path d="M131808 32205 c-88 -15 -192 -47 -260 -82 l-48 -23 60 -120 c33 -66
64 -120 68 -120 4 0 41 13 82 29 170 65 338 79 412 33 50 -31 78 -87 81 -163
l2 -64 -70 -2 c-170 -6 -357 -24 -429 -43 -154 -39 -265 -125 -303 -233 -25
-71 -25 -251 0 -323 39 -114 104 -182 216 -226 47 -19 75 -22 181 -22 190 0
260 26 378 138 34 32 63 57 65 55 2 -2 17 -40 34 -84 l30 -80 133 -3 132 -3
-4 498 c-5 541 -5 549 -65 650 -54 92 -166 161 -307 188 -94 18 -281 18 -388
0z m399 -814 c-6 -100 -21 -142 -67 -195 -50 -57 -102 -79 -195 -83 -133 -7
-190 39 -190 151 0 147 111 211 369 215 l89 1 -6 -89z"/>
<path d="M113942 31678 c3 -502 4 -514 26 -573 44 -119 135 -204 257 -241 80
-24 218 -28 305 -10 105 22 176 60 242 128 l57 59 21 -73 c12 -40 23 -79 25
-85 3 -10 41 -13 145 -13 l140 0 0 660 0 660 -180 0 -180 0 0 -314 c0 -471
-18 -585 -104 -672 -90 -91 -245 -98 -327 -15 -66 66 -69 88 -69 573 l0 428
-180 0 -181 0 3 -512z"/>
<path d="M116704 31530 l251 -660 190 2 190 3 247 650 c136 358 248 653 248
658 0 4 -85 7 -189 7 l-190 0 -135 -407 c-121 -368 -164 -517 -167 -585 0 -13
-11 28 -24 91 -14 68 -77 273 -157 507 l-133 394 -191 0 -191 0 251 -660z"/>
<path d="M129480 31530 l0 -660 180 0 180 0 0 660 0 660 -180 0 -180 0 0 -660z"/>
<path d="M62830 31789 c-289 -126 -530 -229 -537 -229 -6 0 -253 101 -548 224
-363 152 -534 219 -530 208 3 -10 250 -585 548 -1279 321 -747 545 -1256 549
-1249 6 10 1021 2458 1055 2544 3 6 1 12 -3 11 -5 -1 -245 -104 -534 -230z"/>
<path d="M113515 30540 c-776 -7 -878 -11 -1115 -46 -439 -64 -850 -230 -1135
-459 -275 -220 -474 -528 -562 -869 l-26 -101 4 -980 c2 -539 4 -1068 4 -1175
l0 -195 -637 -5 c-623 -5 -637 -5 -664 -26 -46 -33 -67 -70 -72 -123 -6 -65
25 -131 76 -163 l37 -23 1415 0 c1409 0 1415 0 1450 21 19 11 45 36 58 55 20
29 23 44 20 99 -4 76 -28 118 -82 144 -30 14 -102 16 -644 16 l-609 0 -7 368
c-3 202 -7 723 -8 1157 l-2 790 28 90 c183 600 719 966 1551 1060 286 32 1946
37 11540 31 8378 -4 9232 -4 9262 11 65 31 103 119 83 194 -14 52 -63 106
-108 119 -44 13 -18604 22 -19857 10z"/>
<path d="M114807 29790 c-91 -16 -127 -56 -134 -154 -5 -53 -2 -72 16 -109 31
-63 72 -82 181 -82 99 0 141 18 171 75 24 45 26 148 3 196 -29 61 -129 92
-237 74z"/>
<path d="M116680 28875 l0 -925 180 0 180 0 0 364 c0 402 7 477 57 568 49 90
147 137 256 125 97 -12 154 -75 177 -196 6 -31 10 -226 10 -457 l0 -404 180 0
180 0 0 473 c0 514 -4 555 -56 662 -31 63 -100 132 -164 165 -87 44 -252 62
-371 40 -87 -16 -172 -64 -228 -127 -28 -31 -52 -55 -54 -52 -2 2 0 51 4 109
4 58 7 212 8 343 l1 237 -180 0 -180 0 0 -925z"/>
<path d="M119710 28875 l0 -925 180 0 180 0 0 925 0 925 -180 0 -180 0 0 -925z"/>
<path d="M124200 28875 l0 -925 180 0 180 0 0 925 0 925 -180 0 -180 0 0 -925z"/>
<path d="M124940 28875 l0 -925 139 0 139 0 28 70 c15 39 31 70 37 70 5 0 32
-21 61 -47 28 -25 80 -60 116 -77 63 -30 69 -31 205 -31 137 0 142 1 208 32
186 88 288 282 304 579 14 273 -50 498 -179 631 -170 174 -510 162 -664 -24
l-40 -49 4 348 5 348 -182 0 -181 0 0 -925z m705 116 c47 -21 101 -79 126
-135 64 -147 44 -442 -38 -548 -49 -63 -97 -88 -173 -88 -180 1 -260 127 -260
410 0 215 57 334 178 370 47 14 125 10 167 -9z"/>
<path d="M72869 28333 c-152 -747 -276 -1359 -275 -1360 0 0 526 337 1168 750
642 413 1166 752 1164 754 -1 2 -248 52 -548 112 -299 61 -556 113 -571 116
-21 6 -84 98 -339 496 -172 269 -315 489 -318 489 -3 0 -129 -611 -281 -1357z"/>
<path d="M112420 28820 l0 -870 166 0 166 0 -6 613 c-4 336 -9 644 -12 682 -3
42 -1 64 4 55 5 -8 101 -315 213 -682 l203 -668 171 0 170 0 219 668 c120 367
223 674 228 682 5 9 7 -15 4 -65 -3 -44 -9 -351 -12 -682 l-7 -603 177 0 176
0 0 870 0 870 -253 0 -252 0 -214 -652 c-117 -359 -216 -659 -220 -666 -4 -7
-99 286 -212 650 l-204 663 -253 3 -252 2 0 -870z"/>
<path d="M122935 29678 c-20 -53 -605 -1723 -605 -1725 0 -2 89 -3 199 -3
l199 0 25 83 c14 45 42 137 63 205 l37 122 315 -2 315 -3 61 -200 61 -200 198
-3 c154 -2 197 0 196 10 0 7 -136 398 -302 868 l-302 855 -228 3 c-177 2 -229
0 -232 -10z m245 -303 c0 -7 47 -166 105 -354 58 -187 105 -343 105 -346 0 -3
-99 -5 -220 -5 -121 0 -220 3 -220 7 0 3 38 130 84 282 46 152 94 313 106 358
13 45 27 80 31 77 5 -3 9 -11 9 -19z"/>
<path d="M130681 29538 c-4 -13 -28 -76 -52 -141 l-44 -118 -97 -57 -98 -57 0
-77 0 -78 85 0 85 0 0 -362 c0 -388 7 -453 51 -546 31 -63 90 -117 157 -143
46 -18 83 -24 191 -27 134 -4 211 5 304 34 l47 16 0 138 0 138 -72 -19 c-104
-27 -205 -25 -249 4 -68 45 -69 53 -67 427 l3 335 183 3 182 2 0 135 0 135
-185 0 -185 0 0 140 0 140 -115 0 c-111 0 -116 -1 -124 -22z"/>
<path d="M115865 29294 c-179 -29 -314 -108 -398 -231 -85 -124 -117 -252
-117 -468 0 -374 140 -587 425 -650 59 -13 111 -16 238 -13 143 4 170 7 235
30 129 47 122 34 122 213 l0 154 -77 -39 c-100 -51 -176 -70 -283 -70 -105 0
-149 19 -207 84 -65 74 -78 124 -78 306 0 124 4 165 18 207 25 72 68 127 124
160 44 26 56 28 143 27 83 -1 108 -5 195 -37 55 -19 101 -35 101 -34 5 5 104
270 104 277 0 9 -90 43 -175 65 -60 16 -310 28 -370 19z"/>
<path d="M118655 29285 c-156 -32 -303 -139 -372 -270 -90 -171 -115 -433 -62
-641 50 -199 186 -345 383 -411 77 -26 90 -27 286 -28 216 0 253 5 383 53 l67
24 0 145 c0 112 -3 144 -12 140 -159 -70 -276 -97 -417 -97 -76 0 -113 5 -155
20 -61 23 -126 80 -154 137 -23 44 -46 148 -37 163 4 6 155 10 432 10 l426 0
-7 148 c-3 81 -13 176 -21 211 -46 194 -171 326 -365 386 -77 23 -284 29 -375
10z m258 -261 c29 -10 61 -32 87 -60 45 -49 58 -76 69 -146 l8 -48 -254 0
-255 0 7 41 c30 177 175 269 338 213z"/>
<path d="M120875 29294 c-241 -38 -410 -194 -477 -443 -29 -106 -31 -364 -4
-465 51 -191 148 -314 310 -391 107 -50 191 -65 368 -65 172 0 293 20 391 63
l57 26 0 142 c0 109 -3 140 -12 136 -172 -76 -288 -101 -441 -95 -101 3 -117
6 -165 33 -30 16 -65 43 -79 60 -38 43 -73 126 -80 184 l-6 51 427 0 426 0 0
143 c0 110 -5 162 -20 221 -50 195 -171 324 -360 381 -55 16 -271 29 -335 19z
m200 -265 c87 -22 160 -111 172 -210 l6 -49 -252 0 c-285 0 -264 -8 -236 87
42 142 163 209 310 172z"/>
<path d="M126915 29293 c-247 -34 -424 -191 -492 -433 -25 -93 -26 -387 0
-480 64 -231 221 -386 443 -436 114 -25 322 -16 422 19 185 64 312 208 369
417 25 93 25 368 0 460 -67 244 -225 397 -459 444 -71 15 -210 19 -283 9z
m247 -311 c55 -27 92 -73 121 -150 29 -78 32 -336 4 -424 -23 -74 -71 -137
-127 -165 -54 -28 -170 -32 -228 -7 -109 45 -162 166 -163 370 -2 238 53 350
191 395 46 15 152 5 202 -19z"/>
<path d="M128610 29286 c-100 -28 -198 -101 -263 -195 -36 -52 -36 -52 -67 87
l-23 102 -139 0 -138 0 0 -665 0 -665 180 0 180 0 0 343 c0 449 7 488 111 581
71 64 157 90 280 84 l89 -4 1 25 c0 14 6 90 12 168 12 139 12 142 -8 147 -36
10 -169 5 -215 -8z"/>
<path d="M129465 29284 c-218 -48 -374 -200 -430 -419 -42 -162 -38 -396 9
-535 62 -182 187 -306 370 -367 77 -26 90 -27 286 -28 216 0 253 5 383 53 l67
24 0 145 c0 112 -3 144 -12 140 -159 -70 -276 -97 -417 -97 -77 0 -113 5 -155
21 -103 38 -181 147 -188 261 l-3 43 429 3 429 2 -6 148 c-9 222 -44 335 -137
444 -54 62 -131 112 -226 144 -101 34 -289 43 -399 18z m257 -260 c85 -29 142
-106 162 -221 l6 -33 -255 0 c-204 0 -255 3 -255 13 0 32 34 125 58 158 64 89
174 121 284 83z"/>
<path d="M132015 29293 c-273 -38 -456 -218 -505 -499 -19 -109 -9 -350 20
-439 68 -216 216 -357 430 -411 95 -24 330 -15 420 16 143 49 260 150 324 282
59 121 71 181 71 368 0 126 -4 180 -18 230 -64 236 -230 398 -459 444 -71 15
-210 19 -283 9z m248 -312 c94 -46 137 -144 144 -331 8 -208 -30 -327 -125
-395 -37 -25 -54 -30 -119 -34 -91 -4 -141 9 -189 51 -73 64 -107 175 -107
349 0 270 91 393 283 386 44 -2 81 -10 113 -26z"/>
<path d="M114690 28615 l0 -665 180 0 180 0 0 665 0 665 -180 0 -180 0 0 -665z"/>
<path d="M26384 11406 c-76 -33 -113 -135 -80 -220 19 -50 96 -114 381 -318
356 -255 910 -605 1153 -727 23 -12 42 -26 42 -32 0 -17 -1006 -1892 -1078
-2009 -35 -58 -107 -168 -159 -245 -551 -813 -1140 -1325 -1621 -1411 -70 -12
-233 -17 -812 -24 -1006 -13 -8205 -12 -12901 1 -3546 9 -3910 9 -3944 -5 -30
-13 -81 -16 -269 -16 -270 0 -287 -4 -320 -82 -33 -80 4 -166 82 -188 20 -5
137 -10 258 -10 171 0 230 -3 256 -14 30 -13 646 -17 4499 -27 4839 -12 12674
-7 12979 9 205 11 295 27 448 78 518 172 1109 716 1644 1514 164 245 207 321
738 1315 277 517 506 944 510 948 4 4 74 -23 156 -61 414 -193 886 -369 1324
-497 240 -70 341 -95 381 -95 47 0 111 34 133 71 65 109 19 231 -98 263 -699
193 -1174 366 -1689 614 -538 260 -1238 695 -1742 1082 -55 42 -110 82 -122
88 -29 16 -111 14 -149 -2z"/>
<path d="M50081 11133 c-35 -18 -70 -77 -71 -121 0 -58 27 -87 247 -267 l219
-178 -16 -75 -15 -75 -5410 -2849 c-2975 -1567 -5539 -2914 -5697 -2993 -341
-172 -435 -225 -628 -356 -917 -620 -1376 -1391 -1313 -2206 44 -568 278 -998
728 -1338 464 -351 1205 -584 2055 -645 112 -8 3524 -12 12435 -13 l12280 -2
37 23 c51 32 82 98 76 163 -6 56 -28 93 -78 127 l-33 22 -6246 0 c-3435 0
-8964 3 -12286 6 -5229 4 -6064 7 -6220 20 -1047 86 -1817 423 -2173 949 -246
365 -308 868 -161 1319 143 438 504 876 1034 1250 162 115 345 221 607 352
173 87 10644 5593 11079 5827 l75 40 60 -29 c54 -26 68 -29 164 -29 92 0 112
3 160 26 49 23 58 24 85 12 33 -14 84 -9 127 13 68 35 79 149 21 215 -9 11
-15 47 -16 110 -2 79 -7 104 -31 156 -34 74 -113 154 -183 185 -65 29 -212 37
-277 15 l-46 -16 -219 179 c-120 98 -228 183 -239 189 -30 16 -92 13 -131 -6z"/>
<path d="M52029 9555 c-41 -22 -63 -73 -57 -133 3 -28 11 -59 19 -68 33 -40
627 -494 913 -698 141 -100 152 -106 198 -106 58 0 98 19 123 57 23 34 25 107
4 145 -8 14 -90 81 -182 147 -202 146 -385 283 -647 486 -107 83 -206 159
-220 168 -30 21 -114 22 -151 2z"/>
<path d="M16721 8691 c-80 -21 -115 -73 -116 -171 0 -123 56 -175 190 -175
141 0 199 51 199 175 0 77 -22 124 -71 153 -36 21 -150 31 -202 18z"/>
<path d="M7865 8603 c-186 -29 -366 -129 -470 -261 -60 -75 -129 -217 -154
-317 -46 -184 -47 -443 -1 -632 56 -234 176 -397 355 -483 118 -57 180 -71
350 -77 170 -6 297 9 434 52 l81 26 0 154 c0 85 -4 155 -8 155 -5 0 -34 -9
-65 -19 -165 -57 -356 -80 -466 -57 -229 48 -336 233 -334 576 1 229 46 364
157 476 134 134 297 146 558 40 96 -39 110 -42 116 -28 3 9 29 76 58 147 29
72 50 133 48 137 -7 11 -162 68 -244 90 -56 15 -114 21 -230 23 -85 2 -168 1
-185 -2z"/>
<path d="M15010 7720 l0 -872 408 4 c378 4 413 6 485 26 281 77 407 241 395
512 -6 122 -29 195 -82 256 -36 43 -129 97 -183 109 -18 3 -33 10 -33 13 0 4
24 16 53 26 70 24 147 103 175 178 46 123 37 282 -21 392 -38 71 -105 125
-200 161 -131 49 -203 56 -614 62 l-383 5 0 -872z m673 560 c129 -19 188 -70
195 -169 3 -44 -2 -66 -20 -101 -43 -83 -140 -113 -353 -108 l-120 3 -3 180
c-1 98 0 185 2 192 7 16 196 18 299 3z m107 -696 c142 -67 175 -241 66 -350
-61 -62 -113 -74 -313 -74 l-163 0 0 226 0 226 183 -4 c159 -3 188 -6 227 -24z"/>
<path d="M57750 8449 c-305 -140 -843 -325 -1103 -379 -71 -14 -113 -48 -128
-103 -14 -54 1 -107 42 -141 26 -22 41 -26 93 -26 155 0 826 218 1198 389 97
44 121 74 121 146 0 114 -105 168 -223 114z"/>
<path d="M13276 8199 c-119 -16 -335 -84 -351 -109 -3 -5 21 -63 55 -129 l60
-120 67 26 c327 125 512 79 513 -128 l0 -56 -67 -6 c-38 -4 -104 -7 -148 -7
-44 0 -124 -7 -177 -15 -304 -46 -428 -165 -428 -414 0 -188 66 -307 210 -374
57 -27 77 -31 175 -35 194 -7 306 30 413 139 l60 60 35 -88 35 -88 126 -3 127
-3 -3 518 -3 518 -24 59 c-49 117 -157 203 -306 241 -75 19 -277 27 -369 14z
m344 -810 c0 -104 -14 -149 -62 -204 -56 -63 -114 -88 -207 -89 -62 -1 -83 3
-112 22 -87 53 -93 189 -13 264 61 57 144 77 362 87 l32 1 0 -81z"/>
<path d="M17760 8200 c-134 -17 -337 -81 -356 -112 -4 -6 19 -64 52 -130 45
-91 62 -117 74 -112 138 60 320 101 399 89 106 -16 157 -73 168 -188 l6 -64
-69 -6 c-38 -4 -107 -7 -154 -7 -47 0 -128 -7 -180 -15 -221 -33 -349 -111
-401 -241 -32 -83 -33 -262 0 -345 64 -165 185 -239 392 -239 179 0 275 35
378 137 35 35 64 62 65 61 2 -2 17 -42 36 -90 l33 -88 129 0 129 0 -3 503 c-3
495 -3 503 -26 566 -52 144 -150 227 -314 266 -77 19 -270 27 -358 15z m334
-826 c0 -82 -3 -97 -31 -145 -83 -149 -319 -186 -400 -63 -21 33 -23 126 -3
164 41 80 122 118 275 130 55 4 114 7 130 6 l30 -1 -1 -91z"/>
<path d="M11035 8191 c-96 -24 -199 -97 -259 -185 -23 -33 -42 -52 -46 -45 -4
6 -18 58 -31 115 l-24 104 -137 0 -138 0 0 -665 0 -665 179 0 180 0 4 383 c2
286 6 391 17 419 25 70 81 131 154 168 67 34 72 35 186 35 l117 0 13 162 c7
88 9 166 6 172 -8 12 -172 14 -221 2z"/>
<path d="M19115 8193 c-165 -22 -301 -112 -344 -227 -26 -69 -29 -197 -6 -273
34 -115 114 -179 352 -284 176 -77 248 -120 268 -160 23 -43 18 -68 -18 -104
-76 -76 -276 -67 -527 24 -46 17 -85 31 -87 31 -2 0 -3 -67 -3 -150 l0 -149
78 -25 c121 -38 225 -49 400 -43 170 6 238 20 332 67 65 33 134 103 161 164
46 104 43 261 -6 362 -46 94 -126 148 -379 255 -178 74 -229 112 -224 167 2
25 11 41 31 56 25 19 42 21 140 20 104 0 119 -3 212 -38 153 -58 133 -66 193
80 29 70 49 131 45 135 -17 17 -146 59 -241 79 -94 19 -283 26 -377 13z"/>
<path d="M20325 8194 c-54 -9 -138 -35 -187 -60 -72 -36 -118 -82 -150 -149
-25 -53 -28 -71 -28 -157 0 -114 21 -182 75 -246 47 -54 122 -99 297 -176 224
-98 290 -151 272 -221 -29 -114 -265 -121 -554 -16 -46 17 -85 31 -87 31 -2 0
-3 -67 -3 -149 l0 -149 38 -15 c100 -40 193 -52 392 -52 157 0 208 4 259 18
224 63 318 191 309 416 -4 112 -27 171 -92 236 -53 52 -119 89 -297 164 -168
71 -223 103 -243 145 -17 36 -9 63 28 91 24 17 42 20 134 20 98 -1 116 -4 212
-39 58 -20 114 -40 125 -42 17 -4 27 11 70 117 28 67 50 126 50 132 0 12 -98
51 -197 77 -65 18 -117 23 -238 25 -85 2 -168 1 -185 -1z"/>
<path d="M21613 8181 c-173 -43 -297 -140 -372 -291 -55 -113 -74 -204 -75
-365 -1 -233 57 -399 183 -525 117 -117 259 -169 459 -170 407 -1 642 252 642
689 0 346 -167 587 -456 661 -100 26 -278 26 -381 1z m316 -297 c93 -47 138
-143 148 -319 11 -202 -36 -351 -131 -409 -57 -36 -149 -46 -224 -25 -62 17
-131 86 -154 154 -44 124 -46 313 -7 442 25 78 83 146 144 168 68 24 163 19
224 -11z"/>
<path d="M23335 8181 c-102 -29 -188 -85 -222 -142 -10 -16 -22 -29 -29 -29
-6 0 -21 38 -34 85 l-23 85 -138 0 -139 0 0 -665 0 -665 179 0 179 0 5 398 c4
419 7 444 55 537 39 77 103 116 203 123 84 6 129 -9 173 -58 59 -65 60 -72 63
-557 l4 -443 179 0 180 0 0 478 c0 528 -4 565 -61 673 -73 137 -203 199 -414
198 -64 0 -122 -7 -160 -18z"/>
<path d="M24751 8190 c-233 -49 -380 -181 -452 -405 -34 -107 -39 -356 -10
-478 48 -202 167 -355 332 -425 118 -51 321 -67 464 -37 159 33 311 145 382
280 62 117 78 199 78 390 0 150 -3 179 -23 245 -68 215 -183 339 -377 406 -69
24 -98 28 -215 30 -74 2 -155 -1 -179 -6z m276 -304 c62 -29 106 -85 131 -165
13 -43 17 -92 17 -211 -1 -134 -4 -163 -22 -214 -46 -121 -121 -176 -243 -176
-119 0 -197 55 -241 170 -41 108 -42 329 -3 449 22 66 85 137 139 156 65 23
161 19 222 -9z"/>
<path d="M8792 7688 c4 -422 7 -501 21 -551 61 -209 203 -307 447 -307 165 0
286 45 371 138 28 30 52 52 55 49 4 -3 16 -41 29 -84 l22 -78 142 -3 141 -3 0
666 0 665 -180 0 -180 0 0 -297 c0 -332 -11 -500 -36 -577 -44 -135 -141 -198
-284 -184 -67 7 -121 44 -151 105 l-24 48 -3 453 -3 452 -185 0 -186 0 4 -492z"/>
<path d="M11323 8147 c7 -19 120 -318 252 -665 l240 -632 188 3 189 2 249 655
c137 360 249 658 249 662 0 5 -85 8 -189 8 l-188 0 -136 -407 c-125 -374 -165
-515 -168 -590 -1 -21 -4 -17 -11 17 -37 177 -64 267 -177 600 l-127 375 -192
3 -191 2 12 -33z"/>
<path d="M16620 7515 l0 -665 180 0 180 0 0 665 0 665 -180 0 -180 0 0 -665z"/>
<path d="M54106 8159 c-57 -45 -73 -126 -36 -187 23 -38 92 -73 275 -140 297
-108 557 -157 950 -177 151 -8 191 2 225 57 42 70 15 175 -53 202 -19 8 -97
16 -187 19 -352 14 -671 84 -968 211 -100 43 -165 48 -206 15z"/>
<path d="M96592 6555 c-1647 -426 -2995 -775 -2997 -777 -2 -2 1325 -432 2947
-956 1622 -525 2951 -952 2953 -950 2 2 -444 404 -991 893 -546 490 -992 893
-991 897 1 3 463 372 1027 818 564 447 1034 821 1045 831 11 11 15 19 10 18
-6 0 -1357 -349 -3003 -774z m2158 301 c0 -2 -351 -271 -780 -597 l-781 -592
-62 1 c-462 12 -2873 86 -2876 88 -2 2 -2 5 0 7 4 3 4474 1094 4492 1096 4 1
7 -1 7 -3z"/>
<path d="M101483 7069 c-39 -11 -80 -59 -88 -102 -3 -18 -4 -590 -3 -1272 3
-1199 4 -1241 22 -1268 42 -62 -212 -57 3156 -57 3368 0 3114 -5 3156 57 18
27 19 69 22 1283 2 1180 1 1257 -15 1289 -10 19 -31 44 -46 55 l-28 21 -3072
2 c-1846 1 -3085 -2 -3104 -8z m2477 -734 l0 -605 605 0 605 0 2 603 3 602
610 0 610 0 3 -602 2 -603 603 -2 602 -3 3 -607 2 -608 -610 0 -610 0 0 605 0
605 -605 0 -605 0 0 -605 0 -605 -610 0 -610 0 0 605 0 605 -605 0 -605 0 0
-605 0 -605 -610 0 -610 0 2 608 3 607 603 3 602 2 0 598 c0 329 3 602 7 605
3 4 278 7 610 7 l603 0 0 -605z"/>
<path d="M60850 2992 c-88 -23 -154 -64 -195 -120 -51 -70 -67 -130 -73 -269
l-4 -122 -99 -47 -99 -47 0 -88 0 -88 98 -3 97 -3 3 -527 2 -528 180 0 180 0
0 530 0 530 155 0 155 0 0 135 0 135 -155 0 -155 0 0 63 c0 80 30 144 80 170
39 21 123 18 217 -6 l51 -14 46 131 c26 72 43 133 38 138 -5 5 -51 18 -103 28
-122 26 -325 26 -419 2z"/>
<path d="M43437 2986 c-74 -28 -97 -65 -97 -163 0 -127 54 -178 190 -178 99 1
146 23 178 85 19 36 23 57 20 107 -4 70 -24 106 -78 137 -42 25 -160 32 -213
12z"/>
<path d="M51083 2693 c3 -170 9 -326 13 -348 l6 -40 -31 40 c-50 62 -126 113
-203 136 -58 18 -88 21 -182 17 -99 -4 -119 -8 -179 -36 -137 -64 -233 -194
-279 -378 -19 -76 -22 -116 -22 -269 0 -153 3 -193 22 -269 68 -269 232 -415
469 -416 148 0 262 45 341 137 25 29 48 53 51 53 3 0 21 -38 40 -85 l34 -85
139 0 138 0 0 925 0 925 -181 0 -181 0 5 -307z m-127 -514 c55 -26 86 -63 116
-136 21 -53 23 -73 23 -233 0 -160 -2 -180 -23 -233 -42 -104 -124 -157 -241
-157 -127 1 -218 87 -250 238 -16 76 -14 241 5 321 24 109 86 189 169 220 43
15 150 5 201 -20z"/>
<path d="M53250 2075 l0 -925 185 0 185 0 0 925 0 925 -185 0 -185 0 0 -925z"/>
<path d="M59867 2985 c-56 -19 -84 -50 -97 -106 -23 -96 10 -187 78 -216 52
-23 176 -23 224 1 68 33 100 122 78 216 -19 81 -84 120 -195 120 -27 -1 -67
-7 -88 -15z"/>
<path d="M61547 2986 c-75 -28 -100 -70 -100 -167 0 -123 57 -174 193 -174 98
0 146 23 178 86 20 37 23 55 19 108 -5 71 -24 105 -77 135 -42 25 -160 32
-213 12z"/>
<path d="M62200 2075 l0 -925 180 0 180 0 0 925 0 925 -180 0 -180 0 0 -925z"/>
<path d="M39011 2883 c0 -5 132 -395 293 -868 l292 -860 203 0 203 0 294 865
c162 476 294 866 294 868 0 1 -84 1 -187 0 l-188 -3 -162 -510 c-151 -470
-243 -792 -243 -844 0 -54 -18 -7 -53 137 -21 86 -113 396 -206 687 l-167 530
-187 3 c-103 1 -187 -1 -186 -5z"/>
<path d="M54660 2021 l0 -871 180 0 180 0 2 333 3 332 96 3 96 3 208 -336 208
-335 204 0 c111 0 203 2 203 5 0 3 -112 172 -250 376 -137 204 -250 372 -250
374 0 2 26 18 57 35 189 107 280 292 252 513 -29 230 -151 353 -410 412 -59
14 -144 18 -426 22 l-353 5 0 -871z m668 544 c61 -18 119 -66 138 -112 21 -50
18 -149 -7 -200 -44 -91 -120 -123 -306 -130 l-133 -6 0 230 c0 126 3 233 8
238 12 12 243 -2 300 -20z"/>
<path d="M47274 2623 l-50 -138 -100 -61 -99 -61 -3 -76 -3 -76 88 -3 88 -3 6
-395 c4 -284 9 -406 18 -435 57 -174 174 -245 404 -245 102 0 186 12 265 36
l52 17 0 139 c0 129 -1 140 -17 133 -10 -4 -47 -13 -83 -21 -134 -29 -213 -12
-257 55 -23 34 -23 37 -23 377 l0 344 185 0 185 0 0 135 0 135 -185 0 -185 0
0 140 0 140 -118 0 -117 0 -51 -137z"/>
<path d="M57784 2622 l-50 -137 -100 -61 -99 -61 -3 -76 -3 -76 88 -3 88 -3 5
-395 c6 -436 9 -454 72 -541 37 -52 49 -62 108 -93 71 -37 155 -50 293 -43
113 6 179 18 250 46 l27 11 0 136 0 136 -22 -6 c-189 -55 -293 -45 -345 33
-23 34 -23 37 -23 377 l0 344 185 0 185 0 0 135 0 135 -185 0 -185 0 0 140 0
140 -117 0 -118 0 -51 -138z"/>
<path d="M58862 2683 c-16 -43 -39 -105 -51 -139 -22 -60 -23 -61 -122 -119
l-99 -60 0 -77 0 -78 85 0 85 0 0 -342 c0 -189 5 -373 10 -410 23 -156 90
-254 206 -298 114 -43 379 -36 497 13 l37 16 0 136 c0 125 -1 136 -17 131
-185 -57 -301 -45 -348 35 -19 32 -20 52 -20 374 l0 340 188 3 187 2 0 135 0
135 -190 0 -190 0 0 140 0 140 -114 0 -114 0 -30 -77z"/>
<path d="M41144 2496 c-95 -15 -197 -45 -277 -81 l-57 -25 61 -122 c34 -68 62
-124 63 -125 1 -1 33 10 72 26 139 56 295 83 371 62 49 -13 97 -51 119 -92 8
-16 18 -59 21 -94 l6 -65 -34 0 c-135 -1 -386 -23 -456 -40 -90 -21 -182 -63
-232 -105 -153 -130 -145 -473 15 -614 69 -60 138 -83 269 -88 185 -8 301 31
407 138 l59 58 18 -42 c10 -23 26 -63 36 -89 l18 -48 128 0 129 0 0 458 c0
251 -5 489 -10 527 -13 92 -67 202 -122 250 -50 42 -121 77 -203 99 -82 23
-298 29 -401 12z m370 -816 c-1 -133 -50 -216 -154 -263 -58 -26 -171 -28
-217 -4 -92 49 -108 175 -33 261 55 62 187 97 355 92 l50 -1 -1 -85z"/>
<path d="M44475 2499 c-38 -5 -103 -18 -143 -29 -73 -20 -202 -74 -202 -84 0
-3 26 -59 58 -123 31 -65 57 -119 57 -120 0 -1 41 13 90 32 307 115 479 72
493 -123 l4 -69 -92 -6 c-51 -4 -123 -7 -159 -7 -131 0 -298 -37 -399 -89
-130 -66 -195 -221 -172 -406 29 -231 164 -345 411 -345 175 0 271 34 379 136
l68 64 33 -90 34 -90 128 0 127 0 0 483 c0 395 -3 494 -15 546 -39 163 -137
257 -320 306 -73 19 -284 27 -380 14z m355 -807 c0 -137 -44 -218 -146 -268
-45 -22 -70 -27 -128 -27 -120 0 -176 47 -176 151 0 152 109 212 403 221 l47
1 0 -78z"/>
<path d="M42865 2486 c-96 -30 -189 -100 -246 -182 -16 -24 -34 -44 -38 -44
-4 0 -19 48 -32 108 l-25 107 -137 3 -137 3 0 -666 0 -665 180 0 180 0 0 368
c0 405 3 432 60 510 66 91 163 134 303 134 45 0 89 -2 97 -4 12 -2 17 23 26
137 7 77 13 155 13 173 l1 32 -102 -1 c-57 0 -121 -6 -143 -13z"/>
<path d="M46153 2485 c-101 -27 -188 -85 -235 -154 -19 -27 -33 -22 -43 16 -3
16 -13 52 -21 81 l-15 52 -140 0 -139 0 0 -665 0 -665 180 0 180 0 0 343 c1
347 8 455 36 539 38 116 123 178 245 178 95 0 145 -28 184 -105 l30 -59 3
-448 3 -448 179 0 180 0 0 485 c0 315 -4 503 -11 537 -34 164 -136 271 -296
313 -72 19 -250 19 -320 0z"/>
<path d="M48562 2480 c-241 -63 -388 -252 -422 -545 -22 -181 6 -372 72 -498
47 -90 146 -185 238 -230 127 -62 181 -72 390 -72 195 1 275 14 393 64 l47 20
0 141 c0 77 -2 140 -5 140 -2 0 -37 -13 -77 -29 -132 -52 -202 -65 -343 -65
-103 0 -138 3 -168 17 -48 22 -123 91 -144 131 -19 37 -43 122 -43 154 l0 22
425 0 425 0 0 143 c0 236 -41 360 -154 472 -114 112 -236 155 -440 154 -86 0
-142 -6 -194 -19z m316 -266 c79 -39 132 -124 132 -210 l0 -34 -251 0 -252 0
7 41 c16 99 74 181 150 215 54 23 155 18 214 -12z"/>
<path d="M52172 2480 c-208 -55 -349 -202 -409 -430 -25 -94 -25 -379 0 -470
69 -251 239 -399 507 -441 167 -26 435 2 565 60 l45 20 0 142 c0 131 -1 141
-17 134 -10 -4 -61 -23 -113 -41 -183 -64 -368 -72 -473 -21 -94 47 -153 133
-164 243 l-6 54 428 0 428 0 -5 163 c-5 138 -9 174 -31 242 -15 44 -40 102
-57 128 -71 112 -191 193 -327 222 -98 21 -281 18 -371 -5z m303 -259 c45 -20
101 -79 120 -125 7 -17 16 -52 20 -78 l7 -48 -257 0 c-239 0 -256 1 -251 18 2
9 8 33 11 52 16 78 76 154 145 184 49 21 155 20 205 -3z"/>
<path d="M56582 2480 c-103 -27 -166 -64 -248 -145 -80 -79 -121 -154 -156
-282 -30 -113 -31 -365 0 -474 61 -224 203 -364 432 -426 51 -14 103 -18 245
-18 191 1 285 16 398 64 l47 20 0 141 c0 77 -4 140 -9 140 -5 0 -34 -11 -65
-25 -113 -50 -210 -69 -351 -69 -150 0 -179 9 -255 80 -53 50 -85 114 -96 192
l-7 52 427 0 426 0 0 141 c0 232 -42 361 -155 474 -111 112 -235 155 -439 154
-86 0 -142 -6 -194 -19z m316 -266 c77 -38 132 -129 132 -216 l0 -28 -251 0
-252 0 6 45 c13 90 74 178 147 209 58 25 157 20 218 -10z"/>
<path d="M63320 2485 c-217 -49 -370 -202 -431 -432 -29 -107 -31 -324 -5
-438 39 -176 144 -328 276 -402 106 -60 188 -78 350 -78 124 0 156 3 220 23
152 48 264 139 333 269 103 197 115 506 27 717 -68 163 -178 263 -360 329 -74
26 -314 34 -410 12z m309 -301 c91 -46 136 -142 148 -310 7 -107 -10 -238 -39
-306 -25 -58 -93 -123 -144 -137 -52 -14 -127 -14 -178 1 -55 17 -126 89 -149
153 -61 170 -41 427 43 545 56 79 215 106 319 54z"/>
<path d="M43350 1815 l0 -665 180 0 180 0 0 665 0 665 -180 0 -180 0 0 -665z"/>
<path d="M59780 1815 l0 -665 180 0 180 0 0 665 0 665 -180 0 -180 0 0 -665z"/>
<path d="M61460 1815 l0 -665 180 0 180 0 0 665 0 665 -180 0 -180 0 0 -665z"/>
</g>
</svg>
