<?xml version="1.0" standalone="no"?>
<!DOCTYPE svg PUBLIC "-//W3C//DTD SVG 20010904//EN"
 "http://www.w3.org/TR/2001/REC-SVG-20010904/DTD/svg10.dtd">
<svg version="1.0" xmlns="http://www.w3.org/2000/svg"
 width="13348.000000pt" height="7367.000000pt" viewBox="0 0 13348.000000 7367.000000"
 preserveAspectRatio="xMidYMid meet">

<g transform="translate(0.000000,7367.000000) scale(0.100000,-0.100000)"
fill="#000000" stroke="none">
<path d="M48125 69045 c-579 -93 -1028 -539 -1130 -1121 -20 -117 -14 -351 14
-481 54 -260 173 -483 356 -672 212 -218 459 -347 767 -399 57 -9 350 -9 410
1 129 21 233 54 414 133 8 4 9 -9 3 -43 -5 -26 -11 -113 -15 -193 -5 -124 1
-238 45 -775 52 -653 73 -925 141 -1845 23 -300 45 -576 51 -615 12 -84 -2
-211 -32 -290 -28 -74 -94 -145 -171 -183 -58 -29 -173 -64 -243 -76 -16 -3
-70 -12 -120 -21 -49 -9 -99 -18 -111 -20 -102 -17 -825 -163 -1119 -225
-1449 -309 -2912 -682 -4181 -1065 -355 -107 -1027 -319 -1154 -364 -47 -16
-184 -64 -305 -106 -949 -332 -1729 -647 -2439 -984 -71 -33 -130 -61 -131
-61 -2 0 23 51 55 113 65 125 121 295 140 428 8 55 11 142 7 245 -4 133 -10
178 -35 274 -82 318 -268 591 -527 775 -151 108 -367 198 -550 229 -117 21
-345 21 -461 1 -585 -101 -1033 -567 -1113 -1158 -25 -179 -6 -389 50 -572
162 -530 643 -912 1199 -952 50 -3 90 -9 90 -12 0 -3 -23 -19 -51 -35 -151
-85 -525 -351 -801 -572 -177 -141 -321 -255 -959 -756 -450 -353 -857 -678
-949 -758 -14 -11 -34 -29 -45 -38 -1056 -888 -1846 -1670 -2913 -2882 -124
-140 -241 -273 -261 -295 -550 -606 -2377 -2826 -3830 -4654 -102 -129 -384
-482 -626 -785 -427 -535 -572 -717 -1240 -1561 -725 -916 -1745 -2214 -2225
-2830 -128 -165 -268 -343 -310 -395 -42 -52 -172 -219 -290 -370 -118 -151
-452 -581 -744 -955 -972 -1249 -1488 -1914 -2787 -3595 -586 -758 -1009
-1314 -1121 -1471 -369 -517 -958 -1415 -1468 -2239 -649 -1046 -1608 -2702
-2137 -3690 -23 -41 -99 -183 -171 -315 -209 -387 -589 -1102 -730 -1375 -35
-69 -143 -278 -240 -465 -376 -730 -1003 -1995 -1412 -2850 -87 -181 -194
-406 -239 -499 -45 -92 -81 -170 -81 -172 0 -1 -18 -40 -39 -86 -22 -46 -109
-231 -194 -413 -185 -394 -383 -817 -439 -935 -22 -47 -135 -287 -250 -535
-116 -247 -245 -524 -288 -615 -43 -91 -276 -588 -518 -1105 -700 -1496 -1911
-4081 -2016 -4303 -53 -112 -107 -233 -122 -270 -14 -37 -33 -85 -41 -107
-143 -371 -317 -1073 -387 -1565 -62 -428 -80 -723 -73 -1163 10 -630 89
-1106 272 -1647 362 -1064 1108 -1918 2156 -2464 79 -41 137 -77 129 -80 -8
-2 -44 -9 -79 -16 -386 -70 -758 -358 -936 -724 -104 -213 -139 -363 -139
-596 0 -227 37 -394 134 -595 185 -385 556 -665 985 -742 133 -24 363 -22 488
5 284 62 500 177 696 373 200 201 328 444 377 719 25 139 23 365 -5 497 -47
227 -145 434 -278 590 -24 29 -40 53 -34 53 5 0 83 -18 171 -40 691 -170 1476
-260 2400 -276 886 -16 1715 56 2492 216 2221 456 3837 1631 4757 3460 265
526 447 1025 586 1605 189 788 264 1487 252 2330 -6 423 -8 453 -81 1135 -44
410 -131 1243 -140 1345 -3 28 -12 113 -20 190 -9 77 -18 169 -22 205 -3 36
-7 79 -9 95 -2 17 -6 62 -9 100 -4 39 -9 86 -12 105 -2 19 -7 60 -9 90 -6 67
-15 154 -160 1535 -159 1518 -243 2318 -251 2395 -3 36 -7 79 -9 95 -2 17 -6
59 -10 95 -3 36 -8 81 -10 100 -2 19 -7 64 -10 100 -3 36 -15 148 -26 250 -11
102 -22 208 -25 235 -2 28 -7 68 -9 90 -3 22 -8 67 -11 100 -3 33 -50 488
-105 1010 -54 523 -117 1123 -139 1335 -22 212 -47 423 -55 470 -20 113 -31
268 -18 255 6 -5 34 -46 64 -90 136 -200 361 -380 601 -479 168 -70 294 -91
528 -91 234 1 408 44 617 154 53 28 97 51 99 51 2 0 1 -19 -2 -42 -2 -24 -8
-365 -13 -758 -14 -1219 11 -2265 70 -2905 26 -286 84 -875 129 -1305 27 -261
52 -500 55 -530 5 -50 8 -75 20 -180 2 -19 7 -64 10 -100 26 -275 183 -1606
297 -2517 l32 -263 31 0 c16 0 84 5 150 10 66 6 158 13 205 16 47 3 798 58
1670 123 872 65 1588 115 1592 112 4 -3 32 -226 62 -496 31 -269 121 -1061
201 -1760 135 -1183 210 -1834 220 -1930 13 -129 17 -163 21 -190 5 -36 61
-517 69 -595 3 -30 8 -73 10 -95 3 -22 7 -65 10 -95 6 -57 12 -109 20 -170 2
-19 34 -304 71 -633 l68 -597 31 5 c30 5 1914 239 2010 250 28 3 66 7 85 10
19 2 53 6 75 9 22 3 72 10 110 15 39 5 95 13 125 16 30 3 71 8 90 10 19 3 55
7 80 10 25 3 62 8 83 10 50 7 109 14 155 20 240 28 3164 391 5057 626 1326
165 2426 302 2445 304 19 2 53 6 75 9 22 3 63 8 90 11 28 3 66 8 85 10 19 2
58 7 85 10 28 4 61 8 75 10 14 2 48 6 75 9 28 3 358 44 735 91 377 47 698 86
715 87 l30 3 12 -140 c15 -166 230 -2816 238 -2925 3 -41 7 -97 10 -125 3 -27
7 -77 9 -110 3 -33 14 -168 25 -300 11 -132 23 -276 26 -320 3 -44 8 -102 10
-130 2 -27 7 -86 10 -130 3 -44 8 -107 10 -140 3 -33 7 -91 10 -130 3 -38 15
-178 26 -310 11 -132 22 -269 25 -305 2 -36 36 -450 74 -920 87 -1076 85
-1040 74 -1042 -9 -1 -14 -2 -134 -12 -170 -14 -206 -17 -248 -21 -24 -3 -78
-7 -120 -10 -42 -3 -149 -13 -237 -21 -88 -8 -189 -17 -225 -20 -36 -2 -83 -6
-105 -9 -22 -3 -69 -7 -105 -10 -36 -3 -326 -27 -645 -55 -1289 -111 -2182
-185 -2760 -230 -71 -6 -571 -46 -1110 -90 -1860 -151 -4363 -345 -5350 -414
-38 -3 -259 -19 -490 -36 -231 -16 -456 -32 -500 -35 -44 -3 -107 -8 -140 -10
-33 -3 -94 -7 -135 -10 -41 -2 -102 -7 -135 -10 -33 -3 -105 -7 -159 -10 -54
-3 -126 -8 -160 -10 -65 -5 -153 -11 -281 -20 -44 -3 -442 -30 -885 -60 -1090
-74 -1977 -132 -2905 -190 -919 -57 -1209 -74 -1425 -85 -113 -5 -518 -28
-900 -50 -4592 -264 -8460 -416 -12235 -481 -607 -11 -3345 -18 -4055 -11
-2228 22 -4457 140 -5498 293 -73 10 -135 19 -138 19 -2 0 -4 -1327 -4 -2950
l0 -2950 55882 0 c53219 0 55880 1 55866 18 -8 9 -75 89 -148 177 -620 741
-1770 1988 -3174 3445 -1343 1392 -3900 3954 -4316 4325 -1022 911 -2239 1669
-3665 2282 -1133 488 -2348 875 -3705 1183 -124 28 -243 55 -265 60 -91 22
-601 122 -885 174 -1498 273 -2982 433 -4680 506 -1093 46 -2398 45 -3475 -5
-725 -34 -736 -35 -3875 -310 -2941 -257 -3947 -345 -4010 -350 -90 -7 -187
-15 -240 -20 -25 -2 -79 -7 -120 -10 -41 -4 -93 -8 -115 -11 -22 -2 -98 -8
-170 -14 -71 -6 -150 -12 -175 -15 -25 -2 -74 -7 -110 -10 -136 -11 -187 -16
-235 -20 -27 -3 -79 -7 -115 -10 -36 -3 -812 -70 -1725 -150 -913 -79 -1723
-149 -1800 -155 -77 -6 -293 -24 -480 -40 -554 -48 -3469 -303 -4570 -400
-561 -49 -1054 -92 -1095 -95 -41 -3 -113 -9 -160 -14 -47 -5 -92 -9 -100 -9
-8 0 -91 -7 -185 -16 -93 -8 -201 -18 -240 -21 -79 -6 -168 -14 -235 -20 -25
-2 -79 -7 -120 -10 -41 -3 -97 -8 -125 -10 -27 -3 -84 -7 -125 -10 -41 -4
-147 -13 -235 -21 -88 -8 -187 -17 -220 -20 -33 -2 -82 -6 -110 -9 -27 -3 -81
-8 -120 -11 -38 -3 -605 -52 -1260 -109 -654 -57 -1379 -120 -1610 -140 -677
-57 -790 -67 -797 -72 -5 -2 -8 -413 -8 -914 l0 -909 -26 0 c-14 0 -423 -29
-907 -64 -485 -36 -954 -70 -1042 -76 -88 -5 -1316 -96 -2730 -200 -2853 -211
-4424 -327 -4530 -335 -38 -2 -187 -13 -330 -24 -143 -11 -298 -22 -345 -26
-47 -3 -112 -7 -145 -10 -33 -2 -100 -7 -150 -10 -49 -3 -115 -8 -145 -10 -30
-2 -95 -7 -145 -10 -49 -3 -143 -10 -208 -15 -66 -6 -156 -12 -200 -15 -45 -3
-104 -7 -132 -10 -27 -3 -88 -8 -135 -10 -47 -3 -722 -53 -1500 -110 -778 -58
-1694 -125 -2035 -150 -341 -24 -1305 -95 -2143 -156 -837 -61 -1525 -110
-1527 -107 -3 3 -533 5808 -570 6243 -3 33 -8 83 -10 110 -3 28 -7 75 -10 105
-2 30 -7 80 -10 110 -2 30 -7 80 -10 110 -8 90 -14 161 -20 235 -3 39 -10 115
-15 170 -20 206 -29 297 -35 385 -3 42 -53 586 -109 1210 -57 624 -101 1138
-97 1141 3 4 723 103 1598 220 1365 183 1592 215 1589 229 -3 8 -7 58 -11 110
-8 131 -7 127 -80 1120 -36 487 -94 1283 -129 1770 -36 487 -68 923 -71 970
-9 138 -15 221 -20 280 -5 66 -12 171 -20 300 -3 52 -26 363 -50 690 -24 327
-42 596 -41 597 1 1 974 127 1306 169 25 3 59 7 75 9 56 8 120 15 165 21 25 3
56 7 70 9 14 2 50 6 80 10 30 3 177 22 325 41 149 20 286 38 305 40 19 2 512
65 1095 139 583 74 1206 153 1385 176 179 22 460 58 625 79 165 22 496 64 735
95 239 31 606 78 815 105 209 27 531 68 715 91 184 23 339 46 344 50 5 4 1 76
-8 166 -9 87 -18 183 -21 213 -3 30 -7 78 -10 105 -3 28 -7 73 -10 100 -16
162 -123 1206 -235 2293 -72 690 -130 1258 -130 1263 0 5 -162 9 -389 9 l-389
0 -6 38 c-6 34 -56 470 -281 2462 -46 410 -98 862 -114 1005 -16 143 -32 287
-36 320 -5 57 -10 103 -20 185 -2 19 -7 62 -10 95 -3 33 -8 71 -10 85 -2 14
-7 54 -10 90 -3 36 -17 160 -30 275 -14 116 -45 390 -69 610 -25 220 -79 697
-120 1061 -42 363 -78 683 -81 710 -4 46 -7 72 -20 189 -3 25 -7 64 -10 87 -2
24 -7 63 -9 88 -3 25 -8 68 -11 95 -9 88 -132 1180 -200 1772 -36 315 -65 576
-65 581 0 8 381 87 515 108 22 3 78 14 125 24 47 10 103 21 125 24 57 9 155
28 155 31 0 1 -34 281 -75 621 -93 766 -143 1174 -150 1239 -3 28 -7 66 -10
85 -4 33 -7 55 -20 170 -3 25 -8 61 -10 80 -3 19 -7 60 -10 90 -4 30 -8 66
-10 80 -2 14 -6 50 -10 80 -5 49 -25 211 -40 325 -3 22 -8 65 -11 95 -3 30
-35 294 -70 585 -36 292 -68 560 -71 596 l-6 67 -31 -3 c-17 -2 -121 -13 -231
-24 -110 -11 -231 -23 -270 -26 -38 -3 -86 -8 -105 -10 -33 -3 -83 -8 -210
-20 -30 -2 -77 -7 -105 -10 -27 -2 -75 -7 -105 -10 -30 -3 -194 -19 -365 -36
-170 -17 -332 -32 -360 -35 -27 -3 -230 -22 -450 -44 -981 -96 -2415 -235
-3145 -306 -437 -42 -796 -77 -797 -78 0 0 28 -307 63 -681 35 -374 102 -1096
148 -1605 81 -884 90 -988 102 -1125 2 -33 6 -80 9 -105 2 -25 7 -76 10 -115
3 -38 8 -92 10 -120 2 -27 7 -84 10 -125 3 -41 13 -147 21 -235 8 -88 17 -185
20 -215 5 -70 75 -887 114 -1335 30 -344 134 -1619 146 -1775 9 -123 11 -155
28 -360 15 -179 19 -243 31 -435 3 -49 12 -175 20 -280 21 -265 24 -253 -42
-154 -120 176 -341 364 -535 453 -196 91 -338 121 -573 121 -201 0 -263 -9
-424 -62 -170 -56 -305 -131 -440 -243 -65 -54 -75 -59 -67 -32 16 52 218
1439 241 1657 5 49 9 80 19 160 3 22 8 60 10 85 12 109 17 157 21 190 34 295
78 850 95 1210 13 279 13 983 0 1242 -13 243 -42 570 -75 837 -13 108 -27 221
-30 251 -11 102 -16 145 -20 180 -3 19 -7 60 -10 90 -4 30 -8 71 -10 90 -2 19
-7 58 -9 85 -3 28 -35 318 -71 645 -104 957 -315 2945 -360 3390 -2 25 -8 86
-14 135 -5 50 -13 122 -16 160 -3 39 -10 111 -16 160 -5 50 -12 110 -14 135
-17 167 -158 1531 -170 1640 -8 74 -56 529 -105 1010 -117 1133 -128 1233
-134 1305 -4 33 -8 83 -11 110 -3 28 -8 75 -11 105 -3 30 -7 72 -9 93 -5 41
-11 106 -20 207 -3 36 -13 126 -21 200 -8 74 -17 158 -19 185 -3 28 -10 93
-15 145 -6 52 -13 120 -16 150 -5 57 -44 434 -188 1835 -126 1224 -127 1239
-90 1374 74 263 394 598 954 998 198 141 504 339 735 474 609 357 1512 872
2400 1369 286 160 1404 784 1475 823 30 17 267 147 525 290 461 255 1185 653
1740 957 154 84 390 214 525 288 915 502 977 533 1405 695 329 125 790 263
1045 313 51 10 75 5 703 -162 599 -158 765 -218 898 -320 116 -89 180 -182
228 -329 29 -89 35 -116 46 -205 17 -143 415 -4273 440 -4575 4 -38 8 -86 10
-105 15 -150 35 -357 40 -415 3 -38 8 -90 10 -115 3 -25 7 -71 10 -103 6 -68
13 -146 19 -207 3 -25 7 -76 11 -115 3 -38 39 -423 80 -855 41 -432 95 -1000
120 -1262 25 -263 65 -691 90 -950 69 -734 134 -1416 140 -1488 6 -71 11 -130
20 -230 3 -36 7 -83 10 -105 2 -22 7 -74 10 -115 3 -41 26 -284 50 -540 127
-1334 155 -1643 150 -1648 -4 -5 -196 -25 -340 -36 -38 -3 -112 -8 -162 -12
-88 -6 -93 -8 -93 -29 0 -25 49 -373 54 -391 3 -7 40 -6 122 2 321 34 455 46
460 41 3 -3 18 -142 34 -308 66 -695 150 -1589 155 -1654 4 -38 8 -90 11 -115
11 -112 19 -204 29 -325 3 -38 15 -162 26 -275 11 -113 22 -227 24 -255 9
-103 86 -921 115 -1230 17 -176 66 -702 110 -1170 44 -467 91 -967 105 -1110
21 -216 61 -655 80 -860 2 -27 9 -95 14 -150 6 -55 13 -131 16 -170 7 -80 13
-150 19 -215 3 -25 7 -76 11 -115 9 -116 50 -547 180 -1930 102 -1079 176
-1877 209 -2230 2 -27 14 -147 25 -265 11 -118 23 -242 26 -275 3 -33 7 -80
10 -105 2 -25 7 -76 10 -115 7 -90 14 -158 19 -215 3 -25 7 -79 11 -120 3 -41
15 -167 25 -280 11 -113 49 -515 85 -895 35 -379 99 -1052 140 -1495 129
-1376 193 -2062 200 -2135 3 -38 8 -94 10 -122 7 -80 14 -151 20 -223 3 -36
62 -661 130 -1390 142 -1518 140 -1492 160 -1785 32 -458 77 -832 170 -1410 3
-16 7 -41 10 -55 7 -39 16 -113 40 -360 24 -246 25 -262 40 -440 61 -755 174
-1184 402 -1528 107 -162 314 -352 505 -463 365 -213 754 -196 1052 46 l54 45
124 -59 c328 -156 637 -248 953 -282 109 -11 470 -8 483 5 4 5 -36 356 -42
362 0 1 -53 -3 -116 -8 -195 -16 -437 13 -680 83 -358 104 -884 384 -1260 670
-185 141 -423 371 -509 491 -14 21 -30 36 -36 34 -26 -9 -296 -199 -293 -206
10 -28 151 -191 254 -295 194 -196 441 -392 692 -550 50 -31 92 -61 92 -66 0
-13 -73 -47 -137 -64 -154 -40 -336 6 -524 132 -265 179 -416 395 -522 744
-80 265 -105 439 -182 1294 -25 283 -36 363 -99 760 -66 410 -110 809 -141
1275 -8 123 -35 436 -60 695 -24 258 -47 502 -50 540 -3 39 -8 88 -10 110 -2
22 -7 72 -10 110 -10 127 -16 190 -20 225 -2 19 -7 67 -10 105 -6 77 -92 997
-216 2310 -150 1603 -208 2220 -214 2295 -3 41 -7 86 -10 100 -2 14 -7 60 -10
102 -3 42 -7 96 -10 120 -2 24 -6 72 -9 108 -8 85 -228 2440 -306 3265 -71
757 -107 1144 -115 1240 -7 82 -12 129 -20 199 -3 28 -7 76 -10 106 -2 30 -9
100 -14 155 -6 55 -13 132 -16 170 -8 96 -14 171 -20 225 -5 45 -10 100 -20
220 -3 36 -102 1091 -220 2345 -118 1254 -217 2312 -220 2350 -4 39 -8 90 -11
115 -7 71 -13 139 -19 220 -7 79 -347 3700 -365 3879 -6 57 -10 105 -8 106 2
1 31 5 66 8 52 4 62 3 62 -11 0 -9 47 -482 105 -1051 57 -570 107 -1063 110
-1096 3 -33 7 -81 10 -106 12 -124 19 -190 30 -319 11 -116 131 -1308 360
-3570 41 -404 77 -762 80 -795 3 -33 7 -82 10 -110 3 -27 7 -72 10 -100 3 -27
7 -72 10 -100 7 -68 14 -137 20 -215 3 -36 12 -128 21 -205 16 -148 21 -199
29 -280 3 -27 7 -72 10 -100 3 -27 7 -77 10 -110 3 -33 44 -438 91 -900 46
-462 131 -1306 189 -1875 57 -569 107 -1062 110 -1095 3 -33 7 -82 10 -110 3
-27 7 -72 10 -100 10 -113 15 -163 20 -215 6 -63 212 -2101 345 -3420 49 -487
92 -912 95 -945 3 -33 7 -81 10 -106 6 -57 14 -138 20 -204 3 -27 7 -70 10
-95 2 -25 7 -79 10 -120 3 -41 8 -91 10 -110 3 -19 52 -503 110 -1075 57 -572
156 -1553 219 -2180 64 -627 118 -1169 121 -1205 3 -36 8 -83 10 -105 6 -55
13 -129 20 -200 50 -552 72 -715 131 -944 296 -1159 1073 -1990 2164 -2316
337 -100 643 -148 1082 -171 l127 -6 -54 -50 c-30 -27 -83 -84 -119 -126 -215
-259 -316 -538 -316 -871 0 -270 73 -520 213 -733 205 -312 517 -521 884 -595
133 -26 395 -24 532 6 433 92 786 382 962 790 269 624 29 1350 -563 1701 l-78
47 58 12 c31 7 201 46 377 86 290 67 898 206 1310 300 213 48 1484 332 2270
506 347 77 648 144 670 149 186 43 2166 476 3710 810 352 77 660 143 685 149
25 5 77 16 115 25 39 8 144 31 235 51 91 20 183 40 205 45 22 5 114 25 205 44
91 19 206 44 255 55 489 107 810 174 910 191 445 75 879 274 1308 598 86 64
191 150 316 258 l36 32 1 -122 c6 -471 249 -893 658 -1141 204 -124 431 -185
691 -185 362 0 677 126 932 373 199 192 313 390 381 655 25 100 27 121 27 322
0 203 -2 221 -28 321 -43 165 -90 274 -182 414 -298 460 -826 685 -1381 589
-45 -7 -90 -17 -100 -21 -18 -7 -18 -6 0 22 11 17 65 104 119 195 363 602 689
1320 976 2150 55 159 87 255 196 600 20 63 79 266 131 450 207 729 360 1200
573 1764 71 188 180 464 206 521 8 17 32 75 55 130 151 359 429 935 631 1305
385 704 855 1397 1304 1920 596 695 1252 1239 1813 1502 59 28 231 109 382
181 466 220 741 334 1054 436 241 79 552 160 716 186 19 3 42 8 50 10 8 2 32
6 53 9 20 3 52 8 70 11 103 16 362 46 487 56 300 25 904 12 1230 -26 19 -2 58
-6 85 -10 28 -3 64 -7 80 -9 17 -2 55 -7 85 -10 210 -25 660 -116 975 -196
667 -170 1283 -383 2040 -705 760 -324 1697 -656 2480 -879 640 -183 1006
-272 1600 -391 914 -183 1712 -289 2745 -365 527 -38 1262 -70 1628 -70 100 0
182 -3 182 -7 0 -5 -20 -21 -45 -36 -64 -41 -224 -196 -288 -279 -131 -171
-235 -407 -261 -588 -4 -25 -10 -67 -13 -95 -12 -84 -6 -276 11 -369 24 -127
77 -281 138 -398 154 -300 439 -545 763 -653 221 -74 485 -90 713 -42 534 113
940 529 1049 1074 24 120 24 375 0 495 -51 257 -179 504 -356 692 -56 59 -225
196 -242 196 -5 0 -9 4 -9 8 0 5 116 12 258 16 522 14 1182 44 1877 87 182 11
408 24 503 29 775 43 2551 199 4257 375 292 30 550 57 575 59 25 2 131 14 235
25 105 11 222 23 260 26 39 4 86 8 105 10 19 2 64 7 100 10 36 4 79 8 95 10
17 2 59 6 95 9 98 10 807 83 1130 116 157 16 461 48 675 70 215 22 586 60 825
84 501 52 1735 176 2335 236 226 22 968 96 1650 165 1126 112 2074 206 2230
220 33 2 78 7 100 10 22 3 67 7 100 10 33 2 123 11 200 19 77 8 178 17 225 21
47 3 105 8 130 11 25 2 70 6 100 9 30 3 66 7 80 10 14 2 49 7 79 10 30 4 61 8
70 10 9 1 39 6 66 9 186 24 535 98 786 166 663 181 1195 434 1594 757 l111 90
224 -98 c124 -54 242 -105 262 -114 121 -53 167 -66 294 -84 216 -32 420 -44
629 -38 114 4 210 2 240 -4 89 -19 338 -13 450 9 271 54 482 163 677 350 123
118 201 222 272 361 140 276 184 582 127 881 -5 24 -7 53 -5 63 2 11 6 42 9
71 4 28 8 65 10 81 9 64 6 334 -4 416 -34 270 -149 531 -315 717 -174 195
-366 318 -679 437 -275 104 -819 328 -1729 713 l-636 270 -84 70 c-212 178
-496 357 -863 542 -393 199 -631 300 -2129 902 -3712 1490 -5398 2167 -10776
4323 -3744 1501 -5064 2030 -6265 2512 -445 179 -1456 584 -2245 900 -789 316
-1730 694 -2090 838 -360 145 -1469 589 -2465 988 -995 399 -2917 1169 -4270
1712 -2147 860 -5964 2390 -8060 3230 -374 150 -1485 596 -2470 990 -984 394
-2267 908 -2850 1142 -583 234 -1699 681 -2480 993 l-1420 568 -2380 793
c-2267 754 -2719 907 -3165 1067 -591 213 -2828 1051 -3625 1359 -49 19 -135
52 -190 73 -55 21 -201 77 -325 123 -124 47 -364 139 -535 204 -170 66 -564
218 -875 337 -311 120 -662 255 -780 301 -118 46 -433 168 -700 270 -529 204
-1091 421 -1835 710 -1563 607 -2042 794 -2495 970 -278 108 -719 280 -980
381 -261 102 -639 250 -840 329 -201 79 -745 292 -1210 474 -1185 462 -3229
1263 -3637 1425 -375 149 -479 183 -673 221 -333 65 -636 53 -893 -34 -45 -15
-91 -31 -101 -36 -17 -7 -18 -5 -13 17 17 65 28 232 22 318 -14 196 -61 372
-145 540 -67 132 -135 226 -254 345 -189 191 -408 309 -686 370 -106 23 -360
28 -475 10z m431 -229 c335 -72 625 -292 781 -592 138 -265 161 -599 61 -884
-26 -72 -40 -95 -95 -153 -81 -87 -144 -172 -195 -265 -34 -62 -52 -81 -112
-124 -252 -177 -536 -247 -828 -203 -301 45 -588 223 -756 468 -127 185 -190
374 -199 598 -13 322 86 590 300 816 187 197 404 310 674 353 80 12 283 5 369
-14z m1901 -2592 c37 -9 257 -91 488 -181 231 -90 479 -187 550 -214 119 -46
345 -135 455 -179 108 -44 1617 -635 2250 -882 212 -82 563 -220 780 -305
1150 -450 2749 -1073 4565 -1779 308 -119 646 -251 750 -291 105 -41 334 -130
510 -198 580 -223 1320 -509 1945 -750 338 -131 647 -250 685 -265 39 -15 167
-64 285 -110 118 -45 278 -106 355 -135 77 -29 259 -99 405 -155 146 -56 292
-112 325 -124 33 -13 393 -150 800 -306 407 -155 785 -299 840 -319 551 -206
1559 -583 1670 -626 161 -61 231 -87 710 -260 547 -198 625 -224 3220 -1090
l2450 -817 2055 -823 c4670 -1871 5549 -2225 5567 -2236 20 -13 150 -165 225
-265 235 -310 370 -555 691 -1255 307 -668 486 -988 759 -1354 327 -440 778
-876 1048 -1014 182 -93 433 -178 637 -217 48 -9 95 -18 104 -19 288 -56 792
-60 1109 -10 14 2 45 7 70 10 92 13 329 66 471 105 337 92 629 207 1024 403
381 189 622 287 921 372 138 40 328 83 444 101 25 3 54 8 65 10 11 2 49 7 85
10 36 3 75 7 88 10 28 6 14 11 1987 -780 l1610 -645 129 -138 c150 -161 394
-418 586 -618 232 -242 1145 -1152 1365 -1360 241 -229 545 -511 754 -700 307
-278 476 -515 558 -783 24 -79 27 -102 27 -252 0 -140 -3 -178 -22 -247 -52
-192 -136 -373 -262 -566 -146 -225 -293 -400 -569 -680 -233 -236 -403 -394
-806 -747 -165 -145 -367 -325 -450 -401 -630 -575 -982 -1084 -1071 -1547
-22 -113 -22 -295 0 -385 18 -76 30 -184 116 -1017 221 -2161 273 -2756 287
-3300 14 -546 -62 -970 -242 -1357 -69 -147 -168 -238 -339 -310 -95 -40 -261
-88 -337 -98 -30 -4 -56 -8 -59 -10 -3 -2 -33 -6 -65 -10 -33 -3 -95 -10 -137
-15 l-78 -9 -207 81 c-198 76 -306 118 -418 158 -27 10 -86 32 -130 48 -146
54 -545 182 -770 247 -619 179 -1197 297 -1773 365 -604 71 -1286 73 -1829 6
-60 -7 -109 -12 -111 -11 -2 2 28 35 67 75 443 456 504 1166 146 1698 -87 130
-246 290 -352 355 -29 18 -53 35 -53 39 0 3 12 9 28 12 39 9 977 162 1102 180
58 9 296 45 530 80 1022 156 1888 263 2385 296 197 14 261 33 409 123 345 210
563 588 645 1117 27 176 24 682 -7 940 -11 96 -24 204 -27 239 -4 36 -8 79
-10 95 -7 55 -14 110 -20 166 -9 87 -14 127 -31 255 -9 66 -18 136 -20 155 -3
19 -7 49 -9 65 -2 17 -6 50 -9 75 -46 371 -163 1221 -250 1826 -25 170 -48
334 -52 364 -3 30 -8 64 -9 75 -2 11 -6 38 -9 60 -3 22 -8 58 -11 80 -4 22 -8
51 -10 65 -2 14 -13 93 -25 175 -61 432 -248 1683 -385 2575 l-67 435 -45 72
c-201 328 -566 630 -964 798 -512 216 -986 276 -1724 216 -143 -11 -433 -30
-645 -41 -833 -44 -1205 -82 -1630 -165 -1035 -204 -1936 -666 -2845 -1460
-513 -448 -912 -874 -1560 -1665 -285 -348 -574 -695 -820 -985 -1456 -1717
-1683 -1988 -2116 -2530 -1066 -1333 -1699 -2407 -2044 -3466 -124 -382 -199
-724 -281 -1284 -150 -1030 -307 -1807 -516 -2550 -138 -492 -311 -988 -444
-1274 -24 -52 -42 -96 -39 -99 4 -4 577 -97 712 -115 22 -4 52 -8 65 -11 12
-3 43 -8 68 -11 25 -3 56 -7 70 -10 14 -2 84 -14 155 -25 72 -11 144 -23 160
-26 17 -3 41 -7 55 -9 60 -9 116 -18 135 -21 10 -2 37 -6 60 -9 118 -17 171
-27 176 -33 5 -5 63 -446 85 -642 2 -19 6 -46 9 -60 2 -14 7 -54 11 -90 3 -36
8 -74 10 -84 2 -11 6 -42 9 -70 17 -146 44 -362 51 -403 5 -24 20 -42 58 -71
114 -86 342 -311 445 -438 38 -47 141 -205 166 -254 60 -119 96 -267 164 -675
28 -169 83 -528 97 -640 3 -27 8 -58 9 -67 2 -9 7 -48 10 -85 4 -37 9 -71 11
-74 2 -3 6 -34 10 -70 3 -35 12 -97 18 -137 l11 -74 114 259 c152 343 350 762
561 1183 1028 2057 2194 3857 3309 5110 871 979 1675 1641 2491 2050 160 80
362 172 367 166 2 -2 -15 -34 -37 -72 -65 -111 -135 -304 -154 -424 -48 -299
-8 -586 116 -835 66 -133 147 -244 263 -361 153 -153 297 -246 498 -319 l89
-32 -124 -42 c-182 -63 -478 -182 -688 -276 -227 -102 -761 -354 -930 -441
-444 -225 -938 -591 -1452 -1076 -119 -112 -129 -119 -219 -153 -233 -89 -464
-222 -664 -381 -404 -324 -948 -961 -1390 -1629 -145 -219 -253 -405 -370
-635 -124 -246 -185 -386 -385 -880 -301 -745 -473 -1104 -800 -1676 -194
-339 -530 -861 -868 -1349 -573 -826 -1391 -1873 -2171 -2780 -514 -597 -548
-633 -635 -690 -571 -372 -2554 -1103 -3905 -1440 -235 -58 -305 -74 -581
-135 -132 -29 -733 -156 -1105 -234 -170 -36 -341 -72 -380 -80 -38 -9 -180
-38 -315 -66 -297 -62 -1291 -276 -1698 -365 -489 -108 -682 -153 -987 -230
-159 -41 -470 -117 -690 -170 -739 -178 -928 -225 -1185 -296 -346 -96 -628
-184 -862 -269 l-195 -70 -132 39 c-216 65 -365 139 -532 262 -217 161 -400
408 -493 668 l-31 87 -162 -31 c-90 -17 -165 -34 -167 -36 -10 -10 74 -240
122 -336 133 -264 357 -517 607 -685 114 -76 339 -186 475 -232 426 -143 898
-172 1468 -90 95 13 194 29 221 35 l48 10 -12 62 c-8 34 -16 77 -19 96 -22
149 -29 171 -50 170 -12 0 -79 -11 -151 -23 -117 -20 -147 -23 -134 -13 7 7
586 155 909 233 173 42 578 141 900 219 322 79 655 159 740 179 327 75 1200
265 1565 341 116 24 413 87 660 139 248 52 662 140 920 195 259 55 580 123
715 151 1369 289 3297 942 4342 1472 230 116 383 214 453 290 132 141 641 736
967 1129 1130 1360 2125 2749 2711 3784 289 511 463 882 754 1605 253 630 371
882 566 1205 283 472 733 1062 1112 1460 91 96 87 89 -81 -135 -530 -708
-1048 -1595 -1474 -2525 -52 -114 -72 -159 -150 -340 -45 -104 -90 -208 -100
-230 -9 -22 -21 -51 -25 -65 -4 -14 -19 -49 -32 -78 -13 -29 -44 -105 -69
-170 -25 -64 -56 -144 -68 -177 -197 -506 -446 -1255 -591 -1780 -279 -1010
-541 -1734 -871 -2415 -534 -1097 -1166 -1859 -1819 -2192 -127 -65 -291 -124
-367 -134 -56 -6 -672 -136 -1498 -314 -1090 -236 -1567 -339 -1610 -349 -25
-6 -139 -31 -255 -55 -115 -25 -403 -88 -640 -140 -236 -52 -671 -147 -965
-211 -625 -137 -2726 -601 -2785 -615 -22 -6 -202 -46 -400 -89 -198 -44 -598
-134 -890 -200 -291 -66 -683 -154 -870 -196 -187 -42 -545 -123 -795 -181
-788 -182 -1036 -218 -1520 -218 -250 -1 -342 3 -445 17 -822 114 -1344 501
-1625 1208 -41 101 -100 313 -119 424 -6 33 -42 373 -81 755 -38 382 -117
1165 -175 1740 -58 575 -107 1072 -110 1105 -4 33 -8 78 -10 100 -4 40 -10
103 -20 205 -7 82 -116 1160 -295 2940 -88 872 -162 1610 -165 1640 -3 30 -8
80 -11 110 -2 30 -7 73 -9 95 -2 22 -6 67 -9 100 -3 33 -53 528 -111 1100
-257 2554 -356 3534 -360 3590 -6 61 -12 129 -20 200 -2 22 -6 67 -9 100 -6
56 -94 939 -351 3490 -58 572 -107 1065 -110 1095 -10 106 -16 165 -20 205 -2
22 -6 67 -10 100 -4 53 -319 3176 -391 3883 -14 145 -24 265 -22 268 5 4 96
13 618 59 157 14 402 37 545 51 448 43 1384 133 1780 171 209 20 383 39 387
42 7 6 -46 399 -55 407 -5 6 -358 -26 -1597 -142 -844 -79 -1321 -125 -1564
-150 -170 -17 -165 -19 -167 61 -1 28 -3 61 -4 75 -1 14 -5 61 -9 105 -3 44
-8 105 -11 135 -2 30 -32 357 -65 725 -33 369 -125 1395 -204 2280 -80 886
-148 1644 -151 1685 -8 98 -13 155 -20 210 -2 25 -7 79 -10 120 -4 41 -8 93
-10 115 -2 22 -9 99 -15 170 -6 72 -12 148 -15 170 -2 22 -6 72 -10 110 -3 39
-8 90 -10 115 -11 117 -15 161 -20 230 -3 41 -100 1112 -215 2380 -116 1268
-212 2332 -215 2365 -3 33 -8 83 -10 110 -2 28 -7 84 -10 125 -6 75 -64 696
-110 1190 -53 553 -76 758 -95 840 -11 47 -22 94 -25 106 -4 18 9 14 103 -32
424 -209 949 -173 1340 91 295 199 495 493 574 846 33 150 33 408 -1 559 -61
274 -182 490 -385 688 -275 267 -606 394 -991 379 -357 -14 -651 -142 -900
-392 -156 -156 -262 -326 -328 -525 -47 -140 -67 -268 -67 -417 0 -68 -2 -123
-4 -123 -3 0 -40 25 -83 56 -278 199 -626 332 -1077 409 -125 21 -260 37 -591
69 -24 2 -272 107 -635 268 -327 146 -856 380 -1175 521 -319 140 -719 317
-890 392 -862 381 -1027 453 -2206 961 -195 83 -290 132 -374 192 -92 65 -242
212 -290 285 l-38 58 19 117 c23 141 26 474 6 622 -7 52 -35 403 -62 780 -28
377 -52 714 -55 750 -3 36 -7 97 -10 135 -7 95 -15 210 -20 270 -2 28 -6 91
-10 140 -3 50 -8 110 -10 135 -3 25 -7 77 -10 115 -3 39 -7 93 -10 120 -2 28
-7 86 -10 130 -4 44 -8 94 -9 110 -2 17 -7 93 -11 169 l-8 139 71 -6 c39 -3
101 -13 139 -23z m-227 -4575 c153 -127 339 -238 545 -322 110 -45 125 -52
125 -57 0 -3 -191 -4 -425 -2 l-425 2 0 -110 0 -110 301 0 c287 0 300 -1 295
-18 -4 -10 -56 -126 -117 -258 -221 -477 -329 -715 -329 -725 0 -6 50 -9 132
-7 l133 3 83 190 c420 955 382 861 382 949 0 42 2 76 5 76 6 0 563 -239 619
-266 38 -18 40 -22 57 -98 89 -406 -66 -847 -386 -1105 -399 -321 -924 -346
-1348 -64 -316 210 -511 591 -494 968 7 148 12 177 48 292 79 248 201 420 404
573 88 66 261 160 294 160 9 0 54 -32 101 -71z m-12025 -164 c231 -35 437
-138 612 -308 251 -243 376 -594 333 -933 -54 -432 -334 -786 -734 -929 -394
-141 -816 -60 -1134 217 -415 362 -497 1002 -188 1466 173 261 483 457 771
489 28 3 52 7 54 9 11 10 196 2 286 -11z m11092 -217 c-108 -239 -143 -414
-134 -662 8 -206 41 -347 123 -525 122 -264 383 -525 645 -645 440 -200 939
-160 1339 107 163 109 357 331 448 512 103 206 160 511 135 728 -5 42 -7 79
-5 81 2 2 38 -12 80 -31 42 -19 484 -214 982 -433 1345 -591 1510 -664 1510
-671 0 -4 -30 -14 -67 -23 -480 -120 -1140 -350 -1583 -553 -87 -40 -896 -478
-1675 -908 -132 -73 -451 -248 -710 -390 -258 -142 -715 -394 -1015 -560 -300
-166 -581 -321 -625 -345 -44 -24 -172 -95 -285 -158 -113 -63 -378 -211 -590
-329 -212 -119 -452 -254 -535 -301 -82 -47 -170 -96 -195 -110 -313 -174
-1357 -769 -1884 -1076 -148 -86 -271 -154 -274 -152 -2 3 5 17 15 33 11 15
41 66 68 113 26 47 161 279 300 515 139 237 314 538 390 670 76 132 191 328
255 435 366 613 461 859 447 1165 -6 136 -27 223 -79 336 -105 227 -283 398
-591 566 -237 129 -578 267 -932 376 -787 243 -1545 410 -2248 493 l-147 18
137 48 c637 221 1898 587 2993 867 494 127 1506 365 1920 451 451 95 947 195
1265 255 187 36 378 76 425 89 102 29 104 29 97 14z m10082 -743 c354 -68 668
-321 813 -657 125 -291 121 -639 -11 -923 -261 -560 -938 -810 -1489 -550
-195 92 -358 227 -418 347 -19 37 -64 111 -100 164 -75 111 -107 197 -129 341
-86 567 258 1100 811 1258 164 47 344 54 523 20z m-3574 -1145 c0 -14 -4 -105
-9 -202 l-8 -178 -228 0 c-136 0 -287 -6 -376 -16 -82 -8 -158 -16 -169 -17
-18 -2 -22 15 -51 193 -17 107 -30 198 -28 201 2 4 29 10 60 14 31 4 66 8 78
10 75 13 148 18 361 24 132 3 269 4 305 1 61 -5 65 -6 65 -30z m1185 -150 c80
-26 193 -71 250 -100 103 -51 270 -154 270 -165 0 -12 -241 -315 -250 -315 -5
0 -42 21 -82 47 -131 85 -347 168 -531 203 -53 11 -66 17 -63 29 3 9 17 77 31
151 14 74 30 158 36 186 l10 51 92 -19 c51 -11 157 -42 237 -68z m-2830 -259
c38 -127 54 -194 46 -197 -6 -2 -96 -31 -200 -65 -103 -33 -272 -92 -374 -130
-101 -38 -186 -68 -188 -67 -11 12 -144 364 -140 373 2 7 31 22 63 33 32 11
90 33 128 47 120 47 590 205 599 202 4 -2 34 -90 66 -196z m-12545 -111 c970
-53 1792 -190 2710 -454 621 -178 956 -308 1190 -461 139 -90 195 -159 195
-239 0 -98 -98 -310 -302 -656 -64 -107 -185 -316 -271 -465 -85 -148 -205
-355 -267 -460 -552 -935 -719 -1235 -1006 -1810 l-224 -449 -151 -151 c-154
-153 -264 -276 -352 -397 -27 -38 -53 -68 -57 -68 -5 0 -11 19 -15 43 -22 132
-130 371 -227 502 -66 88 -202 224 -293 292 -79 59 -226 138 -330 177 -582
217 -1247 0 -1592 -519 -110 -167 -190 -365 -208 -520 -3 -27 -8 -61 -11 -74
-3 -14 -5 -84 -5 -156 0 -72 2 -142 5 -156 3 -13 8 -46 11 -74 8 -69 41 -185
78 -275 250 -607 881 -947 1519 -819 243 49 447 151 641 322 l67 59 0 -48 c0
-75 35 -454 84 -929 46 -432 81 -778 91 -890 3 -33 8 -78 10 -100 2 -22 7 -69
10 -105 4 -36 8 -81 10 -100 3 -19 7 -64 10 -100 3 -36 73 -717 156 -1515 82
-797 170 -1646 195 -1885 24 -239 55 -541 69 -670 14 -129 27 -262 30 -295 3
-33 8 -78 10 -100 2 -22 7 -69 11 -105 3 -36 7 -78 9 -95 2 -16 6 -61 9 -100
4 -38 9 -86 12 -105 2 -19 7 -60 9 -90 6 -67 3 -33 120 -1155 90 -860 191
-1813 290 -2745 24 -228 47 -444 50 -480 3 -36 8 -81 10 -100 10 -81 15 -129
20 -190 11 -119 154 -1401 190 -1694 43 -355 62 -573 75 -866 38 -857 -37
-1873 -241 -3280 -16 -113 -32 -223 -35 -245 -5 -40 -9 -64 -18 -120 -3 -16
-8 -52 -11 -80 -50 -402 -122 -696 -224 -908 -120 -248 -316 -445 -530 -533
l-63 -25 -576 15 c-1259 34 -2403 59 -3402 76 -1255 20 -1312 22 -1563 65
-483 83 -828 280 -971 555 -43 82 -64 144 -71 212 -3 29 -8 69 -10 88 -3 19
-7 64 -10 100 -11 125 -300 2841 -405 3810 -27 250 -52 484 -55 520 -3 36 -8
79 -10 96 -2 16 -6 57 -10 90 -3 32 -8 73 -10 89 -2 17 -6 62 -10 100 -3 39
-24 230 -46 425 -90 805 -103 891 -176 1110 -94 283 -285 580 -485 751 -40 34
-74 66 -76 71 -2 4 9 8 25 9 15 0 35 2 43 4 8 1 31 5 50 9 198 32 418 133 596
271 250 195 426 487 491 812 26 131 23 376 -5 510 -66 306 -212 557 -444 759
-158 138 -335 231 -548 286 -100 27 -137 31 -290 35 -133 4 -197 1 -267 -11
-184 -32 -378 -109 -538 -214 -95 -63 -299 -268 -364 -367 -222 -339 -283
-752 -170 -1138 55 -186 175 -400 293 -521 l31 -31 -225 0 c-131 0 -263 -6
-315 -13 -49 -8 -285 -55 -525 -107 -239 -51 -556 -119 -705 -150 -148 -30
-322 -67 -385 -80 -543 -115 -2336 -477 -2520 -509 -47 -8 -241 -44 -431 -80
-191 -36 -525 -97 -743 -136 -471 -83 -584 -107 -782 -161 -1154 -315 -2138
-1020 -2697 -1934 -44 -71 -133 -213 -197 -315 -64 -102 -205 -326 -314 -498
-306 -486 -752 -1188 -872 -1372 -34 -52 -181 -279 -326 -505 -537 -832 -1164
-1781 -1715 -2595 -755 -1116 -1173 -2187 -1314 -3370 -15 -128 -22 -262 -26
-497 -6 -340 2 -500 37 -738 15 -99 118 -1056 166 -1535 3 -30 7 -75 9 -100 7
-64 16 -160 20 -195 2 -16 6 -59 9 -95 8 -73 22 -215 211 -2015 159 -1518 193
-1843 200 -1910 2 -27 13 -131 24 -230 11 -99 23 -212 26 -250 3 -39 8 -84 10
-100 2 -17 6 -61 10 -100 4 -38 8 -83 10 -100 2 -16 6 -59 10 -95 13 -134 269
-2576 385 -3680 31 -295 35 -809 10 -1180 -47 -662 -166 -1289 -354 -1855
-430 -1294 -1198 -2257 -2305 -2890 -594 -339 -1332 -594 -2111 -729 -19 -3
-45 -8 -56 -10 -83 -16 -437 -63 -614 -80 -1333 -134 -2806 -22 -3796 288
-568 178 -1030 411 -1409 713 -136 107 -353 324 -461 459 -409 511 -632 1126
-689 1899 -2 22 -3 167 -4 323 -1 306 10 500 44 767 2 17 6 53 10 80 28 228
120 656 199 931 80 277 135 428 224 619 44 94 593 1266 1220 2605 627 1339
1160 2478 1185 2530 25 52 72 154 105 225 64 139 422 902 503 1073 27 56 49
104 49 106 0 2 34 75 76 162 42 88 155 328 251 534 96 206 205 440 243 520 38
80 149 316 248 525 627 1327 1365 2806 2034 4080 1179 2242 2276 4136 3433
5930 280 435 738 1107 899 1320 121 161 850 1110 856 1115 3 3 100 128 216
278 248 324 1329 1724 1623 2102 995 1278 1527 1961 1917 2460 812 1038 1392
1778 1619 2065 122 154 331 420 465 590 927 1179 3185 4016 3539 4446 53 64
188 230 301 370 793 984 1675 2044 2364 2839 1250 1442 2156 2348 3206 3204
113 92 259 211 325 265 66 54 278 222 470 372 193 151 548 431 791 621 473
372 584 454 794 595 482 322 1166 680 1945 1017 l150 65 390 0 c215 1 476 -4
580 -9z m14696 -359 c530 -71 762 -202 853 -479 39 -120 57 -209 71 -367 3
-33 21 -224 40 -425 49 -517 250 -2702 339 -3685 79 -877 80 -889 96 -1085 9
-110 14 -164 34 -370 3 -25 8 -79 11 -120 5 -67 66 -739 230 -2555 30 -335 77
-862 105 -1170 28 -308 57 -632 65 -720 8 -88 17 -194 20 -235 4 -41 8 -93 10
-115 4 -43 12 -132 20 -230 8 -109 16 -197 40 -465 14 -146 27 -292 30 -325 3
-33 7 -85 10 -115 3 -30 30 -334 60 -675 30 -341 57 -636 60 -656 l5 -36 -62
-7 c-34 -3 -63 -5 -64 -3 -3 3 -29 264 -39 387 -3 41 -8 91 -10 110 -4 38 -12
120 -30 330 -3 30 -12 127 -20 215 -9 88 -18 183 -20 210 -15 166 -91 975
-220 2335 -116 1223 -221 2335 -230 2440 -9 104 -16 185 -21 230 -2 25 -7 74
-10 110 -7 86 -287 3030 -369 3885 -35 369 -67 702 -70 740 -3 39 -8 86 -10
105 -2 19 -6 62 -9 95 -15 165 -17 193 -22 235 -2 25 -6 72 -9 105 -3 33 -21
222 -41 420 -95 983 -102 1032 -151 1169 -119 328 -321 527 -660 649 -40 15
-80 31 -90 36 -10 5 -42 17 -70 26 -29 9 -53 18 -53 21 0 7 35 4 181 -15z
m-3689 -163 c51 -95 94 -175 96 -179 2 -4 -41 -31 -95 -60 -54 -29 -217 -117
-362 -196 -145 -79 -269 -142 -275 -140 -12 5 -201 346 -195 351 2 2 108 60
234 129 127 69 286 157 355 195 69 39 130 71 137 71 6 1 53 -76 105 -171z
m5402 -185 c16 -54 47 -236 60 -353 32 -285 48 -481 42 -488 -6 -6 -312 -40
-377 -41 l-26 -1 -12 138 c-21 249 -52 501 -71 578 -16 67 -16 76 -2 81 17 7
363 101 374 102 4 1 9 -7 12 -16z m-6862 -620 c54 -97 96 -178 95 -179 -2 -2
-680 -375 -713 -392 -19 -10 -27 2 -119 170 -55 100 -95 183 -90 185 6 2 168
91 360 198 193 107 355 194 360 194 6 1 54 -79 107 -176z m-1457 -809 c52 -93
91 -172 87 -176 -11 -10 -712 -398 -720 -398 -8 0 -206 350 -200 355 24 22
725 401 731 395 5 -4 51 -84 102 -176z m8505 -261 c0 -10 16 -184 35 -388 19
-203 35 -384 35 -401 l0 -31 -201 -17 c-110 -10 -201 -16 -203 -15 -7 10 -76
821 -71 830 4 5 9 8 13 5 4 -2 86 4 182 14 96 10 183 18 193 19 10 1 17 -6 17
-16z m-9965 -539 c54 -97 93 -179 89 -184 -19 -18 -708 -400 -717 -397 -10 3
-197 331 -197 346 0 7 246 148 465 267 33 18 103 57 155 87 52 31 98 56 101
56 4 1 51 -78 104 -175z m-1450 -820 c53 -96 95 -177 93 -180 -3 -2 -165 -96
-361 -208 -354 -203 -357 -205 -371 -183 -75 116 -186 324 -179 335 9 14 692
410 709 411 7 1 56 -78 109 -175z m11565 -296 c1 -7 18 -194 39 -415 l37 -403
-30 -5 c-68 -10 -370 -34 -375 -29 -7 7 -80 818 -74 824 4 5 302 36 371 39 19
0 32 -4 32 -11z m-13011 -531 c56 -95 101 -176 101 -179 0 -3 -53 -37 -119
-76 -65 -39 -217 -137 -337 -217 -144 -96 -223 -143 -232 -138 -19 12 -231
316 -226 325 6 9 298 206 414 278 88 55 293 180 296 180 1 0 47 -78 103 -173z
m-3407 -172 c228 -39 431 -146 599 -314 219 -219 332 -488 333 -791 0 -124 0
-127 -46 -255 -25 -71 -51 -157 -58 -190 -14 -70 -26 -94 -93 -195 -106 -159
-311 -328 -486 -401 -41 -17 -118 -43 -170 -57 -86 -23 -114 -26 -276 -26
-165 0 -188 3 -280 27 -121 33 -297 117 -385 185 -84 63 -214 200 -269 281
-258 380 -254 884 11 1268 57 83 219 242 298 294 128 85 283 147 427 173 104
19 290 19 395 1z m41698 -530 c129 -53 1309 -526 2623 -1052 1313 -526 2387
-960 2387 -964 0 -4 -12 -10 -26 -13 -33 -9 -251 -95 -327 -130 -32 -14 -60
-26 -63 -26 -4 0 -117 -56 -253 -124 -395 -198 -615 -289 -896 -371 -648 -187
-1292 -185 -1783 7 -162 63 -246 129 -517 402 -404 409 -681 828 -990 1501
-54 116 -110 239 -127 275 -69 151 -176 373 -230 478 -33 64 -52 112 -45 112
7 0 118 -43 247 -95z m-39637 -269 c75 -79 137 -146 137 -149 0 -3 -37 -43
-82 -89 -153 -156 -290 -333 -352 -455 l-26 -52 -73 33 c-120 56 -292 138
-296 142 -6 5 78 154 137 243 31 47 90 126 131 175 79 96 269 296 281 296 4 0
68 -65 143 -144z m14507 -148 c6 -34 76 -824 73 -827 -6 -7 -395 -43 -401 -37
-6 7 -81 819 -76 825 6 7 403 44 404 39z m-14916 -1360 c3 -35 22 -220 42
-412 26 -258 33 -351 24 -356 -13 -8 -388 -45 -394 -39 -5 5 -75 697 -78 774
l-3 60 175 16 c96 9 187 17 202 18 25 1 27 -1 32 -61z m15070 -357 c4 -32 9
-89 12 -127 3 -38 16 -189 30 -336 13 -148 24 -278 24 -291 0 -23 -3 -24 -142
-36 -79 -6 -171 -14 -204 -18 l-61 -5 -8 98 c-3 55 -8 117 -10 139 -2 22 -7
69 -10 105 -7 78 -14 159 -20 220 -2 25 -7 77 -10 115 -3 39 -8 90 -10 115 -3
38 -1 46 13 46 16 1 75 6 232 20 36 3 66 6 67 7 1 1 22 3 46 5 l44 2 7 -59z
m-14909 -1253 c5 -14 85 -769 85 -803 0 -19 -12 -22 -201 -41 -135 -13 -202
-16 -204 -9 -5 16 -86 817 -83 820 2 2 307 37 386 44 7 0 15 -5 17 -11z
m15055 -360 c0 -7 16 -192 36 -411 20 -219 33 -401 30 -405 -6 -5 -398 -44
-401 -39 -4 4 -76 830 -73 832 3 2 328 31 376 34 19 0 32 -4 32 -11z m43150
-3598 c1829 -733 4054 -1625 4945 -1982 891 -358 2174 -872 2850 -1143 677
-271 1583 -635 2015 -808 432 -173 1674 -671 2760 -1107 1086 -436 2387 -958
2890 -1160 503 -202 1417 -568 2030 -815 1768 -709 1978 -797 2332 -971 411
-204 614 -339 808 -540 209 -216 306 -429 366 -799 24 -148 31 -626 11 -720
-19 -89 -55 -185 -69 -185 -10 0 -519 221 -695 301 -102 47 -1134 500 -1183
519 -90 36 -1941 859 -2394 1064 -142 65 -303 135 -357 156 -550 214 -1074
197 -1442 -47 -94 -62 -225 -188 -297 -284 -68 -91 -149 -246 -184 -351 -21
-63 -53 -230 -90 -480 -3 -21 -9 -55 -12 -75 -33 -220 -187 -1122 -279 -1631
-20 -111 -87 -252 -178 -375 -63 -85 -207 -240 -269 -289 l-38 -29 -922 -95
c-508 -51 -1170 -119 -1473 -149 -1062 -107 -1451 -147 -2740 -280 -1278 -132
-2032 -208 -2170 -220 -38 -3 -83 -7 -100 -10 -16 -2 -61 -7 -100 -10 -38 -2
-100 -7 -136 -11 -63 -5 -78 -1 -245 54 -236 79 -338 119 -524 208 -582 279
-1139 692 -1579 1170 -136 148 -242 244 -401 361 -441 324 -1056 638 -1621
827 -563 188 -990 229 -1524 145 -690 -108 -1386 -409 -3105 -1344 -472 -256
-709 -370 -1088 -519 -497 -197 -1208 -384 -1712 -451 -25 -3 -56 -8 -70 -10
-48 -7 -105 -15 -160 -20 -30 -3 -89 -10 -130 -15 -74 -10 -79 -9 -250 40
-244 71 -366 109 -665 207 -232 76 -675 231 -683 238 -2 1 27 24 64 50 253
181 386 364 534 734 70 176 153 474 175 626 3 23 7 50 9 61 4 18 9 59 21 154
30 241 31 866 1 1265 -9 116 -18 248 -21 295 -3 47 -8 108 -10 135 -2 28 -7
86 -10 130 -17 234 -180 1877 -300 3012 -18 177 -38 330 -43 340 -25 46 62
258 176 432 184 279 415 519 978 1012 203 179 518 462 689 618 326 300 697
719 891 1006 230 341 361 634 431 961 25 118 27 148 28 354 0 197 -3 239 -23
340 -49 242 -160 502 -311 730 -141 213 -280 366 -589 648 -251 228 -492 453
-642 596 -308 296 -800 779 -800 786 0 4 744 -290 1653 -655 908 -364 3148
-1262 4977 -1995z m-57996 1933 c21 -208 40 -396 43 -418 l5 -41 -198 -20
c-110 -12 -202 -18 -206 -15 -7 7 -93 820 -87 826 2 2 33 7 69 10 36 4 76 8
90 10 14 1 66 6 115 10 50 4 92 9 94 11 2 2 12 4 20 4 14 0 22 -55 55 -377z
m14990 9 c10 -16 77 -815 69 -822 -8 -7 -393 -44 -398 -38 -6 8 -75 822 -70
827 4 3 84 13 178 22 217 21 215 21 221 11z m-14854 -1309 c0 -9 18 -194 41
-411 22 -216 38 -396 35 -399 -5 -5 -329 -42 -376 -43 l-26 0 -42 411 c-24
226 -41 413 -39 415 4 5 324 41 375 43 24 1 32 -3 32 -16z m15015 -431 c4 -48
8 -106 11 -129 2 -23 6 -73 9 -110 7 -89 15 -187 20 -243 2 -25 7 -70 9 -100
3 -30 8 -80 11 -111 l5 -55 -148 -13 c-81 -7 -172 -15 -203 -18 l-57 -6 -6 39
c-3 22 -8 77 -11 123 -3 47 -8 103 -10 125 -2 23 -6 75 -10 116 -3 41 -8 93
-10 115 -2 22 -6 72 -9 110 -3 39 -9 102 -12 141 l-6 71 33 1 c19 1 54 4 79 7
25 2 81 7 125 11 44 3 81 7 82 7 1 1 22 3 46 4 l45 2 7 -87z m27818 -277 c61
-22 152 -104 168 -152 15 -46 7 -137 -17 -185 -23 -49 -34 -48 -34 2 0 175
-239 256 -354 120 -33 -40 -33 -78 -1 -195 63 -223 115 -506 136 -735 17 -182
6 -459 -25 -642 -32 -186 -49 -246 -89 -305 -35 -52 -119 -115 -142 -107 -8 3
-24 36 -36 72 -45 136 -112 249 -240 398 -110 128 -100 123 -156 75 -144 -121
-321 -124 -450 -8 -49 45 -91 121 -99 181 -7 46 5 62 23 33 4 -8 29 -30 55
-49 58 -45 130 -64 185 -49 41 11 154 81 150 93 -4 14 -226 184 -392 301 -338
239 -348 248 -307 289 27 28 241 82 383 98 144 16 389 8 474 -15 175 -47 257
-130 286 -288 15 -82 3 -148 -48 -259 l-36 -77 68 -73 c36 -40 87 -103 113
-140 25 -36 50 -64 55 -61 8 5 3 400 -6 443 -3 14 -11 63 -17 110 -22 168 -83
416 -166 675 -46 142 -56 264 -26 311 37 58 125 113 230 144 82 24 240 22 315
-5z m-42659 -992 c7 -66 15 -150 21 -207 2 -22 6 -62 10 -90 3 -28 7 -73 10
-101 3 -27 9 -86 15 -130 5 -44 12 -117 15 -162 l7 -82 -34 -5 c-100 -17 -360
-38 -368 -30 -4 5 -11 43 -14 84 -3 41 -21 223 -40 405 -19 181 -34 331 -32
332 4 4 327 40 373 42 31 1 31 0 37 -56z m40997 -118 c33 -13 88 -44 122 -68
69 -49 200 -183 193 -196 -3 -5 -29 3 -58 17 -152 72 -428 -15 -600 -191 -67
-69 -100 -136 -106 -218 -10 -146 77 -295 185 -315 81 -15 199 73 228 168 8
29 15 69 15 89 0 59 -37 145 -91 209 -27 33 -49 64 -49 69 0 12 23 16 174 31
125 13 113 18 205 -95 254 -315 386 -592 407 -855 l6 -85 -54 -90 c-71 -117
-135 -212 -147 -220 -7 -3 -8 38 -4 114 9 177 -18 311 -99 494 -35 82 -126
241 -178 314 l-37 52 -6 -52 c-18 -146 -163 -309 -315 -353 -43 -13 -65 -14
-114 -5 -90 16 -145 47 -224 125 -149 149 -236 418 -191 593 23 87 71 182 125
244 49 56 179 157 246 191 122 63 263 76 367 33z m-26027 -102 c3 -21 8 -73
12 -115 6 -76 6 -78 -16 -78 -12 0 -103 -7 -202 -16 -99 -8 -181 -14 -183 -12
-4 4 -23 212 -19 216 1 2 87 12 191 22 103 10 193 18 200 19 6 0 14 -16 17
-36z m24965 -683 c275 -52 518 -341 538 -641 4 -57 2 -88 -5 -93 -22 -13 -171
-19 -185 -7 -8 6 -17 41 -21 79 -4 37 -9 81 -11 97 -27 199 -42 240 -103 280
-47 31 -99 37 -166 20 -110 -29 -228 -120 -276 -214 l-21 -42 59 -72 c65 -81
124 -159 195 -255 40 -56 47 -72 46 -111 -1 -59 -41 -234 -54 -237 -5 -2 -39
40 -75 93 -36 53 -85 122 -110 154 -25 32 -72 92 -104 134 -70 90 -101 109
-166 103 -65 -6 -127 -39 -244 -127 -200 -151 -265 -234 -266 -338 0 -43 9
-69 51 -153 29 -55 49 -103 46 -106 -3 -3 -32 7 -64 22 -113 56 -290 38 -470
-46 -107 -50 -164 -90 -243 -171 -177 -179 -232 -394 -168 -652 49 -201 201
-418 335 -480 68 -31 193 -31 285 1 124 43 315 174 359 246 29 48 24 90 -22
175 -83 151 -187 294 -416 572 -73 89 -133 165 -133 170 0 5 8 9 18 10 9 0 24
2 33 4 29 5 206 18 231 16 21 -1 245 -269 335 -401 120 -176 233 -418 233
-500 0 -24 -8 -32 -42 -50 -24 -12 -110 -75 -193 -142 -246 -197 -339 -259
-472 -316 -196 -84 -389 -62 -536 60 -204 170 -373 461 -432 745 -24 113 -21
299 5 404 45 182 152 340 336 496 92 78 146 115 230 157 134 66 254 80 365 42
24 -8 45 -14 46 -12 2 1 -1 16 -7 32 -37 109 -2 223 106 343 93 103 292 250
431 318 70 34 86 37 159 38 l82 0 5 61 c6 77 28 123 85 180 99 96 250 141 391
114z m-39768 -717 c0 -10 19 -196 42 -413 l43 -395 -26 -6 c-45 -12 -371 -42
-378 -35 -7 8 -93 818 -87 824 2 3 17 6 32 7 85 9 156 16 223 21 41 3 77 8 79
10 2 2 19 4 38 4 25 0 33 -4 34 -17z m40004 -174 c51 -53 76 -60 186 -58 55 1
102 -1 105 -4 7 -6 -15 -140 -26 -156 -8 -13 -110 -18 -162 -8 -51 11 -103 73
-128 155 -21 67 -25 102 -12 102 4 0 21 -14 37 -31z m-49095 -353 c165 -46
327 -132 459 -246 184 -158 320 -398 366 -645 24 -125 16 -356 -15 -474 -124
-468 -518 -805 -995 -850 -448 -43 -898 207 -1101 612 -337 669 44 1457 781
1617 133 29 372 22 505 -14z m46159 -881 c65 -33 645 -709 842 -980 101 -140
169 -253 169 -282 0 -16 -115 -208 -130 -218 -4 -2 -28 30 -53 73 -90 152
-426 594 -562 737 -39 43 -46 46 -41 25 21 -101 26 -209 16 -331 -15 -169 -39
-227 -112 -265 -76 -40 -114 -14 -273 186 -74 93 -145 176 -157 184 -62 44
-160 -1 -377 -173 -103 -80 -252 -227 -288 -282 l-28 -44 0 -175 c-1 -195 -7
-221 -77 -290 -56 -56 -109 -74 -225 -74 -113 -1 -110 3 -44 -69 52 -56 102
-79 171 -78 125 0 231 93 276 240 7 25 14 56 14 69 0 36 18 26 54 -30 48 -77
60 -119 46 -165 -30 -94 -110 -193 -215 -268 -131 -93 -289 -101 -407 -19 -55
38 -143 153 -188 245 -36 74 -37 75 -65 66 -53 -18 -148 -80 -192 -124 -68
-70 -70 -136 -9 -255 19 -38 31 -68 26 -68 -4 0 -28 9 -54 21 -83 36 -204 25
-311 -28 -134 -67 -246 -175 -306 -295 -55 -108 -51 -255 9 -343 74 -107 172
-113 275 -16 52 48 71 97 71 186 0 95 -18 143 -87 227 -34 41 -43 59 -34 66
13 10 108 27 204 38 l62 6 34 -38 c19 -22 85 -97 147 -169 218 -250 392 -420
535 -526 69 -51 77 -59 70 -77 -3 -8 -10 -56 -17 -108 -13 -111 -13 -111 -114
-58 -167 89 -337 236 -557 483 l-102 113 -6 -58 c-12 -125 -119 -269 -244
-330 -53 -25 -71 -29 -150 -29 -81 0 -95 3 -143 30 -152 84 -244 272 -245 500
-1 114 15 184 65 295 65 144 220 315 339 374 103 52 177 54 283 11 17 -8 17
-6 2 23 -25 48 -21 133 10 199 31 65 109 144 190 193 53 32 67 35 146 38 l88
4 0 43 c0 24 8 70 19 104 63 203 213 293 387 231 l56 -19 -6 22 c-19 62 -22
127 -8 173 11 39 31 65 109 142 182 179 405 358 523 419 103 53 200 32 318
-66 84 -70 143 -136 275 -305 15 -20 35 -36 44 -36 14 0 15 15 9 130 -10 212
-39 363 -117 591 -27 80 -49 153 -49 162 0 18 46 57 67 57 8 0 27 -7 42 -15z
m-36849 -659 c22 -219 40 -399 38 -401 -4 -4 -401 -45 -403 -42 -6 6 -86 791
-83 810 3 21 11 23 198 42 175 19 196 19 202 5 3 -8 25 -194 48 -414z m36427
-577 c43 -6 80 -12 82 -15 7 -7 0 -189 -9 -198 -4 -4 -49 -4 -101 0 l-93 9 -6
30 c-3 17 -4 65 -2 108 4 89 -4 85 129 66z m-47173 -551 c-3 -106 -7 -198 -9
-204 -2 -7 -50 -13 -127 -17 -97 -4 -175 -17 -363 -58 -132 -29 -251 -53 -264
-53 -23 -1 -26 5 -43 89 -11 50 -29 138 -42 197 l-23 107 71 15 c39 9 154 34
256 56 216 48 285 57 438 59 l113 1 -7 -192z m977 -116 c84 -64 215 -203 274
-291 66 -100 129 -230 166 -344 18 -53 30 -98 28 -100 -2 -2 -87 -25 -189 -52
-102 -26 -190 -50 -196 -52 -6 -2 -18 23 -27 55 -24 88 -109 249 -170 323 -30
36 -84 89 -121 118 -37 29 -66 57 -64 60 14 33 216 331 224 331 6 0 40 -22 75
-48z m9899 13 c0 -3 9 -83 19 -178 11 -94 22 -201 25 -237 4 -36 8 -81 10
-100 3 -19 10 -87 16 -150 6 -63 13 -127 16 -141 l5 -25 -202 -23 c-111 -12
-203 -20 -205 -19 -1 2 -5 28 -8 58 -4 30 -8 66 -11 80 -2 14 -9 77 -15 140
-6 63 -12 129 -15 146 -2 17 -6 58 -10 90 -3 33 -8 73 -10 89 -2 17 -7 66 -10
110 -4 44 -9 88 -11 98 -3 9 -4 17 -2 18 2 0 91 11 198 24 107 12 198 23 203
24 4 0 7 -1 7 -4z m-12514 -208 c23 -106 38 -195 35 -199 -6 -6 -174 -42 -605
-129 -109 -23 -202 -37 -206 -32 -8 8 -80 347 -80 374 0 13 45 25 223 63 122
25 303 63 402 84 99 21 182 37 185 35 2 -2 23 -91 46 -196z m-1633 -336 c24
-121 35 -196 29 -200 -16 -10 -802 -164 -808 -158 -13 13 -80 392 -70 396 25
10 773 159 791 158 17 -2 24 -25 58 -196z m3468 -47 c282 -59 414 -215 444
-524 3 -30 8 -66 10 -80 3 -14 7 -47 10 -75 2 -27 32 -293 65 -590 101 -913
328 -3021 345 -3210 3 -33 8 -77 10 -98 3 -21 7 -63 10 -95 3 -31 8 -75 10
-97 3 -22 7 -67 10 -100 3 -33 44 -422 90 -865 79 -748 99 -912 124 -998 6
-18 7 -32 3 -30 -4 2 -40 20 -81 42 -93 48 -256 102 -369 121 -51 9 -147 16
-232 16 -229 0 -426 -46 -618 -146 -52 -26 -85 -39 -87 -31 -2 9 -89 935 -111
1186 -2 30 -6 75 -9 100 -2 25 -7 79 -10 120 -6 70 -40 432 -180 1920 -30 322
-67 711 -81 865 -15 154 -27 281 -28 282 -1 1 -258 -26 -571 -62 -314 -35
-599 -66 -634 -70 -36 -4 -79 -8 -95 -10 -17 -2 -56 -7 -86 -10 -30 -3 -73 -8
-95 -10 -22 -3 -65 -7 -95 -10 -30 -2 -75 -7 -100 -10 -274 -31 -3106 -344
-3137 -347 l-43 -3 -4 165 c-2 91 -6 179 -10 195 -4 17 -11 54 -17 83 -6 29
-23 90 -38 135 -159 468 -565 818 -1045 902 -49 8 -92 17 -94 20 -5 5 -7 4
153 63 169 61 465 142 610 165 93 16 223 38 245 42 30 6 122 22 170 30 19 3
85 15 145 26 61 11 124 23 140 26 349 60 1724 329 2610 509 325 66 1865 389
1950 409 60 14 288 61 335 69 72 12 280 2 381 -20z m-5101 -269 c20 -108 33
-198 29 -201 -15 -9 -783 -145 -803 -142 -21 3 -26 28 -71 308 -3 19 -8 47
-10 63 -3 15 -1 27 3 27 10 0 703 125 767 138 22 4 42 7 44 5 2 -1 21 -91 41
-198z m49461 -156 c57 -19 91 -52 184 -175 103 -138 205 -265 248 -311 l30
-32 -23 -143 c-12 -79 -25 -149 -29 -156 -13 -24 -200 193 -414 480 -48 64
-99 126 -113 137 -50 39 -97 23 -173 -59 l-33 -35 7 30 c9 44 50 126 93 184
59 81 137 108 223 80z m-51089 -190 c55 -162 62 -192 49 -196 -138 -49 -365
-146 -517 -223 l-192 -96 -102 175 c-96 164 -101 176 -83 189 91 67 703 339
769 342 7 0 41 -86 76 -191z m8102 -461 c4 -35 9 -88 12 -118 3 -30 19 -173
35 -318 38 -348 39 -328 -13 -336 -115 -16 -350 -37 -355 -32 -5 4 -46 354
-66 566 -3 30 -11 99 -18 153 -6 54 -9 100 -6 103 3 3 20 7 38 9 19 2 54 7 79
9 25 3 79 9 120 12 41 4 77 8 79 10 2 2 23 4 46 4 l42 0 7 -62z m9491 -11 c15
-73 58 -503 71 -713 l6 -111 -28 -1 c-16 0 -105 -6 -199 -11 -93 -6 -172 -7
-176 -3 -3 4 -14 106 -23 227 -9 121 -25 298 -37 392 -12 95 -19 179 -16 187
4 9 32 16 89 21 46 4 91 9 100 10 9 2 45 7 80 10 34 4 64 7 65 8 1 1 15 3 32
4 25 2 32 -2 36 -20z m-18992 -385 l107 -121 -75 -67 c-41 -38 -119 -118 -174
-178 -86 -96 -129 -148 -254 -310 l-23 -29 -164 112 c-91 61 -166 115 -167
119 -4 10 129 185 236 311 51 61 150 166 219 233 l125 122 31 -36 c17 -20 79
-90 139 -156z m53147 74 l0 -84 -67 -7 c-38 -4 -84 -8 -103 -9 l-35 -1 -3 78
c-2 50 1 84 9 93 8 10 37 14 105 14 l94 0 0 -84z m7800 -145 c25 -6 54 -16 65
-21 11 -5 54 -21 95 -35 199 -69 412 -237 539 -423 90 -134 169 -336 186 -477
8 -68 8 -277 0 -315 -3 -14 -8 -41 -11 -60 -33 -191 -157 -422 -309 -575 -434
-436 -1126 -445 -1572 -22 -243 231 -366 536 -350 871 7 154 40 283 107 423
68 144 141 242 276 371 96 92 127 115 206 153 201 99 340 129 563 124 88 -2
180 -8 205 -14z m-59500 -17 c559 -99 961 -616 925 -1193 -17 -272 -126 -512
-322 -708 -49 -48 -98 -95 -109 -103 -99 -78 -254 -158 -379 -196 -86 -27
-100 -28 -295 -29 -194 0 -210 2 -304 28 -343 95 -620 334 -752 649 -121 286
-121 609 0 888 42 98 131 236 187 290 121 117 332 270 427 309 199 82 402 103
622 65z m96869 -679 c232 -97 661 -274 743 -306 48 -19 88 -37 88 -40 0 -3
-37 -16 -82 -28 -269 -71 -519 -235 -697 -456 l-58 -72 -7 171 c-5 149 -17
270 -41 446 -7 46 -48 254 -60 303 -4 15 -4 27 0 27 4 0 55 -20 114 -45z
m-6552 -141 c133 -31 216 -63 578 -229 318 -145 1152 -517 1470 -655 105 -46
336 -148 515 -227 347 -155 1297 -573 1545 -680 83 -36 169 -74 192 -84 23
-10 47 -19 53 -19 29 0 -2 -24 -63 -50 -304 -130 -794 -258 -1217 -319 -80
-11 -383 -44 -675 -71 -291 -28 -890 -86 -1330 -130 -440 -43 -827 -81 -860
-85 -33 -3 -81 -7 -106 -10 -111 -11 -158 -16 -214 -21 -33 -3 -76 -7 -95 -9
-19 -2 -85 -9 -147 -15 -61 -5 -133 -13 -160 -15 -109 -12 -131 -15 -203 -21
-41 -3 -129 -12 -195 -19 -66 -7 -121 -11 -122 -11 -1 1 15 47 37 103 41 105
78 244 105 398 28 155 35 199 41 235 3 19 7 42 9 50 3 8 7 33 10 55 4 22 31
182 61 355 30 173 90 531 133 795 66 402 83 489 105 533 86 169 247 213 533
146z m-91861 -317 c0 -155 3 -183 28 -282 100 -390 325 -684 676 -883 156 -88
393 -153 552 -153 31 0 59 -3 62 -8 3 -4 -83 -130 -192 -279 -551 -756 -2361
-3247 -2577 -3547 -88 -121 -162 -222 -165 -225 -3 -3 -22 -27 -40 -55 -30
-43 -51 -71 -88 -120 -4 -5 -187 -257 -406 -560 -257 -353 -402 -562 -407
-585 -5 -19 -9 -59 -9 -89 0 -62 0 -62 -88 -3 -135 90 -296 157 -465 194 -137
29 -408 32 -537 4 -239 -51 -443 -149 -620 -300 -35 -30 -66 -54 -67 -52 -6 6
110 331 172 483 94 228 306 648 438 868 62 105 328 510 589 900 665 994 1270
1917 1870 2855 281 440 829 1304 1038 1638 128 204 233 372 234 372 0 0 1 -78
2 -173z m-934 -63 c84 -53 159 -102 166 -109 10 -9 -31 -80 -208 -361 -121
-192 -224 -349 -228 -349 -20 0 -341 212 -337 222 4 13 411 659 428 681 5 6
13 12 18 12 4 0 77 -43 161 -96z m10746 -301 c23 -219 42 -407 42 -419 0 -19
-11 -21 -197 -41 -109 -11 -200 -18 -202 -16 -5 3 -90 767 -91 809 0 19 11 22
188 41 103 11 194 21 202 22 14 1 22 -60 58 -396z m9281 310 l84 -6 -6 -211
c-3 -116 -11 -304 -18 -418 l-12 -208 -36 0 c-77 2 -361 27 -367 33 -4 4 -2
91 5 194 7 104 15 286 18 406 l6 217 121 0 c67 0 159 -3 205 -7z m80627 -58
c44 -8 93 -16 109 -19 17 -2 31 -5 33 -6 1 -2 7 -4 12 -5 6 -1 11 -3 13 -5 1
-1 10 -3 21 -5 10 -2 56 -22 103 -44 216 -104 391 -270 506 -481 36 -65 82
-178 91 -222 24 -116 35 -185 41 -253 7 -89 -7 -247 -31 -340 -9 -33 -18 -67
-19 -75 -2 -8 -4 -16 -5 -17 -2 -2 -3 -6 -5 -10 -5 -19 -17 -49 -27 -67 -5
-10 -11 -27 -13 -37 -5 -27 -76 -146 -129 -216 -57 -76 -175 -188 -255 -242
-550 -374 -1286 -210 -1629 363 -50 82 -83 169 -113 296 -29 120 -36 374 -14
488 91 460 464 824 924 902 80 13 304 11 387 -5z m-22821 -1114 c341 -68 693
-192 1081 -380 460 -224 833 -471 1029 -681 372 -399 712 -691 1128 -968 103
-68 187 -128 187 -132 0 -4 -44 -10 -97 -13 -54 -4 -249 -18 -433 -32 -908
-67 -1745 -112 -2710 -147 -463 -17 -2031 -17 -2430 0 -1104 46 -1905 119
-2770 253 -107 17 -206 32 -220 35 -14 2 -43 7 -65 10 -22 4 -46 10 -52 13 -7
4 54 28 135 55 536 176 953 357 1487 646 873 472 1447 769 1815 938 509 234
950 376 1280 412 52 5 111 12 130 14 19 2 116 3 215 1 136 -2 207 -8 290 -24z
m-78728 -242 c87 -56 163 -106 170 -111 8 -6 -27 -69 -121 -216 -265 -415
-314 -487 -327 -486 -8 1 -87 49 -176 108 l-163 106 73 113 c40 61 142 219
226 350 84 130 154 237 156 237 2 0 75 -46 162 -101z m11777 -181 c12 -54 86
-801 81 -807 -5 -5 -396 -51 -401 -47 -3 2 -84 792 -84 812 0 20 10 22 183 41
100 11 190 21 199 22 11 0 20 -8 22 -21z m8931 -64 c88 -9 164 -20 169 -25 10
-9 1 -99 -50 -484 -42 -316 -45 -339 -48 -342 -7 -7 -392 53 -398 62 -4 5 -6
17 -3 25 2 8 6 33 9 55 3 22 17 128 32 235 29 217 30 226 45 360 16 146 15
143 52 137 18 -3 104 -13 192 -23z m-21600 -1161 c91 -60 165 -111 165 -115 0
-5 -440 -678 -454 -695 -1 -1 -79 48 -173 110 l-172 113 227 347 c125 191 230
347 235 347 4 0 82 -48 172 -107z m12864 -640 c25 -242 41 -323 91 -442 16
-41 30 -75 30 -77 0 -2 -81 -44 -180 -94 l-180 -90 -26 53 c-60 118 -113 311
-129 472 -10 101 -14 136 -26 248 -6 59 -10 110 -7 112 2 2 31 7 63 10 33 4
76 8 95 11 19 2 64 6 100 10 36 3 66 7 67 8 1 0 19 2 40 4 l39 2 23 -227z
m8423 167 c73 -11 149 -22 168 -25 105 -16 102 -14 96 -43 -3 -15 -15 -85 -26
-155 -45 -271 -160 -667 -194 -667 -15 0 -347 138 -359 150 -4 4 10 60 32 124
51 146 94 322 122 499 13 75 24 137 25 137 2 0 63 -9 136 -20z m1813 -305
c228 -49 407 -146 571 -309 172 -173 269 -352 315 -589 37 -191 19 -407 -51
-599 -172 -472 -671 -784 -1164 -729 -273 31 -479 127 -673 314 -106 103 -175
198 -238 329 -148 310 -148 646 0 955 171 358 484 587 880 643 80 12 273 4
360 -15z m-11549 -466 c164 -23 339 -91 485 -189 35 -24 105 -84 155 -134 241
-240 362 -578 326 -906 -48 -426 -306 -769 -703 -933 -329 -137 -751 -93
-1057 110 -288 191 -474 529 -489 888 -14 336 118 658 362 883 43 39 82 72 87
72 4 0 31 15 60 34 238 151 507 212 774 175z m-12451 -158 c77 -52 142 -96
144 -98 5 -4 -448 -681 -460 -689 -14 -8 -334 210 -333 227 1 9 104 167 230
352 l228 336 26 -17 c14 -9 88 -59 165 -111z m14453 -320 c141 -80 386 -172
565 -211 31 -7 57 -17 57 -22 0 -16 -80 -382 -85 -386 -17 -17 -385 93 -543
163 -128 56 -287 145 -287 161 0 17 200 333 212 333 6 1 42 -17 81 -38z m7108
-218 c59 -65 121 -132 137 -149 l29 -32 -69 -57 c-153 -129 -369 -251 -548
-310 -88 -30 -196 -55 -237 -55 l-28 0 3 204 2 205 63 16 c141 35 338 138 462
240 36 29 68 54 71 54 4 1 56 -52 115 -116z m874 -79 c0 -64 41 -237 81 -344
73 -195 177 -350 337 -500 189 -180 401 -290 663 -347 118 -25 409 -25 527 0
272 60 498 182 687 371 109 110 181 208 254 347 l48 90 7 -118 c26 -465 47
-873 57 -1143 14 -367 8 -745 -13 -804 -12 -38 -26 -48 -278 -198 -1656 -990
-3013 -1605 -4353 -1973 -1346 -369 -2699 -446 -4312 -245 -283 36 -324 41
-350 46 -10 2 -37 6 -60 9 -49 7 -83 13 -185 30 -46 8 -83 14 -122 20 -893
146 -2177 491 -3078 828 -307 115 -313 118 -322 158 -6 28 -69 685 -93 974 -4
39 -8 88 -10 110 -13 116 -55 560 -60 625 -3 41 -8 93 -10 115 -6 53 -13 125
-20 210 -3 39 -8 82 -11 98 -3 15 -2 27 3 27 4 0 46 -12 92 -25 269 -79 597
-68 851 28 351 133 648 418 781 752 71 178 99 328 99 528 0 75 2 137 6 137 3
0 35 -24 72 -54 423 -339 1075 -560 1790 -606 86 -5 504 -14 927 -20 1044 -14
2628 -48 3951 -85 544 -15 570 -14 725 25 367 94 739 314 1014 601 96 100 200
227 252 309 21 32 41 59 46 59 4 1 7 -15 7 -35z m-5752 -19 c14 -5 15 -80 5
-277 l-6 -128 -271 0 c-149 0 -335 3 -413 7 l-143 6 0 197 c0 108 2 199 5 202
6 6 803 -1 823 -7z m63234 -20 c92 -16 233 -62 313 -103 199 -100 386 -283
484 -472 69 -135 92 -204 126 -375 11 -60 5 -298 -11 -374 -81 -397 -360 -718
-736 -850 -304 -106 -618 -81 -900 71 -288 156 -478 400 -566 727 -23 85 -26
115 -26 266 0 152 3 180 27 268 70 262 218 481 432 642 121 91 328 178 484
205 79 13 284 11 373 -5z m-61657 -11 l101 -6 -4 -201 c-2 -111 -5 -203 -6
-203 -2 -3 -831 17 -833 20 -2 2 0 94 3 205 l7 202 316 -6 c174 -3 361 -8 416
-11z m1693 -40 l72 -6 0 -143 c0 -78 -3 -170 -7 -205 l-6 -62 -71 6 c-39 3
-226 8 -415 12 l-343 7 3 196 c2 108 5 200 8 205 4 9 626 0 759 -10z m-20680
-779 c1 -1 -36 -83 -83 -183 -84 -178 -200 -451 -224 -524 -7 -21 -14 -38 -16
-38 -5 0 -379 141 -383 144 -12 12 302 727 338 771 7 8 58 -13 187 -78 98 -49
179 -91 181 -92z m1122 -1040 c247 -41 444 -144 646 -341 160 -156 250 -335
302 -599 15 -76 8 -317 -12 -410 -24 -108 -40 -155 -91 -261 -190 -394 -634
-656 -1070 -631 -422 25 -783 267 -965 648 -298 627 42 1371 716 1564 163 47
312 56 474 30z m-1874 -425 c99 -23 184 -42 190 -44 7 -3 1 -49 -18 -140 -32
-158 -75 -442 -84 -568 l-7 -88 -31 1 c-79 1 -367 26 -373 32 -26 26 102 847
132 847 7 0 93 -18 191 -40z m105 -1686 c9 -54 88 -767 85 -771 -4 -5 -398
-44 -403 -39 -3 3 -21 150 -39 328 -19 178 -40 359 -48 403 -7 44 -11 82 -9
84 3 4 396 58 401 55 1 -1 7 -28 13 -60z m216 -2004 c23 -217 42 -402 42 -410
1 -13 -35 -19 -201 -37 -112 -11 -204 -20 -204 -19 -2 1 -44 384 -59 531 -21
212 -27 287 -21 293 10 9 290 40 351 39 l50 -2 42 -395z m127 -1272 c9 -42 86
-801 82 -806 -6 -5 -396 -46 -400 -41 -5 4 -86 772 -86 806 0 18 8 22 63 29
82 10 87 10 192 19 50 4 92 9 94 11 2 2 15 4 27 4 16 0 25 -7 28 -22z m171
-1640 c8 -24 87 -799 82 -811 -3 -9 -68 -19 -201 -32 -108 -10 -197 -17 -199
-14 -5 6 -89 821 -85 824 2 2 237 28 386 44 7 0 15 -5 17 -11z m58467 -53
c232 -49 419 -152 588 -325 144 -147 233 -305 292 -517 19 -67 22 -105 22
-263 1 -172 -1 -192 -27 -284 -112 -402 -419 -708 -817 -814 -81 -21 -118 -25
-250 -26 -181 -1 -232 5 -360 46 -250 80 -457 234 -597 444 -136 204 -196 399
-195 634 0 124 28 292 62 365 10 22 65 95 123 162 58 66 158 189 222 272 97
125 127 157 174 185 109 63 277 118 419 136 86 11 255 3 344 -15z m-58288
-1632 c5 -35 10 -87 21 -202 2 -25 6 -67 10 -95 3 -28 7 -73 10 -101 3 -27 10
-90 15 -140 5 -49 12 -117 15 -150 3 -33 8 -67 11 -77 3 -9 1 -19 -4 -22 -12
-7 -393 -47 -401 -41 -4 2 -9 26 -10 52 -1 26 -19 210 -40 408 -21 198 -38
361 -36 363 3 4 322 39 367 41 35 1 36 -1 42 -36z m170 -1655 c7 -50 75 -706
79 -758 l2 -35 -202 -20 -202 -21 -6 41 c-6 49 -74 707 -77 755 l-3 35 195 21
c107 12 198 22 201 23 4 0 9 -18 13 -41z m43496 -1139 c205 -37 431 -157 586
-313 318 -317 416 -809 245 -1225 -60 -145 -143 -263 -275 -389 -172 -165
-369 -262 -603 -297 -124 -19 -214 -19 -330 0 -246 40 -451 144 -624 315 -170
170 -274 362 -320 595 -17 87 -18 329 -1 410 62 290 209 526 435 696 78 59
202 128 280 155 21 8 118 23 215 34 97 11 200 24 227 29 51 8 68 7 165 -10z
m-43304 -679 c11 -110 19 -200 19 -201 0 0 -90 -12 -200 -28 l-200 -27 -6 30
c-14 62 -42 377 -35 384 8 8 274 39 351 41 l51 1 20 -200z m-10964 -8035 c228
-39 430 -146 599 -314 147 -148 241 -313 297 -520 22 -84 25 -117 26 -266 1
-193 -12 -269 -71 -420 -130 -331 -420 -588 -768 -682 -91 -24 -116 -27 -280
-27 -165 0 -189 3 -280 27 -439 120 -763 479 -835 930 -17 106 -8 327 19 433
106 425 463 761 893 839 100 18 297 18 400 0z"/>
<path d="M48385 68330 c-317 -50 -475 -259 -492 -650 -11 -262 54 -437 199
-531 153 -99 383 -92 525 17 130 99 179 351 103 528 -24 56 -92 131 -141 156
-136 70 -349 35 -414 -68 -30 -46 -39 -39 -31 26 12 108 35 162 96 223 79 79
126 94 303 94 l138 0 -3 99 c-3 90 -5 99 -23 103 -52 9 -206 11 -260 3z m35
-658 c55 -27 80 -81 80 -178 0 -137 -54 -204 -165 -204 -106 0 -185 95 -185
222 0 73 32 123 105 161 40 22 122 21 165 -1z"/>
<path d="M64903 44991 l-411 -178 -556 102 c-306 56 -556 99 -556 96 0 -12
1314 -3070 1318 -3067 4 5 599 3073 617 3184 4 23 5 42 3 41 -1 0 -188 -81
-415 -178z"/>
<path d="M37895 60985 c-161 -35 -256 -124 -272 -253 -11 -98 46 -221 136
-289 27 -21 50 -41 50 -45 1 -4 -14 -15 -31 -24 -96 -49 -156 -124 -184 -233
-13 -54 -14 -74 -4 -125 30 -153 126 -233 318 -264 230 -38 445 47 513 201 31
72 31 164 0 234 -26 58 -121 155 -188 193 l-42 23 52 35 c74 48 104 79 133
137 93 190 -23 377 -256 414 -84 14 -150 13 -225 -4z m202 -195 c50 -30 66
-62 61 -121 -6 -56 -39 -99 -106 -137 l-38 -21 -44 28 c-72 46 -93 74 -98 134
-4 47 -1 57 24 86 15 18 37 37 48 41 39 16 119 11 153 -10z m-12 -548 c38 -26
80 -62 92 -81 46 -69 20 -175 -52 -210 -77 -38 -214 -20 -265 34 -24 26 -38
102 -26 149 12 48 131 157 170 156 6 0 42 -22 81 -48z"/>
<path d="M59640 60043 c-260 -34 -418 -174 -480 -424 -30 -119 -38 -356 -16
-459 55 -259 252 -400 506 -362 146 22 244 93 303 221 25 54 31 83 35 162 8
159 -28 262 -121 345 -65 59 -131 78 -246 72 -103 -5 -150 -26 -209 -93 -22
-25 -42 -45 -44 -45 -9 0 12 134 28 182 21 63 91 140 152 166 91 39 237 50
340 25 22 -5 22 -4 22 95 0 58 -4 104 -10 107 -13 8 -214 15 -260 8z m25 -661
c52 -31 70 -76 70 -172 0 -97 -19 -147 -66 -181 -59 -42 -148 -37 -203 12 -73
64 -103 196 -61 268 52 89 174 123 260 73z"/>
<path d="M58400 59889 c-96 -77 -183 -147 -194 -154 -18 -13 -15 -18 40 -89
33 -41 63 -75 68 -76 4 0 57 41 117 90 l109 90 0 -470 0 -470 125 0 125 0 0
610 0 610 -107 0 -108 -1 -175 -140z"/>
<path d="M41052 53461 c-100 -81 -187 -152 -194 -159 -8 -8 5 -31 48 -86 33
-41 61 -75 64 -75 3 0 55 41 115 92 l110 92 -4 -472 -3 -473 131 0 131 0 0
615 0 615 -107 -1 -108 0 -183 -148z"/>
<path d="M41876 53568 c-3 -24 -12 -142 -21 -263 -8 -121 -17 -241 -20 -267
l-6 -47 51 -29 c49 -28 51 -28 112 -16 84 18 183 17 245 -1 56 -17 109 -66
119 -113 3 -15 7 -33 10 -40 2 -7 -1 -36 -7 -65 -14 -65 -65 -118 -133 -137
-70 -19 -212 -8 -311 26 -44 15 -86 31 -92 37 -10 7 -13 -15 -13 -107 l0 -117
37 -15 c124 -52 390 -58 516 -11 131 48 200 118 238 240 28 90 24 247 -8 319
-29 64 -95 133 -157 163 -71 35 -193 52 -276 38 -36 -6 -68 -8 -72 -4 -4 3 -3
47 2 96 5 50 10 100 10 113 l0 22 220 0 220 0 0 110 0 110 -329 0 -330 0 -5
-42z"/>
<path d="M85933 45152 c-19 -6 -4 -21 115 -117 75 -60 140 -111 143 -113 12
-5 49 97 49 135 0 52 -21 78 -74 92 -48 12 -196 13 -233 3z"/>
<path d="M35365 42544 c-111 -28 -191 -65 -270 -125 l-55 -41 67 -82 c37 -44
68 -83 70 -85 1 -2 30 15 64 39 78 54 145 80 212 80 122 0 182 -85 147 -211
-21 -74 -94 -165 -326 -399 l-235 -238 3 -83 3 -84 428 -3 428 -2 -3 107 -3
108 -262 3 c-145 1 -263 6 -262 10 1 4 71 72 157 152 85 80 180 174 209 210
163 197 174 414 28 548 -76 69 -145 94 -275 98 -58 1 -114 1 -125 -2z"/>
<path d="M34297 42385 c-108 -86 -197 -160 -197 -165 0 -11 109 -150 118 -150
10 0 172 131 196 159 11 11 22 21 25 21 3 0 4 -211 3 -470 l-4 -470 131 0 131
0 -2 613 -3 612 -101 3 -100 3 -197 -156z"/>
<path d="M80160 40659 c-19 -12 -43 -30 -52 -40 -24 -24 -55 -87 -63 -125 -6
-29 -4 -32 26 -38 48 -9 139 -7 181 4 40 11 84 57 94 96 9 34 -3 72 -31 100
-32 32 -105 33 -155 3z"/>
<path d="M86580 37623 c-122 -19 -251 -64 -304 -105 -18 -14 -16 -18 39 -99
32 -46 60 -85 61 -87 1 -2 34 13 74 34 176 91 356 55 363 -73 4 -85 -34 -141
-111 -163 -20 -6 -88 -14 -150 -17 l-113 -6 3 -96 3 -96 125 -6 c213 -12 260
-41 260 -163 0 -66 -28 -112 -85 -141 -34 -17 -60 -20 -170 -20 -130 1 -161 7
-297 60 -17 7 -18 -2 -18 -103 l0 -110 28 -11 c74 -29 157 -44 288 -48 121 -5
152 -2 223 16 140 35 222 94 272 197 27 55 32 75 32 143 1 147 -66 232 -218
276 l-77 22 61 22 c71 26 142 91 173 159 46 102 29 228 -40 301 -82 87 -273
138 -422 114z"/>
<path d="M26530 37444 c-107 -85 -196 -157 -199 -159 -2 -3 22 -37 54 -77 32
-40 60 -75 61 -77 5 -5 106 74 170 132 28 26 53 47 55 47 2 0 4 -210 4 -467
l0 -468 128 -3 127 -3 -2 613 -3 613 -100 2 -100 2 -195 -155z"/>
<path d="M27510 37444 c-107 -85 -196 -157 -199 -159 -2 -3 22 -37 54 -77 32
-40 60 -75 61 -77 5 -5 106 74 170 132 28 26 53 47 55 47 2 0 4 -210 4 -467
l0 -468 128 -3 127 -3 -2 613 -3 613 -100 2 -100 2 -195 -155z"/>
<path d="M125050 36323 c0 -16 -9 -143 -20 -283 -27 -344 -30 -310 33 -342 47
-25 56 -27 92 -16 22 6 85 12 140 12 87 1 106 -2 149 -24 75 -38 91 -65 93
-166 2 -78 0 -86 -25 -115 -77 -92 -238 -100 -455 -22 -38 14 -71 23 -73 20
-2 -2 -1 -52 2 -110 l7 -106 61 -21 c130 -42 316 -50 441 -16 135 36 239 128
275 244 43 136 33 266 -25 354 -14 21 -25 42 -25 47 0 5 -14 21 -31 36 -82 68
-202 102 -327 91 -40 -4 -80 -10 -88 -13 -15 -6 -15 25 1 172 2 17 4 38 4 47
1 16 20 18 219 20 l217 3 0 105 0 105 -332 3 -333 2 0 -27z"/>
<path d="M45333 32653 l-193 -155 61 -74 c33 -41 63 -74 67 -74 10 0 139 104
185 148 l37 36 0 -472 0 -472 130 0 130 0 0 610 0 610 -112 -1 -113 0 -192
-156z"/>
<path d="M46317 32418 l-266 -393 -1 -92 0 -93 260 0 260 0 0 -125 0 -125 130
0 130 0 0 125 0 125 70 0 70 0 0 100 0 100 -70 0 -70 0 0 385 0 385 -123 0
-123 0 -267 -392z m255 -145 l-5 -233 -144 0 c-80 0 -143 3 -141 8 2 4 52 81
112 172 60 91 124 193 144 228 19 35 36 62 37 60 2 -2 0 -108 -3 -235z"/>
<path d="M34865 32335 c-108 -20 -255 -83 -255 -108 0 -5 25 -47 56 -92 l56
-82 54 29 c159 87 329 75 369 -25 35 -87 -10 -180 -100 -206 -22 -7 -88 -15
-147 -18 l-108 -6 0 -96 0 -96 83 0 c219 0 302 -44 301 -158 -2 -130 -89 -185
-277 -175 -89 5 -211 34 -269 64 l-28 15 0 -111 0 -110 34 -14 c76 -32 191
-50 316 -50 201 0 312 35 407 130 43 42 55 64 74 124 58 191 -26 340 -217 383
l-56 13 75 37 c86 43 138 95 161 165 22 63 20 160 -3 214 -64 145 -285 218
-526 173z"/>
<path d="M33979 32275 c-35 -30 -121 -100 -191 -157 l-126 -102 60 -73 c40
-50 64 -71 71 -65 7 5 58 45 115 90 l102 82 0 -470 0 -470 125 0 125 0 0 610
0 610 -108 0 -108 0 -65 -55z"/>
<path d="M101927 31348 c-68 -101 -190 -280 -270 -398 l-146 -215 -1 -92 0
-93 265 0 265 0 0 -125 0 -125 125 0 125 0 0 125 0 125 75 0 75 0 0 100 0 99
-72 3 -73 3 -5 385 -5 385 -117 3 -117 3 -124 -183z m115 -350 c-2 -128 -7
-237 -11 -241 -4 -4 -71 -6 -149 -5 l-142 3 139 213 c77 117 142 224 145 238
16 62 21 6 18 -208z"/>
<path d="M22834 29659 c-62 -14 -143 -68 -190 -126 -87 -107 -118 -256 -111
-533 3 -132 9 -204 22 -250 41 -154 116 -258 223 -308 52 -25 67 -27 177 -27
104 0 127 4 173 24 58 26 140 108 173 173 75 148 97 512 44 719 -17 65 -59
159 -93 207 -74 103 -259 156 -418 121z m206 -237 c60 -59 72 -114 78 -339 5
-214 -5 -299 -43 -378 -29 -61 -66 -85 -131 -85 -42 0 -51 4 -83 38 -57 60
-80 169 -81 379 0 237 43 388 120 416 8 3 35 6 59 6 37 1 49 -4 81 -37z"/>
<path d="M21800 29509 c-96 -77 -184 -148 -194 -159 -19 -18 -18 -20 42 -94
l60 -76 106 86 c58 47 106 90 106 95 0 5 3 9 8 9 4 0 7 -213 7 -472 l0 -473
128 -3 127 -3 0 616 0 615 -107 0 -108 -1 -175 -140z"/>
<path d="M79545 22589 c-65 -11 -160 -46 -210 -77 -72 -45 -116 -85 -110 -100
7 -19 118 -150 128 -151 4 -1 33 17 65 38 72 49 121 70 187 77 72 9 140 -21
160 -70 31 -75 7 -181 -61 -266 -19 -25 -136 -149 -260 -277 l-224 -231 0 -91
0 -91 425 0 425 0 0 110 0 110 -265 0 c-146 0 -265 3 -265 7 0 4 84 87 186
186 263 255 307 326 308 497 0 106 -15 148 -79 219 -85 93 -248 137 -410 110z"/>
<path d="M64775 17959 c-104 -84 -192 -156 -193 -161 -4 -10 105 -148 117
-148 11 0 158 119 190 154 14 14 27 26 30 26 3 0 6 -213 6 -472 l0 -473 125 0
125 0 3 613 2 612 -107 0 -108 0 -190 -151z"/>
<path d="M10610 9435 c-123 -35 -215 -130 -256 -264 -20 -67 -14 -262 11 -321
63 -154 173 -219 351 -208 96 6 145 28 204 95 l43 48 -7 -62 c-18 -168 -86
-261 -216 -300 -58 -18 -242 -24 -292 -10 l-28 7 0 -104 c0 -99 1 -104 23
-110 42 -11 252 -6 319 9 138 29 262 112 332 224 68 107 106 276 106 466 -1
256 -81 420 -246 502 -70 34 -82 37 -182 40 -74 2 -124 -2 -162 -12z m191
-195 c46 -13 114 -85 128 -136 42 -152 -35 -264 -181 -264 -107 0 -158 62
-158 190 1 157 88 244 211 210z"/>
<path d="M106160 23574 c-377 -134 -721 -257 -765 -272 -97 -35 -831 -297
-1005 -359 -69 -25 -192 -69 -275 -98 -82 -29 -157 -55 -165 -58 -8 -4 -46
-17 -85 -30 -74 -26 -1176 -416 -1330 -472 -49 -18 -270 -97 -490 -175 -220
-78 -449 -160 -510 -182 -183 -66 -276 -98 -355 -124 -41 -13 -84 -28 -95 -34
-11 -6 -47 -19 -80 -30 -33 -10 -103 -34 -155 -53 -435 -155 -585 -210 -645
-235 -309 -130 -328 -140 -309 -150 19 -10 189 -48 434 -97 69 -14 188 -38
265 -54 467 -96 515 -106 815 -165 74 -15 152 -31 172 -36 20 -6 92 -21 160
-34 146 -29 290 -58 448 -91 121 -25 251 -52 440 -89 142 -28 647 -132 910
-186 107 -23 249 -52 315 -65 66 -13 253 -51 415 -85 367 -76 551 -114 705
-145 66 -13 197 -40 290 -60 94 -19 226 -47 295 -60 69 -14 190 -39 270 -55
157 -33 365 -75 585 -120 155 -31 412 -84 491 -101 58 -13 52 -14 409 95 121
38 292 90 380 116 88 27 266 81 395 120 129 40 291 89 360 110 69 21 202 61
295 90 287 87 719 219 1070 324 121 37 231 70 245 75 14 5 86 27 160 50 74 22
248 74 385 116 138 42 315 96 395 120 80 24 258 78 395 120 138 42 347 106
465 142 291 88 434 131 635 193 94 29 190 58 215 65 25 7 98 29 163 49 213 66
350 107 512 156 88 26 214 65 280 85 66 20 144 44 173 52 29 9 50 18 48 20 -3
3 -78 24 -168 48 -90 24 -264 70 -388 103 -124 33 -378 101 -565 151 -187 49
-443 117 -570 151 -328 88 -617 164 -1035 275 -201 53 -455 121 -565 150 -110
29 -353 94 -540 143 -187 50 -443 118 -570 152 -126 34 -383 102 -570 152
-187 49 -412 109 -500 133 -88 23 -290 77 -450 119 -159 43 -400 107 -535 143
-135 36 -262 69 -283 74 -21 5 -86 23 -144 39 -59 17 -118 30 -132 29 -14 -1
-334 -111 -711 -245z"/>
</g>
</svg>
